<svg viewBox="0 0 99.7104 84.7031" xmlns="http://www.w3.org/2000/svg" xmlns:xlink="http://www.w3.org/1999/xlink" width="99.710449" height="84.703125" opacity="0.200000003" fill="none" customFrame="#000000">
	<rect id="shapes" width="88.000000" height="47.000000" x="0.000000" y="0.000000" transform="matrix(0.866025,-0.5,0.5,0.866025,0,44)" />
	<path id="Vector" d="M33.1803 27.4978C25.6036 35.0745 13.2594 35.0745 5.68259 27.4978C-1.8942 19.921 -1.8942 7.57678 5.68259 0L33.1803 27.4978Z" fill="rgb(255,207,45)" fill-rule="nonzero" transform="matrix(-0.259173,0.965831,0.966021,0.258465,61.0596,8.74707)" />
	<path id="Vector" d="M33.1803 27.4978C25.6036 35.0745 13.2594 35.0745 5.68259 27.4978C-1.8942 19.921 -1.8942 7.57678 5.68259 0L33.1803 27.4978Z" fill="rgb(255,207,45)" fill-rule="nonzero" transform="matrix(-0.259173,0.965831,0.966021,0.258465,34.7803,23.9199)" />
	<path id="Vector" d="M33.1803 27.4978C25.6036 35.0745 13.2594 35.0745 5.68258 27.4978C-1.8942 19.921 -1.8942 7.57678 5.68258 0L33.1803 27.4978Z" fill="rgb(255,207,45)" fill-rule="nonzero" transform="matrix(-0.259173,0.965831,0.966021,0.258465,8.50098,39.0918)" />
</svg>
