<svg viewBox="0 0 1920 1080" xmlns="http://www.w3.org/2000/svg" xmlns:xlink="http://www.w3.org/1999/xlink" width="1920.000000" height="1080.000000" fill="none">
	<defs>
		<clipPath id="clipPath_0">
			<rect width="284.000000" height="284.000000" x="-112.000000" y="896.000000" fill="rgb(255,255,255)" />
		</clipPath>
		<clipPath id="clipPath_1">
			<rect width="187.000000" height="137.000000" x="1763.000000" y="749.000000" fill="rgb(255,255,255)" />
		</clipPath>
		<clipPath id="clipPath_2">
			<rect width="88.000000" height="47.000000" x="782.000000" y="487.000000" fill="rgb(255,255,255)" />
		</clipPath>
	</defs>
	<rect id="shapes" width="1920.000000" height="1080.000000" x="0.000000" y="0.000000" />
	<g id="circles" opacity="0.200000003" clip-path="url(#clipPath_0)" customFrame="url(#clipPath_0)">
		<rect id="circles" width="284.000000" height="284.000000" x="-112.000000" y="896.000000" />
		<g id="Group">
			<path id="Vector" d="M30.0975 896C-48.4557 896 -112 959.544 -112 1038.1C-112 1116.46 -48.4557 1180.19 30.0975 1180.19C108.456 1180.19 172.195 1116.65 172.195 1038.1C172 959.544 108.456 896 30.0975 896ZM30.0975 1171.03C-43.3878 1171.03 -102.839 1111.58 -102.839 1038.1C-102.839 964.612 -43.3878 905.161 30.0975 905.161C103.583 905.161 163.034 964.612 163.034 1038.1C163.034 1111.39 103.388 1171.03 30.0975 1171.03Z" fill="rgb(255,255,255)" fill-rule="nonzero" />
			<path id="Vector" d="M30.0988 926.603C-31.3014 926.603 -81.2012 976.502 -81.2012 1037.9C-81.2012 1099.3 -31.3014 1149.2 30.0988 1149.2C91.4989 1149.2 141.399 1099.5 141.399 1038.1C141.399 976.502 91.4989 926.603 30.0988 926.603ZM30.0988 1132.24C-21.9452 1132.24 -64.243 1089.95 -64.243 1037.9C-64.243 985.859 -21.9452 943.561 30.0988 943.561C82.1427 943.561 124.441 985.859 124.441 1037.9C124.441 1089.95 82.1427 1132.24 30.0988 1132.24Z" fill="rgb(255,255,255)" fill-rule="nonzero" />
			<path id="Vector" d="M30.098 975.527C-4.40304 975.527 -32.4717 1003.6 -32.4717 1038.1C-32.4717 1072.6 -4.59795 1100.67 30.098 1100.67C64.599 1100.67 92.6677 1072.6 92.6677 1038.1C92.4727 1003.6 64.599 975.527 30.098 975.527ZM30.098 1071.62C11.5805 1071.62 -3.42843 1056.61 -3.42843 1038.1C-3.42843 1019.58 11.5805 1004.57 30.098 1004.57C48.6155 1004.57 63.6244 1019.58 63.6244 1038.1C63.6244 1056.61 48.6155 1071.62 30.098 1071.62Z" fill="rgb(255,255,255)" fill-rule="nonzero" />
		</g>
	</g>
	<g id="dots" opacity="0.800000012" clip-path="url(#clipPath_1)" customFrame="url(#clipPath_1)">
		<rect id="dots" width="187.000000" height="137.000000" x="1763.000000" y="749.000000" />
		<g id="Group">
			<path id="Vector" d="M1768.34 789.264C1768.34 790.784 1767.19 791.923 1765.67 791.923C1764.14 791.923 1763 790.784 1763 789.264C1763 787.745 1764.14 786.605 1765.67 786.605C1767.19 786.605 1768.34 787.872 1768.34 789.264Z" fill="rgb(255,255,255)" fill-rule="nonzero" />
			<path id="Vector" d="M1791.08 789.264C1791.08 790.784 1789.93 791.923 1788.41 791.923C1786.88 791.923 1785.74 790.784 1785.74 789.264C1785.74 787.745 1786.88 786.605 1788.41 786.605C1789.8 786.605 1791.08 787.872 1791.08 789.264Z" fill="rgb(255,255,255)" fill-rule="nonzero" />
			<path id="Vector" d="M1813.69 789.264C1813.69 790.784 1812.54 791.923 1811.02 791.923C1809.5 791.923 1808.35 790.784 1808.35 789.264C1808.35 787.745 1809.5 786.605 1811.02 786.605C1812.54 786.605 1813.69 787.872 1813.69 789.264Z" fill="rgb(255,255,255)" fill-rule="nonzero" />
			<path id="Vector" d="M1836.43 789.264C1836.43 790.784 1835.28 791.923 1833.76 791.923C1832.24 791.923 1831.09 790.784 1831.09 789.264C1831.09 787.745 1832.24 786.605 1833.76 786.605C1835.28 786.605 1836.43 787.872 1836.43 789.264Z" fill="rgb(255,255,255)" fill-rule="nonzero" />
			<path id="Vector" d="M1859.17 789.264C1859.17 790.784 1858.02 791.923 1856.5 791.923C1854.98 791.923 1853.83 790.784 1853.83 789.264C1853.83 787.745 1854.98 786.605 1856.5 786.605C1857.9 786.605 1859.17 787.872 1859.17 789.264Z" fill="rgb(255,255,255)" fill-rule="nonzero" />
			<path id="Vector" d="M1881.91 789.264C1881.91 790.784 1880.76 791.923 1879.24 791.923C1877.72 791.923 1876.57 790.784 1876.57 789.264C1876.57 787.745 1877.72 786.605 1879.24 786.605C1880.76 786.605 1881.91 787.872 1881.91 789.264Z" fill="rgb(255,255,255)" fill-rule="nonzero" />
			<path id="Vector" d="M1904.52 789.264C1904.52 790.784 1903.38 791.923 1901.85 791.923C1900.33 791.923 1899.18 790.784 1899.18 789.264C1899.18 787.745 1900.33 786.605 1901.85 786.605C1903.38 786.605 1904.52 787.872 1904.52 789.264Z" fill="rgb(255,255,255)" fill-rule="nonzero" />
			<path id="Vector" d="M1927.26 789.264C1927.26 790.784 1926.12 791.923 1924.59 791.923C1923.07 791.923 1921.92 790.784 1921.92 789.264C1921.92 787.745 1923.07 786.605 1924.59 786.605C1926.12 786.605 1927.26 787.872 1927.26 789.264Z" fill="rgb(255,255,255)" fill-rule="nonzero" />
			<path id="Vector" d="M1950 789.264C1950 790.784 1948.86 791.923 1947.33 791.923C1945.81 791.923 1944.66 790.784 1944.66 789.264C1944.66 787.745 1945.81 786.605 1947.33 786.605C1948.73 786.605 1950 787.872 1950 789.264Z" fill="rgb(255,255,255)" fill-rule="nonzero" />
			<path id="Vector" d="M1768.34 808.131C1768.34 809.65 1767.19 810.79 1765.67 810.79C1764.14 810.79 1763 809.65 1763 808.131C1763 806.611 1764.14 805.472 1765.67 805.472C1767.19 805.472 1768.34 806.611 1768.34 808.131Z" fill="rgb(255,255,255)" fill-rule="nonzero" />
			<path id="Vector" d="M1791.08 808.131C1791.08 809.65 1789.93 810.79 1788.41 810.79C1786.88 810.79 1785.74 809.65 1785.74 808.131C1785.74 806.611 1786.88 805.472 1788.41 805.472C1789.8 805.472 1791.08 806.611 1791.08 808.131Z" fill="rgb(255,255,255)" fill-rule="nonzero" />
			<path id="Vector" d="M1813.69 808.131C1813.69 809.65 1812.54 810.79 1811.02 810.79C1809.5 810.79 1808.35 809.65 1808.35 808.131C1808.35 806.611 1809.5 805.472 1811.02 805.472C1812.54 805.472 1813.69 806.611 1813.69 808.131Z" fill="rgb(255,255,255)" fill-rule="nonzero" />
			<path id="Vector" d="M1836.43 808.131C1836.43 809.65 1835.28 810.79 1833.76 810.79C1832.24 810.79 1831.09 809.65 1831.09 808.131C1831.09 806.611 1832.24 805.472 1833.76 805.472C1835.28 805.472 1836.43 806.611 1836.43 808.131Z" fill="rgb(255,255,255)" fill-rule="nonzero" />
			<path id="Vector" d="M1859.17 808.131C1859.17 809.65 1858.02 810.79 1856.5 810.79C1854.98 810.79 1853.83 809.65 1853.83 808.131C1853.83 806.611 1854.98 805.472 1856.5 805.472C1857.9 805.472 1859.17 806.611 1859.17 808.131Z" fill="rgb(255,255,255)" fill-rule="nonzero" />
			<path id="Vector" d="M1881.91 808.131C1881.91 809.65 1880.76 810.79 1879.24 810.79C1877.72 810.79 1876.57 809.65 1876.57 808.131C1876.57 806.611 1877.72 805.472 1879.24 805.472C1880.76 805.472 1881.91 806.611 1881.91 808.131Z" fill="rgb(255,255,255)" fill-rule="nonzero" />
			<path id="Vector" d="M1904.52 808.131C1904.52 809.65 1903.38 810.79 1901.85 810.79C1900.33 810.79 1899.18 809.65 1899.18 808.131C1899.18 806.611 1900.33 805.472 1901.85 805.472C1903.38 805.472 1904.52 806.611 1904.52 808.131Z" fill="rgb(255,255,255)" fill-rule="nonzero" />
			<path id="Vector" d="M1927.26 808.131C1927.26 809.65 1926.12 810.79 1924.59 810.79C1923.07 810.79 1921.92 809.65 1921.92 808.131C1921.92 806.611 1923.07 805.472 1924.59 805.472C1926.12 805.472 1927.26 806.611 1927.26 808.131Z" fill="rgb(255,255,255)" fill-rule="nonzero" />
			<path id="Vector" d="M1950 808.131C1950 809.65 1948.86 810.79 1947.33 810.79C1945.81 810.79 1944.66 809.65 1944.66 808.131C1944.66 806.611 1945.81 805.472 1947.33 805.472C1948.73 805.472 1950 806.611 1950 808.131Z" fill="rgb(255,255,255)" fill-rule="nonzero" />
			<path id="Vector" d="M1768.34 751.659C1768.34 753.178 1767.19 754.318 1765.67 754.318C1764.14 754.318 1763 753.178 1763 751.659C1763 750.14 1764.14 749 1765.67 749C1767.19 749 1768.34 750.14 1768.34 751.659Z" fill="rgb(255,255,255)" fill-rule="nonzero" />
			<path id="Vector" d="M1791.08 751.659C1791.08 753.178 1789.93 754.318 1788.41 754.318C1786.88 754.318 1785.74 753.178 1785.74 751.659C1785.74 750.14 1786.88 749 1788.41 749C1789.8 749 1791.08 750.14 1791.08 751.659Z" fill="rgb(255,255,255)" fill-rule="nonzero" />
			<path id="Vector" d="M1813.69 751.659C1813.69 753.178 1812.54 754.318 1811.02 754.318C1809.5 754.318 1808.35 753.178 1808.35 751.659C1808.35 750.14 1809.62 749 1811.02 749C1812.54 749 1813.69 750.14 1813.69 751.659Z" fill="rgb(255,255,255)" fill-rule="nonzero" />
			<path id="Vector" d="M1836.43 751.659C1836.43 753.178 1835.28 754.318 1833.76 754.318C1832.24 754.318 1831.09 753.178 1831.09 751.659C1831.09 750.14 1832.36 749 1833.76 749C1835.16 749 1836.43 750.14 1836.43 751.659Z" fill="rgb(255,255,255)" fill-rule="nonzero" />
			<path id="Vector" d="M1859.17 751.659C1859.17 753.178 1858.02 754.318 1856.5 754.318C1854.98 754.318 1853.83 753.178 1853.83 751.659C1853.83 750.14 1854.98 749 1856.5 749C1857.9 749 1859.17 750.14 1859.17 751.659Z" fill="rgb(255,255,255)" fill-rule="nonzero" />
			<path id="Vector" d="M1881.91 751.659C1881.91 753.178 1880.76 754.318 1879.24 754.318C1877.72 754.318 1876.57 753.178 1876.57 751.659C1876.57 750.14 1877.72 749 1879.24 749C1880.76 749 1881.91 750.14 1881.91 751.659Z" fill="rgb(255,255,255)" fill-rule="nonzero" />
			<path id="Vector" d="M1904.52 751.659C1904.52 753.178 1903.38 754.318 1901.85 754.318C1900.33 754.318 1899.18 753.178 1899.18 751.659C1899.18 750.14 1900.33 749 1901.85 749C1903.38 749 1904.52 750.14 1904.52 751.659Z" fill="rgb(255,255,255)" fill-rule="nonzero" />
			<path id="Vector" d="M1927.26 751.659C1927.26 753.178 1926.12 754.318 1924.59 754.318C1923.07 754.318 1921.92 753.178 1921.92 751.659C1921.92 750.14 1923.07 749 1924.59 749C1926.12 749 1927.26 750.14 1927.26 751.659Z" fill="rgb(255,255,255)" fill-rule="nonzero" />
			<path id="Vector" d="M1950 751.659C1950 753.178 1948.86 754.318 1947.33 754.318C1945.81 754.318 1944.66 753.178 1944.66 751.659C1944.66 750.14 1945.81 749 1947.33 749C1948.73 749 1950 750.14 1950 751.659Z" fill="rgb(255,255,255)" fill-rule="nonzero" />
			<path id="Vector" d="M1768.34 770.525C1768.34 772.045 1767.19 773.184 1765.67 773.184C1764.14 773.184 1763 771.918 1763 770.525C1763 769.006 1764.14 767.866 1765.67 767.866C1767.19 767.866 1768.34 769.006 1768.34 770.525Z" fill="rgb(255,255,255)" fill-rule="nonzero" />
			<path id="Vector" d="M1791.08 770.525C1791.08 772.045 1789.93 773.184 1788.41 773.184C1786.88 773.184 1785.74 772.045 1785.74 770.525C1785.74 769.006 1786.88 767.866 1788.41 767.866C1789.8 767.866 1791.08 769.006 1791.08 770.525Z" fill="rgb(255,255,255)" fill-rule="nonzero" />
			<path id="Vector" d="M1813.69 770.525C1813.69 772.045 1812.54 773.184 1811.02 773.184C1809.5 773.184 1808.35 772.045 1808.35 770.525C1808.35 769.006 1809.5 767.866 1811.02 767.866C1812.54 767.866 1813.69 769.006 1813.69 770.525Z" fill="rgb(255,255,255)" fill-rule="nonzero" />
			<path id="Vector" d="M1836.43 770.525C1836.43 772.045 1835.28 773.184 1833.76 773.184C1832.24 773.184 1831.09 772.045 1831.09 770.525C1831.09 769.006 1832.24 767.866 1833.76 767.866C1835.28 767.866 1836.43 769.006 1836.43 770.525Z" fill="rgb(255,255,255)" fill-rule="nonzero" />
			<path id="Vector" d="M1859.17 770.525C1859.17 772.045 1858.02 773.184 1856.5 773.184C1854.98 773.184 1853.83 772.045 1853.83 770.525C1853.83 769.006 1854.98 767.866 1856.5 767.866C1857.9 767.866 1859.17 769.006 1859.17 770.525Z" fill="rgb(255,255,255)" fill-rule="nonzero" />
			<path id="Vector" d="M1881.91 770.525C1881.91 772.045 1880.76 773.184 1879.24 773.184C1877.72 773.184 1876.57 772.045 1876.57 770.525C1876.57 769.006 1877.72 767.866 1879.24 767.866C1880.76 767.866 1881.91 769.006 1881.91 770.525Z" fill="rgb(255,255,255)" fill-rule="nonzero" />
			<path id="Vector" d="M1904.52 770.525C1904.52 772.045 1903.38 773.184 1901.85 773.184C1900.33 773.184 1899.18 772.045 1899.18 770.525C1899.18 769.006 1900.33 767.866 1901.85 767.866C1903.38 767.866 1904.52 769.006 1904.52 770.525Z" fill="rgb(255,255,255)" fill-rule="nonzero" />
			<path id="Vector" d="M1927.26 770.525C1927.26 772.045 1926.12 773.184 1924.59 773.184C1923.07 773.184 1921.92 772.045 1921.92 770.525C1921.92 769.006 1923.07 767.866 1924.59 767.866C1926.12 767.866 1927.26 769.006 1927.26 770.525Z" fill="rgb(255,255,255)" fill-rule="nonzero" />
			<path id="Vector" d="M1950 770.525C1950 772.045 1948.86 773.184 1947.33 773.184C1945.81 773.184 1944.66 772.045 1944.66 770.525C1944.66 769.006 1945.81 767.866 1947.33 767.866C1948.73 767.866 1950 769.006 1950 770.525Z" fill="rgb(255,255,255)" fill-rule="nonzero" />
			<path id="Vector" d="M1768.34 826.87C1768.34 828.389 1767.19 829.529 1765.67 829.529C1764.14 829.529 1763 828.389 1763 826.87C1763 825.35 1764.14 824.211 1765.67 824.211C1767.19 824.211 1768.34 825.477 1768.34 826.87Z" fill="rgb(255,255,255)" fill-rule="nonzero" />
			<path id="Vector" d="M1791.08 826.87C1791.08 828.389 1789.93 829.529 1788.41 829.529C1786.88 829.529 1785.74 828.389 1785.74 826.87C1785.74 825.35 1786.88 824.211 1788.41 824.211C1789.8 824.211 1791.08 825.477 1791.08 826.87Z" fill="rgb(255,255,255)" fill-rule="nonzero" />
			<path id="Vector" d="M1813.69 826.87C1813.69 828.389 1812.54 829.529 1811.02 829.529C1809.5 829.529 1808.35 828.389 1808.35 826.87C1808.35 825.35 1809.5 824.211 1811.02 824.211C1812.54 824.211 1813.69 825.477 1813.69 826.87Z" fill="rgb(255,255,255)" fill-rule="nonzero" />
			<path id="Vector" d="M1836.43 826.87C1836.43 828.389 1835.28 829.529 1833.76 829.529C1832.24 829.529 1831.09 828.389 1831.09 826.87C1831.09 825.35 1832.24 824.211 1833.76 824.211C1835.28 824.211 1836.43 825.477 1836.43 826.87Z" fill="rgb(255,255,255)" fill-rule="nonzero" />
			<path id="Vector" d="M1859.17 826.87C1859.17 828.389 1858.02 829.529 1856.5 829.529C1854.98 829.529 1853.83 828.389 1853.83 826.87C1853.83 825.35 1854.98 824.211 1856.5 824.211C1857.9 824.211 1859.17 825.477 1859.17 826.87Z" fill="rgb(255,255,255)" fill-rule="nonzero" />
			<path id="Vector" d="M1881.91 826.87C1881.91 828.389 1880.76 829.529 1879.24 829.529C1877.72 829.529 1876.57 828.389 1876.57 826.87C1876.57 825.35 1877.72 824.211 1879.24 824.211C1880.76 824.211 1881.91 825.477 1881.91 826.87Z" fill="rgb(255,255,255)" fill-rule="nonzero" />
			<path id="Vector" d="M1904.52 826.87C1904.52 828.389 1903.38 829.529 1901.85 829.529C1900.33 829.529 1899.18 828.389 1899.18 826.87C1899.18 825.35 1900.33 824.211 1901.85 824.211C1903.38 824.211 1904.52 825.477 1904.52 826.87Z" fill="rgb(255,255,255)" fill-rule="nonzero" />
			<path id="Vector" d="M1927.26 826.87C1927.26 828.389 1926.12 829.529 1924.59 829.529C1923.07 829.529 1921.92 828.389 1921.92 826.87C1921.92 825.35 1923.07 824.211 1924.59 824.211C1926.12 824.211 1927.26 825.477 1927.26 826.87Z" fill="rgb(255,255,255)" fill-rule="nonzero" />
			<path id="Vector" d="M1950 826.87C1950 828.389 1948.86 829.529 1947.33 829.529C1945.81 829.529 1944.66 828.389 1944.66 826.87C1944.66 825.35 1945.81 824.211 1947.33 824.211C1948.73 824.211 1950 825.477 1950 826.87Z" fill="rgb(255,255,255)" fill-rule="nonzero" />
			<path id="Vector" d="M1768.34 845.735C1768.34 847.255 1767.19 848.394 1765.67 848.394C1764.14 848.394 1763 847.255 1763 845.735C1763 844.216 1764.14 843.076 1765.67 843.076C1767.19 843.076 1768.34 844.216 1768.34 845.735Z" fill="rgb(255,255,255)" fill-rule="nonzero" />
			<path id="Vector" d="M1791.08 845.735C1791.08 847.255 1789.93 848.394 1788.41 848.394C1786.88 848.394 1785.74 847.255 1785.74 845.735C1785.74 844.216 1786.88 843.076 1788.41 843.076C1789.8 843.076 1791.08 844.216 1791.08 845.735Z" fill="rgb(255,255,255)" fill-rule="nonzero" />
			<path id="Vector" d="M1813.69 845.735C1813.69 847.255 1812.54 848.394 1811.02 848.394C1809.5 848.394 1808.35 847.255 1808.35 845.735C1808.35 844.216 1809.5 843.076 1811.02 843.076C1812.54 843.076 1813.69 844.216 1813.69 845.735Z" fill="rgb(255,255,255)" fill-rule="nonzero" />
			<path id="Vector" d="M1833.76 848.394C1835.23 848.394 1836.43 847.204 1836.43 845.735C1836.43 844.267 1835.23 843.076 1833.76 843.076C1832.29 843.076 1831.09 844.267 1831.09 845.735C1831.09 847.204 1832.29 848.394 1833.76 848.394Z" fill="rgb(255,255,255)" fill-rule="evenodd" />
			<path id="Vector" d="M1859.17 845.735C1859.17 847.255 1858.02 848.394 1856.5 848.394C1854.98 848.394 1853.83 847.255 1853.83 845.735C1853.83 844.216 1854.98 843.076 1856.5 843.076C1857.9 843.076 1859.17 844.216 1859.17 845.735Z" fill="rgb(255,255,255)" fill-rule="nonzero" />
			<path id="Vector" d="M1881.91 845.735C1881.91 847.255 1880.76 848.394 1879.24 848.394C1877.72 848.394 1876.57 847.255 1876.57 845.735C1876.57 844.216 1877.72 843.076 1879.24 843.076C1880.76 843.076 1881.91 844.216 1881.91 845.735Z" fill="rgb(255,255,255)" fill-rule="nonzero" />
			<path id="Vector" d="M1904.52 845.735C1904.52 847.255 1903.38 848.394 1901.85 848.394C1900.33 848.394 1899.18 847.255 1899.18 845.735C1899.18 844.216 1900.33 843.076 1901.85 843.076C1903.38 843.076 1904.52 844.216 1904.52 845.735Z" fill="rgb(255,255,255)" fill-rule="nonzero" />
			<path id="Vector" d="M1924.59 848.394C1926.07 848.394 1927.26 847.204 1927.26 845.735C1927.26 844.267 1926.07 843.076 1924.59 843.076C1923.12 843.076 1921.92 844.267 1921.92 845.735C1921.92 847.204 1923.12 848.394 1924.59 848.394Z" fill="rgb(255,255,255)" fill-rule="evenodd" />
			<path id="Vector" d="M1950 845.735C1950 847.255 1948.86 848.394 1947.33 848.394C1945.81 848.394 1944.66 847.255 1944.66 845.735C1944.66 844.216 1945.81 843.076 1947.33 843.076C1948.73 843.076 1950 844.216 1950 845.735Z" fill="rgb(255,255,255)" fill-rule="nonzero" />
			<path id="Vector" d="M1768.34 864.601C1768.34 866.121 1767.19 867.26 1765.67 867.26C1764.14 867.26 1763 866.121 1763 864.601C1763 863.082 1764.14 861.942 1765.67 861.942C1767.19 861.942 1768.34 863.082 1768.34 864.601Z" fill="rgb(255,255,255)" fill-rule="nonzero" />
			<path id="Vector" d="M1791.08 864.601C1791.08 866.121 1789.93 867.26 1788.41 867.26C1786.88 867.26 1785.74 866.121 1785.74 864.601C1785.74 863.082 1786.88 861.942 1788.41 861.942C1789.8 861.942 1791.08 863.082 1791.08 864.601Z" fill="rgb(255,255,255)" fill-rule="nonzero" />
			<path id="Vector" d="M1813.69 864.601C1813.69 866.121 1812.54 867.26 1811.02 867.26C1809.5 867.26 1808.35 866.121 1808.35 864.601C1808.35 863.082 1809.5 861.942 1811.02 861.942C1812.54 861.942 1813.69 863.082 1813.69 864.601Z" fill="rgb(255,255,255)" fill-rule="nonzero" />
			<path id="Vector" d="M1836.43 864.601C1836.43 866.121 1835.28 867.26 1833.76 867.26C1832.24 867.26 1831.09 866.121 1831.09 864.601C1831.09 863.082 1832.24 861.942 1833.76 861.942C1835.28 861.942 1836.43 863.082 1836.43 864.601Z" fill="rgb(255,255,255)" fill-rule="nonzero" />
			<path id="Vector" d="M1859.17 864.601C1859.17 866.121 1858.02 867.26 1856.5 867.26C1854.98 867.26 1853.83 866.121 1853.83 864.601C1853.83 863.082 1854.98 861.942 1856.5 861.942C1857.9 861.942 1859.17 863.082 1859.17 864.601Z" fill="rgb(255,255,255)" fill-rule="nonzero" />
			<path id="Vector" d="M1881.91 864.601C1881.91 866.121 1880.76 867.26 1879.24 867.26C1877.72 867.26 1876.57 866.121 1876.57 864.601C1876.57 863.082 1877.72 861.942 1879.24 861.942C1880.76 861.942 1881.91 863.082 1881.91 864.601Z" fill="rgb(255,255,255)" fill-rule="nonzero" />
			<path id="Vector" d="M1904.52 864.601C1904.52 866.121 1903.38 867.26 1901.85 867.26C1900.33 867.26 1899.18 866.121 1899.18 864.601C1899.18 863.082 1900.33 861.942 1901.85 861.942C1903.38 861.942 1904.52 863.082 1904.52 864.601Z" fill="rgb(255,255,255)" fill-rule="nonzero" />
			<path id="Vector" d="M1927.26 864.601C1927.26 866.121 1926.12 867.26 1924.59 867.26C1923.07 867.26 1921.92 866.121 1921.92 864.601C1921.92 863.082 1923.07 861.942 1924.59 861.942C1926.12 861.942 1927.26 863.082 1927.26 864.601Z" fill="rgb(255,255,255)" fill-rule="nonzero" />
			<path id="Vector" d="M1950 864.601C1950 866.121 1948.86 867.26 1947.33 867.26C1945.81 867.26 1944.66 866.121 1944.66 864.601C1944.66 863.082 1945.81 861.942 1947.33 861.942C1948.73 861.942 1950 863.082 1950 864.601Z" fill="rgb(255,255,255)" fill-rule="nonzero" />
			<path id="Vector" d="M1768.34 883.341C1768.34 884.86 1767.19 886 1765.67 886C1764.14 886 1763 884.86 1763 883.341C1763 881.821 1764.14 880.682 1765.67 880.682C1767.19 880.682 1768.34 881.948 1768.34 883.341Z" fill="rgb(255,255,255)" fill-rule="nonzero" />
			<path id="Vector" d="M1791.08 883.341C1791.08 884.86 1789.93 886 1788.41 886C1786.88 886 1785.74 884.86 1785.74 883.341C1785.74 881.821 1786.88 880.682 1788.41 880.682C1789.8 880.682 1791.08 881.948 1791.08 883.341Z" fill="rgb(255,255,255)" fill-rule="nonzero" />
			<path id="Vector" d="M1813.69 883.341C1813.69 884.86 1812.54 886 1811.02 886C1809.5 886 1808.35 884.86 1808.35 883.341C1808.35 881.821 1809.5 880.682 1811.02 880.682C1812.54 880.682 1813.69 881.948 1813.69 883.341Z" fill="rgb(255,255,255)" fill-rule="nonzero" />
			<path id="Vector" d="M1836.43 883.341C1836.43 884.86 1835.28 886 1833.76 886C1832.24 886 1831.09 884.86 1831.09 883.341C1831.09 881.821 1832.24 880.682 1833.76 880.682C1835.28 880.682 1836.43 881.948 1836.43 883.341Z" fill="rgb(255,255,255)" fill-rule="nonzero" />
			<path id="Vector" d="M1859.17 883.341C1859.17 884.86 1858.02 886 1856.5 886C1854.98 886 1853.83 884.86 1853.83 883.341C1853.83 881.821 1854.98 880.682 1856.5 880.682C1857.9 880.682 1859.17 881.948 1859.17 883.341Z" fill="rgb(255,255,255)" fill-rule="nonzero" />
			<path id="Vector" d="M1881.91 883.341C1881.91 884.86 1880.76 886 1879.24 886C1877.72 886 1876.57 884.86 1876.57 883.341C1876.57 881.821 1877.72 880.682 1879.24 880.682C1880.76 880.682 1881.91 881.948 1881.91 883.341Z" fill="rgb(255,255,255)" fill-rule="nonzero" />
			<path id="Vector" d="M1904.52 883.341C1904.52 884.86 1903.38 886 1901.85 886C1900.33 886 1899.18 884.86 1899.18 883.341C1899.18 881.821 1900.33 880.682 1901.85 880.682C1903.38 880.682 1904.52 881.948 1904.52 883.341Z" fill="rgb(255,255,255)" fill-rule="nonzero" />
			<path id="Vector" d="M1927.26 883.341C1927.26 884.86 1926.12 886 1924.59 886C1923.07 886 1921.92 884.86 1921.92 883.341C1921.92 881.821 1923.07 880.682 1924.59 880.682C1926.12 880.682 1927.26 881.948 1927.26 883.341Z" fill="rgb(255,255,255)" fill-rule="nonzero" />
			<path id="Vector" d="M1950 883.341C1950 884.86 1948.86 886 1947.33 886C1945.81 886 1944.66 884.86 1944.66 883.341C1944.66 881.821 1945.81 880.682 1947.33 880.682C1948.73 880.682 1950 881.948 1950 883.341Z" fill="rgb(255,255,255)" fill-rule="nonzero" />
		</g>
	</g>
	<g id="shapes" opacity="0.300000012">
		<path id="Vector" d="M36.3218 22.6623L36.3218 36.3218L0 36.3218L0 0L13.556 0L13.556 22.6623L36.3218 22.6623Z" fill="rgb(255,255,255)" fill-rule="nonzero" transform="matrix(0.707107,-0.707107,0.707107,0.707107,1720.1,84.8799)" />
		<path id="Vector" d="M36.3218 22.6623L36.3218 36.2183L0 36.2183L0 0L13.6595 0L13.6595 22.6623L36.3218 22.6623Z" fill="rgb(255,255,255)" fill-rule="nonzero" transform="matrix(0.707107,-0.707107,0.707107,0.707107,1720.1,50.1973)" />
		<path id="Vector" d="M36.2183 22.6623L36.2183 36.3218L0 36.3218L0 0L13.556 0L13.556 22.6623L36.2183 22.6623Z" fill="rgb(255,255,255)" fill-rule="nonzero" transform="matrix(0.707107,-0.707107,0.707107,0.707107,1720.1,15.3672)" />
		<path id="Vector" d="M36.3218 22.6623L36.3218 36.3218L0 36.3218L0 0L13.6595 0L13.6595 22.6623L36.3218 22.6623Z" fill="rgb(255,255,255)" fill-rule="nonzero" transform="matrix(0.707107,-0.707107,0.707107,0.707107,1720.1,-19.3174)" />
	</g>
	<path id="Vector" d="M794 808.553C780.071 822.482 757.377 822.482 743.447 808.553C729.518 794.623 729.518 771.929 743.447 758L794 808.553Z" opacity="0.300000012" fill="rgb(255,255,255)" fill-rule="nonzero" />
	<g id="shapes" opacity="0.300000012" customFrame="url(#clipPath_2)">
		<rect id="shapes" width="88.000000" height="47.000000" x="782.000000" y="487.000000" />
		<path id="Vector" d="M33.1803 27.4978C25.6036 35.0745 13.2594 35.0745 5.68259 27.4978C-1.8942 19.921 -1.8942 7.57678 5.68259 0L33.1803 27.4978Z" fill="rgb(255,255,255)" fill-rule="nonzero" transform="matrix(-0.707366,0.706847,0.707366,0.706847,852.506,487)" />
		<path id="Vector" d="M33.1803 27.4978C25.6036 35.0745 13.2594 35.0745 5.68259 27.4978C-1.8942 19.921 -1.8942 7.57678 5.68259 0L33.1803 27.4978Z" fill="rgb(255,255,255)" fill-rule="nonzero" transform="matrix(-0.707366,0.706847,0.707366,0.706847,822.161,487)" />
		<path id="Vector" d="M33.1803 27.4978C25.6036 35.0745 13.2594 35.0745 5.68258 27.4978C-1.8942 19.921 -1.8942 7.57678 5.68258 0L33.1803 27.4978Z" fill="rgb(255,255,255)" fill-rule="nonzero" transform="matrix(-0.707366,0.706847,0.707366,0.706847,791.816,487)" />
	</g>
	<g id="shapes" opacity="0.300000012">
		<path id="Vector" d="M31.6988 19.7779L31.6988 31.6988L0 31.6988L0 0L11.8306 0L11.8306 19.7779L31.6988 19.7779Z" fill="rgb(255,255,255)" fill-rule="nonzero" transform="matrix(-1,8.74228e-08,-8.74228e-08,-1,178,164.699)" />
		<path id="Vector" d="M31.6988 19.7779L31.6988 31.6085L0 31.6085L0 0L11.9209 0L11.9209 19.7779L31.6988 19.7779Z" fill="rgb(255,255,255)" fill-rule="nonzero" transform="matrix(-1,8.74228e-08,-8.74228e-08,-1,156.598,186.103)" />
		<path id="Vector" d="M31.6085 19.7779L31.6085 31.6988L0 31.6988L0 0L11.8306 0L11.8306 19.7779L31.6085 19.7779Z" fill="rgb(255,255,255)" fill-rule="nonzero" transform="matrix(-1,8.74228e-08,-8.74228e-08,-1,135.104,207.597)" />
		<path id="Vector" d="M31.6988 19.7779L31.6988 31.6988L0 31.6988L0 0L11.9209 0L11.9209 19.7779L31.6988 19.7779Z" fill="rgb(255,255,255)" fill-rule="nonzero" transform="matrix(-1,8.74228e-08,-8.74228e-08,-1,113.699,229)" />
	</g>
</svg>
