<svg viewBox="0 0 11.3335 14.334" xmlns="http://www.w3.org/2000/svg" xmlns:xlink="http://www.w3.org/1999/xlink" width="11.333496" height="14.333984" fill="none" customFrame="#000000">
	<path id="Vector" d="M4.16668 0C3.98987 0 3.8203 0.0702379 3.69528 0.195262L0.195279 3.69526C0.0702548 3.82029 1.69277e-05 3.98985 1.64906e-05 4.16667L0 11.6667C-3.73522e-06 13.1394 1.1939 14.3333 2.66667 14.3333L8.66669 14.3333C10.1394 14.3333 11.3334 13.1394 11.3334 11.6667L11.3334 2.66667C11.3334 1.19391 10.1394 0 8.66668 0L4.16668 0ZM1.33333 11.6667L1.33335 5.33333L4.66666 5.33333C5.03485 5.33333 5.33333 5.03486 5.33333 4.66667L5.33333 1.33333L8.66668 1.33333C9.40306 1.33333 10 1.93029 10 2.66667L10 11.6667C10 12.403 9.40307 13 8.66669 13L2.66667 13C1.93029 13 1.33333 12.403 1.33333 11.6667ZM3.99999 4L3.99999 1.77616L1.77616 4L3.99999 4ZM3 8.16667C3 7.79848 3.29848 7.5 3.66667 7.5L7.66667 7.5C8.03486 7.5 8.33333 7.79848 8.33333 8.16667C8.33333 8.53486 8.03486 8.83333 7.66667 8.83333L3.66667 8.83333C3.29848 8.83333 3 8.53486 3 8.16667ZM3 10.6667C3 10.2985 3.29848 10 3.66667 10L5.66667 10C6.03486 10 6.33333 10.2985 6.33333 10.6667C6.33333 11.0349 6.03486 11.3333 5.66667 11.3333L3.66667 11.3333C3.29848 11.3333 3 11.0349 3 10.6667Z" fill="rgb(65.6094,68.8538,80.75)" fill-rule="evenodd" />
</svg>
