<svg viewBox="0 0 14.3335 14.334" xmlns="http://www.w3.org/2000/svg" xmlns:xlink="http://www.w3.org/1999/xlink" width="14.333496" height="14.333984" fill="none" customFrame="#000000">
	<path id="Vector (Stroke)" d="M4.16667 6.35048e-14C4.53486 6.35048e-14 4.83333 0.298477 4.83333 0.666667L4.83333 1.00001L9.5 1.00002L9.5 0.666667C9.5 0.298477 9.79848 1.58946e-07 10.1667 6.35048e-14C10.5349 -1.58946e-07 10.8333 0.298477 10.8333 0.666667L10.8333 1.00002L11.6667 1.00002C13.1394 1.00002 14.3333 2.19393 14.3333 3.66669L14.3333 11.6667C14.3333 13.1394 13.1394 14.3333 11.6667 14.3333L2.66667 14.3333C1.19391 14.3333 -7.94729e-08 13.1394 3.9968e-15 11.6667L2.78155e-07 5.1668L3.57628e-07 3.66667C3.97364e-07 2.19391 1.19391 1 2.66667 1L3.5 1.00001L3.5 0.666667C3.5 0.298477 3.79848 6.35048e-14 4.16667 6.35048e-14ZM3.5 2.33334L2.66667 2.33334C1.93029 2.33334 1.33333 2.93029 1.33333 3.66667L1.33333 4.5L13 4.5L13 3.66669C13 2.93031 12.403 2.33336 11.6667 2.33335L10.8333 2.33335L10.8333 2.66667C10.8333 3.03486 10.5349 3.33333 10.1667 3.33333C9.79848 3.33333 9.5 3.03486 9.5 2.66667L9.5 2.33335L4.83333 2.33334L4.83333 2.66667C4.83333 3.03486 4.53486 3.33333 4.16667 3.33333C3.79848 3.33333 3.5 3.03486 3.5 2.66667L3.5 2.33334ZM13 5.83333L1.33333 5.83333L1.33333 11.6667C1.33333 12.403 1.93029 13 2.66667 13L11.6667 13C12.403 13 13 12.403 13 11.6667L13 5.83333Z" fill="rgb(120,122,128)" fill-rule="evenodd" />
</svg>
