<svg viewBox="0 0 24 24" xmlns="http://www.w3.org/2000/svg" xmlns:xlink="http://www.w3.org/1999/xlink" width="24.000000" height="24.000000" fill="none" customFrame="#000000">
	<rect id="Chat" width="24.000000" height="24.000000" x="0.000000" y="0.000000" />
	<path id="Vector" d="M10.9996 2C8.45234 2 6.10925 2.78841 4.38174 4.10945C2.6533 5.43119 1.49959 7.32806 1.49959 9.5C1.49959 10.5252 1.75869 11.4979 2.21897 12.3775C2.21938 12.4154 2.21758 12.4714 2.21062 12.5483C2.19058 12.7698 2.13702 13.0689 2.05449 13.4246C1.89065 14.1308 1.63926 14.9487 1.42611 15.5959C1.02395 16.8171 2.2399 17.9634 3.43353 17.4989C4.12252 17.2308 5.02707 16.8983 5.83253 16.6633C6.23713 16.5453 6.59282 16.459 6.87147 16.4149C7.05658 16.3856 7.15534 16.3842 7.19198 16.3836C7.20319 16.3835 7.20859 16.3834 7.20886 16.3826C8.37366 16.7811 9.65654 17 10.9996 17C13.5468 17 15.8899 16.2116 17.6175 14.8906C19.3459 13.5688 20.4996 11.6719 20.4996 9.5C20.4996 7.32806 19.3459 5.43119 17.6175 4.10945C15.8899 2.78841 13.5468 2 10.9996 2ZM3.49959 9.5C3.49959 8.08209 4.24868 6.72895 5.59664 5.69816C6.94552 4.66667 8.85242 4 10.9996 4C13.1468 4 15.0537 4.66667 16.4026 5.69816C17.7505 6.72895 18.4996 8.08209 18.4996 9.5C18.4996 10.9179 17.7505 12.271 16.4026 13.3018C15.0537 14.3333 13.1468 15 10.9996 15C9.86117 15 8.78688 14.8123 7.82655 14.4801C7.39864 14.3321 6.90162 14.3853 6.55911 14.4394C6.16151 14.5023 5.71477 14.6143 5.2724 14.7434C4.72505 14.903 4.14769 15.0998 3.61943 15.2918C3.75859 14.8299 3.89572 14.3379 4.00274 13.8766C4.09423 13.4823 4.17051 13.0819 4.20248 12.7285C4.21845 12.552 4.22571 12.3633 4.21116 12.1796C4.19782 12.0112 4.1605 11.7624 4.02898 11.5212C3.68366 10.888 3.49959 10.207 3.49959 9.5ZM21.923 10.5674C21.7806 11.5541 21.443 12.4919 20.9428 13.3544C20.9803 13.5679 20.9995 13.7837 20.9995 14.0005C20.9995 14.7533 20.7814 15.4738 20.3774 16.1284C20.1757 16.4551 20.1238 16.838 20.1038 17.0909C20.0809 17.3808 20.0886 17.6981 20.1093 18.0028C20.1325 18.3447 20.1746 18.7036 20.2227 19.0422C19.8324 18.9284 19.4093 18.8141 19.0056 18.723C18.6698 18.6472 18.3262 18.5826 18.0149 18.5505C17.7434 18.5224 17.3511 18.5007 17.0003 18.6142C16.2332 18.8621 15.3891 19.0005 14.4995 19.0005C13.4416 19.0005 12.47 18.8127 11.6184 18.4865C11.4135 18.4957 11.2072 18.5005 10.9995 18.5005C9.7949 18.5005 8.63552 18.342 7.55078 18.0493C9.12774 19.8731 11.7274 21.0005 14.4995 21.0005C15.5825 21.0005 16.6219 20.8342 17.5797 20.5287L17.5889 20.5286L17.589 20.5286C17.6136 20.5281 17.6819 20.5267 17.8094 20.5399C18.01 20.5606 18.268 20.6068 18.5655 20.674C19.1578 20.8076 19.8235 21.0048 20.3423 21.1694C21.4424 21.5187 22.5084 20.5586 22.3118 19.4422C22.2271 18.9617 22.1392 18.3753 22.1047 17.8673C22.0874 17.6118 22.0855 17.4022 22.0976 17.2483C22.1026 17.1845 22.1091 17.1446 22.1132 17.1233C22.6758 16.1913 22.9995 15.1302 22.9995 14.0005C22.9995 12.7269 22.604 11.5639 21.923 10.5674Z" fill="rgb(255,63,58)" fill-rule="evenodd" />
</svg>
