<svg viewBox="0 0 14.6665 14.666" xmlns="http://www.w3.org/2000/svg" xmlns:xlink="http://www.w3.org/1999/xlink" width="14.666504" height="14.666016" fill="none" customFrame="#000000">
	<path id="Union" d="M0 7.33333C0 3.28325 3.28325 0 7.33333 0C11.3834 0 14.6667 3.28325 14.6667 7.33333C14.6667 11.3834 11.3834 14.6667 7.33333 14.6667C3.28325 14.6667 0 11.3834 0 7.33333ZM7.33333 1.33333C4.01962 1.33333 1.33333 4.01962 1.33333 7.33333C1.33333 10.647 4.01962 13.3333 7.33333 13.3333C10.647 13.3333 13.3333 10.647 13.3333 7.33333C13.3333 4.01962 10.647 1.33333 7.33333 1.33333ZM8 3.66667C8 3.29848 7.70152 3 7.33333 3C6.96514 3 6.66667 3.29848 6.66667 3.66667L6.66667 7.33333C6.66667 7.51014 6.7369 7.67971 6.86193 7.80474L8.86193 9.80474C9.12228 10.0651 9.54439 10.0651 9.80474 9.80474C10.0651 9.54439 10.0651 9.12228 9.80474 8.86193L8 7.05719L8 3.66667Z" fill="rgb(120,122,128)" fill-rule="evenodd" />
</svg>
