<svg viewBox="0 0 24 24" xmlns="http://www.w3.org/2000/svg" xmlns:xlink="http://www.w3.org/1999/xlink" width="24.000000" height="24.000000" fill="none" customFrame="#000000">
	<rect id="iPhone" width="24.000000" height="24.000000" x="0.000000" y="0.000000" />
	<path id="Rectangle (Stroke)" d="M8.5 2.92188C7.67157 2.92188 7 3.59345 7 4.42188L7 19.5781C7 20.4066 7.67157 21.0781 8.5 21.0781L15.5 21.0781C16.3284 21.0781 17 20.4066 17 19.5781L17 4.42188C17 3.59345 16.3284 2.92188 15.5 2.92188L15.4166 2.92188L15.1731 3.50633C15.0178 3.87894 14.6537 4.12165 14.25 4.12165L9.75 4.12165C9.34632 4.12165 8.98223 3.87894 8.82695 3.50633L8.58338 2.92188L8.5 2.92188ZM5 4.42188C5 2.48888 6.567 0.921875 8.5 0.921875L15.5 0.921875C17.433 0.921875 19 2.48888 19 4.42188L19 19.5781C19 21.5111 17.433 23.0781 15.5 23.0781L8.5 23.0781C6.567 23.0781 5 21.5111 5 19.5781L5 4.42188Z" fill="rgb(255,63,58)" fill-rule="evenodd" />
</svg>
