<svg viewBox="0 0 16 16" xmlns="http://www.w3.org/2000/svg" xmlns:xlink="http://www.w3.org/1999/xlink" width="16.000000" height="16.000000" fill="none" customFrame="#000000">
	<rect id="iPhone" width="16.000000" height="16.000000" x="0.000000" y="0.000000" />
	<path id="Rectangle (Stroke)" d="M5.66683 1.94661C5.11454 1.94661 4.66683 2.39433 4.66683 2.94661L4.66683 13.0508C4.66683 13.6031 5.11454 14.0508 5.66683 14.0508L10.3335 14.0508C10.8858 14.0508 11.3335 13.6031 11.3335 13.0508L11.3335 2.94661C11.3335 2.39433 10.8858 1.94661 10.3335 1.94661L10.2779 1.94661L10.1155 2.33625C10.012 2.58466 9.76928 2.74647 9.50016 2.74647L6.50016 2.74647C6.23104 2.74647 5.98832 2.58466 5.8848 2.33625L5.72242 1.94661L5.66683 1.94661ZM3.3335 2.94661C3.3335 1.65795 4.37817 0.613281 5.66683 0.613281L10.3335 0.613281C11.6222 0.613281 12.6668 1.65795 12.6668 2.94661L12.6668 13.0508C12.6668 14.3394 11.6222 15.3841 10.3335 15.3841L5.66683 15.3841C4.37816 15.3841 3.3335 14.3394 3.3335 13.0508L3.3335 2.94661Z" fill="rgb(255,255,255)" fill-rule="evenodd" />
</svg>
