<svg viewBox="0 0 24 24" xmlns="http://www.w3.org/2000/svg" xmlns:xlink="http://www.w3.org/1999/xlink" width="24.000000" height="24.000000" fill="none">
	<rect id="Linked-In" width="24.000000" height="24.000000" x="0.000000" y="0.000000" />
	<path id="Vector" d="M2 4.40167C2 3.07583 3.07583 2 4.40167 2C5.72667 2 6.8025 3.07583 6.80333 4.40167C6.80333 5.7275 5.7275 6.82583 4.40167 6.82583C3.07583 6.82583 2 5.7275 2 4.40167ZM22 21.9992L21.995 22L17.8575 22L17.8575 15.4992C17.8575 13.95 17.8258 11.9633 15.7017 11.9633C13.5458 11.9633 13.2158 13.6467 13.2158 15.3875L13.2158 21.9992L9.07416 21.9992L9.07416 8.64667L13.0517 8.64667L13.0517 10.4675L13.11 10.4675C13.6625 9.41833 15.0158 8.31167 17.0325 8.31167C21.2275 8.31167 22 11.0758 22 14.6642L22 21.9992ZM2.32999 8.6475L6.47666 8.6475L6.47666 22L2.32999 22L2.32999 8.6475Z" fill="rgb(120,122,128)" fill-rule="evenodd" />
</svg>
