<svg viewBox="0 0 16 16" xmlns="http://www.w3.org/2000/svg" xmlns:xlink="http://www.w3.org/1999/xlink" width="16.000000" height="16.000000" fill="none">
	<rect id="Mail" width="16.000000" height="16.000000" x="0.000000" y="0.000000" />
	<path id="Union" d="M15.1668 12.0013L15.1668 4.66797C15.1668 3.5634 14.2714 2.66797 13.1668 2.66797L2.83349 2.66798C1.72893 2.66798 0.833496 3.56341 0.833496 4.66798L0.833496 12.0013C0.833496 13.1059 1.72893 14.0013 2.8335 14.0013L13.1668 14.0013C14.2714 14.0013 15.1668 13.1059 15.1668 12.0013ZM13.8335 6.17428L13.8335 12.0013C13.8335 12.3695 13.535 12.668 13.1668 12.668L2.8335 12.668C2.46531 12.668 2.16683 12.3695 2.16683 12.0013L2.16683 6.17419L6.87561 9.37616C7.55433 9.83769 8.44613 9.83769 9.12485 9.37616L13.8335 6.17428ZM13.8259 4.56704C13.7773 4.24674 13.5007 4.0013 13.1668 4.0013L2.83349 4.00131C2.49965 4.00131 2.22311 4.24671 2.17443 4.56696L7.62535 8.27359C7.85159 8.42743 8.14886 8.42743 8.3751 8.27359L13.8259 4.56704Z" fill="rgb(255,255,255)" fill-rule="evenodd" />
</svg>
