<svg viewBox="0 0 24 24" xmlns="http://www.w3.org/2000/svg" xmlns:xlink="http://www.w3.org/1999/xlink" width="24.000000" height="24.000000" fill="none">
	<rect id="Pin/outline" width="24.000000" height="24.000000" x="0.000000" y="0.000000" />
	<g id="Pin">
		<path id="Vector" d="M11.3807 22.5351C11.3809 22.5353 11.3812 22.5355 12 21.75L12.6188 22.5355C12.2558 22.8215 11.7437 22.8211 11.3807 22.5351ZM11.3807 22.5351L12 21.75C12.6188 22.5355 12.6197 22.5348 12.62 22.5346L12.6218 22.5332L12.6275 22.5287L12.6469 22.5132C12.6633 22.5 12.6866 22.4812 12.7164 22.4569C12.776 22.4083 12.8614 22.3377 12.969 22.2465C13.1842 22.064 13.4885 21.7986 13.8522 21.4609C14.5784 20.7868 15.5482 19.8187 16.5206 18.6428C18.432 16.3314 20.5 13.0428 20.5 9.51923C20.5 4.92303 16.6647 1.25 12 1.25C7.33527 1.25 3.5 4.92303 3.5 9.51923C3.5 13.0428 5.56799 16.3314 7.47936 18.6428C8.45175 19.8187 9.42158 20.7868 10.1478 21.4609C10.5115 21.7986 10.8158 22.064 11.031 22.2465C11.1386 22.3377 11.224 22.4083 11.2836 22.4569C11.3134 22.4812 11.3367 22.5 11.3531 22.5132L11.3725 22.5287L11.3782 22.5332L11.3807 22.5351ZM5.5 9.51923C5.5 6.08606 8.38046 3.25 12 3.25C15.6195 3.25 18.5 6.08606 18.5 9.51923C18.5 12.318 16.818 15.1448 14.9794 17.3682C14.0768 18.4597 13.1716 19.3639 12.4915 19.9951C12.3096 20.164 12.1443 20.3129 12 20.4402C11.8557 20.3129 11.6904 20.164 11.5085 19.9951C10.8284 19.3639 9.92325 18.4597 9.02064 17.3682C7.18201 15.1448 5.5 12.318 5.5 9.51923ZM8 9.75C8 7.54086 9.79086 5.75 12 5.75C14.2091 5.75 16 7.54086 16 9.75C16 11.9591 14.2091 13.75 12 13.75C9.79086 13.75 8 11.9591 8 9.75ZM12 7.75C10.8954 7.75 10 8.64543 10 9.75C10 10.8546 10.8954 11.75 12 11.75C13.1046 11.75 14 10.8546 14 9.75C14 8.64543 13.1046 7.75 12 7.75Z" fill="rgb(255,63,58)" fill-rule="evenodd" />
	</g>
</svg>
