<svg viewBox="0 0 12 15.1992" xmlns="http://www.w3.org/2000/svg" xmlns:xlink="http://www.w3.org/1999/xlink" width="12.000000" height="15.199219" fill="none" customFrame="#000000">
	<path id="Vector" d="M6 0C3.8645 0 2.13333 1.73117 2.13333 3.86667L2.13333 7.06667C2.13333 9.20217 3.8645 10.9333 6 10.9333C8.1355 10.9333 9.86667 9.20217 9.86667 7.06666L9.86667 3.86667C9.86667 1.73117 8.1355 0 6 0ZM3.46667 3.86667C3.46667 2.46755 4.60088 1.33333 6 1.33333C7.39912 1.33333 8.53333 2.46755 8.53333 3.86667L8.53333 7.06666C8.53333 8.46579 7.39912 9.6 6 9.6C4.60088 9.6 3.46667 8.46579 3.46667 7.06667L3.46667 3.86667ZM0.666667 5.33333C1.03486 5.33333 1.33333 5.63181 1.33333 6L1.33333 7.06667C1.33333 9.644 3.42267 11.7333 6 11.7333C8.57733 11.7333 10.6667 9.644 10.6667 7.06667L10.6667 6C10.6667 5.63181 10.9651 5.33333 11.3333 5.33333C11.7015 5.33333 12 5.63181 12 6L12 7.06667C12 10.155 9.66663 12.6984 6.66667 13.03L6.66667 13.8667L8.13333 13.8667C8.50152 13.8667 8.8 14.1651 8.8 14.5333C8.8 14.9015 8.50152 15.2 8.13333 15.2L3.86667 15.2C3.49848 15.2 3.2 14.9015 3.2 14.5333C3.2 14.1651 3.49848 13.8667 3.86667 13.8667L5.33333 13.8667L5.33333 13.03C2.33337 12.6984 0 10.155 0 7.06667L0 6C0 5.63181 0.298477 5.33333 0.666667 5.33333Z" fill="rgb(65.6094,68.8538,80.75)" fill-rule="evenodd" />
</svg>
