<svg viewBox="0 0 435 481" xmlns="http://www.w3.org/2000/svg" xmlns:xlink="http://www.w3.org/1999/xlink" width="435.000000" height="481.000000" fill="none" customFrame="#000000">
	<rect id="illustration" width="435.000000" height="481.000000" x="0.000000" y="0.000000" fill="rgb(255,255,255)" fill-opacity="0" />
	<g id="FLOOR">
		<path id="Vector (Stroke)" d="M49.4341 468.668L315.043 468.668L315.043 469.901L49.4341 469.901L49.4341 468.668Z" fill="rgb(63,177,181)" fill-rule="evenodd" />
		<path id="Vector (Stroke)" d="M296.443 481.001L4.08301 481.001L4.08301 480.047L296.443 480.047L296.443 481.001Z" fill="rgb(102,176,240)" fill-rule="evenodd" />
	</g>
	<g id="NOTES">
		<g id="Group">
			<path id="Vector" d="M295.153 4.92188L295.153 52.7712C295.153 62.1421 287.508 69.7545 278.097 69.7545L224.816 69.7545C234.227 69.7545 241.872 62.1652 241.872 52.7712L241.872 4.92188L295.153 4.92188Z" fill="rgb(255,255,255)" fill-rule="nonzero" />
			<path id="Vector (Stroke)" d="M241.291 4.34375L295.733 4.34375L295.733 52.7716C295.733 62.4619 287.829 70.3333 278.097 70.3333L224.816 70.3333L224.816 69.1764C233.907 69.1764 241.291 61.8456 241.291 52.7716L241.291 4.34375ZM231.126 69.1764L278.097 69.1764C287.187 69.1764 294.572 61.823 294.572 52.7716L294.572 5.50065L242.453 5.50065L242.453 52.7716C242.453 60.2669 237.746 66.6511 231.126 69.1764Z" fill="rgb(102,176,240)" fill-rule="evenodd" />
			<path id="Vector" d="M270.545 0.292969L266.246 0.292969L266.246 10.4968L270.545 10.4968L270.545 0.292969Z" fill="rgb(255,207,45)" fill-rule="nonzero" />
			<g id="Group">
				<g id="Group">
					<path id="Vector" d="M279.655 23.1086C279.05 23.1086 278.446 22.8773 277.958 22.4376L276.169 20.8643C275.612 20.3784 274.868 20.3784 274.31 20.8643L272.614 22.3682C271.615 23.2475 270.221 23.2475 269.198 22.3682L267.642 21.0031C267.084 20.5172 266.34 20.5172 265.783 21.0031L264.342 22.2757C263.343 23.1549 261.949 23.1549 260.926 22.2757L259.741 21.2345C259.184 20.7486 258.44 20.7486 257.882 21.2345L256.604 22.3682C255.605 23.2475 254.211 23.2475 253.189 22.3682L252.003 21.327C251.446 20.8411 250.702 20.8411 250.145 21.327C249.912 21.5353 249.54 21.5121 249.331 21.2807C249.122 21.0494 249.145 20.6791 249.378 20.4709C250.377 19.5917 251.771 19.5917 252.794 20.4709L253.979 21.5121C254.536 21.998 255.28 21.998 255.837 21.5121L257.115 20.3784C258.115 19.4991 259.509 19.4991 260.531 20.3784L261.716 21.4196C262.274 21.9055 263.017 21.9055 263.575 21.4196L265.016 20.147C266.015 19.2677 267.409 19.2677 268.432 20.147L269.988 21.5121C270.546 21.998 271.29 21.998 271.847 21.5121L273.544 20.0081C274.543 19.1289 275.937 19.1289 276.959 20.0081L278.748 21.5815C279.306 22.0674 280.05 22.0674 280.607 21.5815L282.466 19.9387C283.465 19.0595 284.86 19.0595 285.882 19.9387C286.114 20.147 286.138 20.5172 285.928 20.7486C285.719 20.9799 285.348 21.0031 285.115 20.7948C284.557 20.3089 283.814 20.3089 283.256 20.7948L281.397 22.4376C280.84 22.8773 280.259 23.1086 279.655 23.1086Z" fill="rgb(102,176,240)" fill-rule="nonzero" />
				</g>
				<g id="Group">
					<path id="Vector" d="M279.655 32.6184C279.05 32.6184 278.446 32.387 277.958 31.9474L276.169 30.374C275.612 29.8881 274.868 29.8881 274.31 30.374L272.614 31.878C271.615 32.7572 270.221 32.7572 269.198 31.878L267.642 30.5128C267.084 30.0269 266.34 30.0269 265.783 30.5128L264.342 31.7854C263.343 32.6646 261.949 32.6646 260.926 31.7854L259.741 30.7442C259.184 30.2583 258.44 30.2583 257.882 30.7442L256.604 31.878C255.605 32.7572 254.211 32.7572 253.189 31.878L252.003 30.8368C251.446 30.3509 250.702 30.3509 250.145 30.8368C249.912 31.045 249.54 31.0219 249.331 30.7905C249.122 30.5591 249.145 30.1889 249.378 29.9807C250.377 29.1014 251.771 29.1014 252.794 29.9807L253.979 31.0219C254.536 31.5077 255.28 31.5077 255.837 31.0219L257.115 29.8881C258.115 29.0089 259.509 29.0089 260.531 29.8881L261.716 30.9293C262.274 31.4152 263.017 31.4152 263.575 30.9293L265.016 29.6567C266.015 28.7775 267.409 28.7775 268.432 29.6567L269.988 31.0219C270.546 31.5077 271.29 31.5077 271.847 31.0219L273.544 29.5179C274.543 28.6387 275.937 28.6387 276.959 29.5179L278.748 31.0913C279.306 31.5772 280.05 31.5772 280.607 31.0913L282.466 29.4485C283.465 28.5693 284.86 28.5693 285.882 29.4485C286.114 29.6567 286.138 30.0269 285.928 30.2583C285.719 30.4897 285.348 30.5128 285.115 30.3046C284.557 29.8187 283.814 29.8187 283.256 30.3046L281.397 31.9474C280.84 32.4101 280.259 32.6184 279.655 32.6184Z" fill="rgb(102,176,240)" fill-rule="nonzero" />
				</g>
				<g id="Group">
					<path id="Vector" d="M279.655 42.1262C279.05 42.1262 278.446 41.8948 277.958 41.4552L276.169 39.8818C275.612 39.3959 274.868 39.3959 274.31 39.8818L272.614 41.3858C271.615 42.265 270.221 42.265 269.198 41.3858L267.642 40.0206C267.084 39.5347 266.34 39.5347 265.783 40.0206L264.342 41.2932C263.343 42.1725 261.949 42.1725 260.926 41.2932L259.741 40.252C259.184 39.7661 258.44 39.7661 257.882 40.252L256.604 41.3858C255.605 42.265 254.211 42.265 253.189 41.3858L252.003 40.3446C251.446 39.8587 250.702 39.8587 250.145 40.3446C249.912 40.5528 249.54 40.5297 249.331 40.2983C249.122 40.0669 249.145 39.6967 249.378 39.4885C250.377 38.6092 251.771 38.6092 252.794 39.4885L253.979 40.5297C254.536 41.0156 255.28 41.0156 255.837 40.5297L257.115 39.3959C258.115 38.5167 259.509 38.5167 260.531 39.3959L261.716 40.4371C262.274 40.923 263.017 40.923 263.575 40.4371L265.016 39.1645C266.015 38.2853 267.409 38.2853 268.432 39.1645L269.988 40.5297C270.546 41.0156 271.29 41.0156 271.847 40.5297L273.544 39.0257C274.543 38.1465 275.937 38.1465 276.959 39.0257L278.748 40.5991C279.306 41.085 280.05 41.085 280.607 40.5991L282.466 38.9563C283.465 38.0771 284.86 38.0771 285.882 38.9563C286.114 39.1645 286.138 39.5348 285.928 39.7661C285.719 39.9975 285.348 40.0206 285.115 39.8124C284.557 39.3265 283.814 39.3265 283.256 39.8124L281.397 41.4552C280.84 41.918 280.259 42.1262 279.655 42.1262Z" fill="rgb(102,176,240)" fill-rule="nonzero" />
				</g>
				<g id="Group">
					<path id="Vector" d="M279.655 51.6594C279.05 51.6594 278.446 51.428 277.958 50.9884L276.169 49.415C275.612 48.9291 274.868 48.9291 274.31 49.415L272.614 50.919C271.615 51.7982 270.221 51.7982 269.198 50.919L267.642 49.5539C267.084 49.068 266.34 49.068 265.783 49.5539L264.342 50.8265C263.343 51.7057 261.949 51.7057 260.926 50.8265L259.741 49.7852C259.184 49.2993 258.44 49.2993 257.882 49.7852L256.604 50.919C255.605 51.7982 254.211 51.7982 253.189 50.919L252.003 49.8778C251.446 49.3919 250.702 49.3919 250.145 49.8778C249.912 50.086 249.54 50.0629 249.331 49.8315C249.122 49.6001 249.145 49.2299 249.378 49.0217C250.377 48.1425 251.771 48.1425 252.794 49.0217L253.979 50.0629C254.536 50.5488 255.28 50.5488 255.837 50.0629L257.115 48.9291C258.115 48.0499 259.509 48.0499 260.531 48.9291L261.716 49.9703C262.274 50.4562 263.017 50.4562 263.575 49.9703L265.016 48.6978C266.015 47.8185 267.409 47.8185 268.432 48.6978L269.988 50.0629C270.546 50.5488 271.29 50.5488 271.847 50.0629L273.544 48.5589C274.543 47.6797 275.937 47.6797 276.959 48.5589L278.748 50.1323C279.306 50.6182 280.05 50.6182 280.607 50.1323L282.466 48.4895C283.465 47.6103 284.86 47.6103 285.882 48.4895C286.114 48.6978 286.138 49.068 285.928 49.2993C285.719 49.5307 285.348 49.5539 285.115 49.3456C284.557 48.8597 283.814 48.8597 283.256 49.3456L281.397 50.9884C280.84 51.428 280.259 51.6594 279.655 51.6594Z" fill="rgb(102,176,240)" fill-rule="nonzero" />
				</g>
			</g>
		</g>
		<g id="Group">
			<path id="Vector" d="M350.012 4.91992L312.741 4.91992L312.741 42.0333L350.012 42.0333L350.012 4.91992Z" fill="rgb(255,207,45)" fill-rule="nonzero" />
			<path id="Vector" d="M4.28769 0L0 0L0 12.6425L4.28769 12.6425L4.28769 0Z" fill="rgb(254,82,68)" fill-rule="nonzero" transform="matrix(0.629345,0.777198,-0.778401,0.627855,318.232,0.00390625)" />
			<path id="Vector" d="M4.28771 0L0 0L0 12.6426L4.28771 12.6426L4.28771 0Z" fill="rgb(254,82,68)" fill-rule="nonzero" transform="matrix(-0.630208,0.776498,-0.779098,-0.62699,354.647,7.92578)" />
			<g id="Group">
				<path id="Vector" d="M342.135 13.7148L319.526 13.7148L319.526 15.1031L342.135 15.1031L342.135 13.7148Z" fill="rgb(255,255,255)" fill-rule="nonzero" />
			</g>
			<g id="Group">
				<path id="Vector" d="M342.135 19.707L319.526 19.707L319.526 21.0953L342.135 21.0953L342.135 19.707Z" fill="rgb(255,255,255)" fill-rule="nonzero" />
			</g>
			<g id="Group">
				<path id="Vector" d="M342.135 25.7227L319.526 25.7227L319.526 27.1109L342.135 27.1109L342.135 25.7227Z" fill="rgb(255,255,255)" fill-rule="nonzero" />
			</g>
			<g id="Group">
				<path id="Vector" d="M342.135 31.7148L319.526 31.7148L319.526 33.1031L342.135 33.1031L342.135 31.7148Z" fill="rgb(255,255,255)" fill-rule="nonzero" />
			</g>
		</g>
	</g>
	<g id="WOMAN">
		<g id="LEGS">
			<g id="RIGHT LEG">
				<g id="Group">
					<path id="Vector" d="M378.457 404.179C377.917 404.02 377.618 403.94 377.618 403.94L371.085 425.244L346.494 418.819C346.294 418.64 346.195 418.541 346.195 418.541C346.195 418.541 246.612 340.823 241.378 303.525C236.164 266.228 277.875 230.84 277.875 230.84C277.875 230.84 366.83 398.271 377.837 403.741C378.057 403.861 378.277 404 378.457 404.179Z" fill="rgb(229,114,129)" fill-rule="nonzero" />
					<path id="Vector" d="M298.931 270.006C295.814 286.616 284.867 320.253 273.54 352.797C256.76 334.794 243.216 316.633 241.378 303.504C238.062 279.872 253.624 256.977 265.45 243.41C269.785 239.949 274.459 236.766 279.513 233.922C282.61 239.71 289.781 253.118 298.931 270.006Z" fill="rgb(154,59,130)" fill-rule="nonzero" />
				</g>
				<g id="Group">
					<path id="Vector" d="M434.351 418.522L397.774 441.895L387.166 440.304L377.398 446.47L380.554 452.915L364.473 463.199C343.158 443.884 346.174 418.761 346.174 418.761L371.065 425.265L377.597 403.961C377.597 403.961 399.951 410.466 416.452 409.909C432.992 409.352 434.351 418.522 434.351 418.522Z" fill="rgb(255,255,255)" fill-rule="nonzero" />
					<path id="Vector (Stroke)" d="M377.197 403.223L377.765 403.388L377.597 403.961C377.765 403.388 377.765 403.388 377.765 403.388L377.781 403.392L377.828 403.406C377.87 403.418 377.933 403.436 378.016 403.46C378.183 403.507 378.429 403.576 378.749 403.664C379.39 403.84 380.324 404.091 381.497 404.39C383.843 404.99 387.143 405.783 390.957 406.559C398.595 408.113 408.253 409.588 416.431 409.312C424.816 409.03 429.46 411.213 432.011 413.569C433.281 414.742 434.012 415.939 434.426 416.852C434.633 417.308 434.761 417.694 434.838 417.97C434.876 418.108 434.902 418.218 434.918 418.298C434.926 418.337 434.932 418.369 434.936 418.392C434.938 418.403 434.94 418.413 434.941 418.42L434.943 418.429L434.943 418.432L434.943 418.434C434.943 418.434 434.944 418.435 434.351 418.522L434.944 418.435L435 418.816L397.907 442.518L387.298 440.927L378.171 446.688L381.326 453.13L364.41 463.949L364.069 463.641C353.3 453.882 348.675 442.651 346.745 433.864C345.78 429.472 345.488 425.688 345.437 422.999C345.411 421.654 345.446 420.583 345.488 419.844C345.509 419.475 345.531 419.189 345.549 418.994C345.557 418.897 345.565 418.822 345.57 418.771C345.573 418.745 345.575 418.726 345.577 418.712L345.578 418.696L345.579 418.692L345.579 418.69C345.579 418.69 345.579 418.69 346.174 418.76L345.579 418.69L345.661 418.009L370.66 424.542L377.197 403.223ZM346.71 419.517C346.701 419.634 346.693 419.766 346.685 419.911C346.645 420.622 346.61 421.664 346.635 422.977C346.685 425.602 346.971 429.306 347.916 433.609C349.786 442.12 354.234 452.965 364.538 462.449L379.782 452.7L376.624 446.252L387.034 439.68L397.64 441.271L433.671 418.247C433.607 418.026 433.502 417.714 433.334 417.343C432.976 416.554 432.334 415.494 431.196 414.444C428.933 412.354 424.627 410.23 416.472 410.505C408.15 410.786 398.381 409.287 390.717 407.728C386.88 406.948 383.56 406.15 381.199 405.547C380.018 405.245 379.077 404.992 378.431 404.815C378.268 404.77 378.124 404.73 377.999 404.695L371.47 425.988L346.71 419.517Z" fill="rgb(254,82,68)" fill-rule="evenodd" />
					<path id="Vector (Stroke)" d="M393.299 406.023C393.249 405.58 393.174 404.955 393.073 404.211C392.867 402.7 392.552 400.69 392.114 398.707C391.678 396.736 391.112 394.748 390.392 393.305C390.033 392.587 389.613 391.954 389.111 391.532C388.59 391.094 387.949 390.862 387.233 391.05L387.231 391.051L387.23 391.051C386.515 391.243 386.052 391.78 385.778 392.427C385.507 393.064 385.392 393.859 385.381 394.714C385.358 396.43 385.754 398.557 386.401 400.569C387.047 402.58 387.964 404.537 389.026 405.894C389.555 406.571 390.149 407.134 390.796 407.463C391.461 407.802 392.195 407.895 392.927 407.596C394.164 407.091 395.328 405.934 396.359 404.589C397.404 403.226 398.37 401.593 399.191 400.033C400.013 398.469 400.697 396.964 401.175 395.851C401.415 395.294 401.603 394.834 401.731 394.513C401.796 394.352 401.845 394.226 401.879 394.14C401.895 394.097 401.908 394.064 401.917 394.041L401.927 394.015L401.93 394.006L401.93 394.006C401.93 394.006 401.93 394.006 401.369 393.795C400.808 393.585 400.808 393.585 400.808 393.585L400.808 393.586L400.808 393.587L400.806 393.592L400.797 393.616C400.789 393.637 400.777 393.668 400.761 393.71C400.729 393.792 400.681 393.915 400.618 394.071C400.493 394.384 400.308 394.835 400.073 395.382C399.603 396.476 398.933 397.951 398.129 399.479C397.324 401.009 396.394 402.577 395.407 403.865C394.697 404.791 393.985 405.534 393.299 406.023ZM392.154 406.575C391.899 406.604 391.632 406.548 391.341 406.4C390.909 406.181 390.444 405.765 389.971 405.16C389.028 403.954 388.164 402.141 387.542 400.205C386.921 398.272 386.559 396.277 386.579 394.729C386.589 393.952 386.695 393.329 386.881 392.892C387.063 392.464 387.292 392.271 387.54 392.204C387.788 392.139 388.037 392.191 388.338 392.444C388.658 392.713 388.99 393.179 389.318 393.836C389.971 395.144 390.512 397.015 390.943 398.964C391.372 400.903 391.682 402.878 391.885 404.371C391.987 405.117 392.061 405.741 392.11 406.178C392.128 406.335 392.143 406.469 392.154 406.575Z" fill="rgb(254,82,68)" fill-rule="evenodd" />
					<path id="Vector (Stroke)" d="M433.149 415.844L398.339 437.486L386.786 435.635L374.662 442.851L349.98 442.471L349.999 441.277L374.339 441.653L386.546 434.388L398.086 436.237L432.515 414.832L433.149 415.844Z" fill="rgb(254,82,68)" fill-rule="evenodd" />
					<g id="Group">
						<path id="Vector (Stroke)" d="M384.842 416.328L387.12 405.766L388.292 406.016L386.014 416.579L384.842 416.328Z" fill="rgb(254,82,68)" fill-rule="evenodd" />
						<path id="Vector (Stroke)" d="M389.796 417.52L392.074 406.957L393.246 407.208L390.968 417.77L389.796 417.52Z" fill="rgb(254,82,68)" fill-rule="evenodd" />
						<path id="Vector (Stroke)" d="M394.971 418.375L397.248 407.812L398.42 408.063L396.143 418.626L394.971 418.375Z" fill="rgb(254,82,68)" fill-rule="evenodd" />
					</g>
				</g>
			</g>
			<g id="LEFT LEG">
				<path id="Vector" d="M269.425 222.703C269.425 222.703 284.068 229.506 284.068 254.451C284.068 278.56 228.174 426.198 228.174 426.198L210.974 440.72L193.515 421.683C202.045 413.607 177.553 267.599 269.425 222.703Z" fill="rgb(229,114,129)" fill-rule="nonzero" />
				<g id="Group">
					<path id="Vector" d="M267.868 469.007L224.399 469.047L216.328 462.005L204.762 461.945L203.923 469.067L186.883 469.087C177.614 440.363 193.595 421.664 193.595 421.664L210.935 440.681L228.255 426.18C228.255 426.18 243.277 443.724 257.46 452.119C271.684 460.533 267.868 469.007 267.868 469.007Z" fill="rgb(255,255,255)" fill-rule="nonzero" />
					<path id="Vector (Stroke)" d="M193.58 420.76L210.99 439.854L228.324 425.341L228.71 425.792L228.254 426.179C228.71 425.792 228.71 425.792 228.71 425.792L228.72 425.804L228.752 425.841C228.781 425.874 228.823 425.923 228.879 425.987C228.992 426.117 229.159 426.308 229.377 426.555C229.813 427.049 230.453 427.764 231.265 428.649C232.89 430.419 235.204 432.867 237.959 435.576C243.478 441.002 250.738 447.446 257.766 451.605C264.977 455.871 267.704 460.208 268.578 463.568C269.012 465.24 268.98 466.644 268.835 467.637C268.762 468.133 268.661 468.527 268.577 468.801C268.534 468.938 268.496 469.046 268.467 469.121C268.46 469.141 268.453 469.158 268.447 469.173C268.441 469.188 268.436 469.2 268.432 469.21C268.427 469.221 268.423 469.23 268.42 469.237L268.417 469.245L268.415 469.25C268.415 469.25 268.414 469.251 267.868 469.006L268.414 469.251L268.256 469.603L224.174 469.643L216.101 462.6L205.295 462.544L204.456 469.662L186.446 469.683L186.312 469.269C181.632 454.766 183.324 442.777 186.196 434.41C187.631 430.23 189.359 426.955 190.732 424.722C191.418 423.606 192.015 422.749 192.443 422.17C192.657 421.88 192.829 421.659 192.948 421.509C193.008 421.435 193.054 421.378 193.087 421.339C193.103 421.319 193.115 421.305 193.124 421.294L193.134 421.282L193.137 421.279L193.138 421.277C193.138 421.277 193.139 421.277 193.595 421.663L193.139 421.277L193.58 420.76ZM193.627 422.586C193.561 422.673 193.488 422.77 193.409 422.876C192.999 423.432 192.421 424.26 191.754 425.345C190.419 427.516 188.732 430.712 187.33 434.796C184.556 442.88 182.897 454.454 187.321 468.489L203.39 468.47L204.229 461.345L216.555 461.409L224.624 468.449L267.443 468.41C267.509 468.189 267.589 467.869 267.648 467.465C267.774 466.606 267.807 465.365 267.417 463.867C266.642 460.886 264.166 456.78 257.154 452.631C249.998 448.396 242.656 441.87 237.117 436.425C234.344 433.699 232.016 431.236 230.381 429.454C229.563 428.563 228.918 427.842 228.477 427.343C228.368 427.22 228.271 427.11 228.188 427.014L210.879 441.507L193.627 422.586Z" fill="rgb(254,82,68)" fill-rule="evenodd" />
					<path id="Vector (Stroke)" d="M248.27 420.056C249.16 419.934 250.018 420.153 250.762 420.796C251.5 421.434 251.84 422.23 251.837 423.104C251.835 423.949 251.515 424.825 251.031 425.679C250.065 427.385 248.326 429.202 246.486 430.844C244.635 432.495 242.636 434.01 241.103 435.11C240.395 435.618 239.785 436.039 239.332 436.345C239.531 436.364 239.773 436.373 240.061 436.368C240.781 436.357 241.688 436.265 242.725 436.111C244.797 435.802 247.325 435.255 249.785 434.658C252.242 434.062 254.617 433.421 256.38 432.928C257.261 432.682 257.988 432.473 258.494 432.326C258.747 432.252 258.946 432.194 259.08 432.154C259.147 432.134 259.199 432.119 259.233 432.108L259.285 432.093C259.285 432.093 259.285 432.093 259.458 432.664C259.63 433.236 259.63 433.236 259.63 433.236L259.577 433.252C259.557 433.258 259.532 433.265 259.502 433.274C259.478 433.281 259.451 433.289 259.421 433.298C259.285 433.338 259.085 433.397 258.83 433.471C258.32 433.62 257.589 433.83 256.704 434.077C254.933 434.572 252.543 435.218 250.068 435.818C247.596 436.417 245.027 436.975 242.902 437.291C241.841 437.449 240.875 437.549 240.08 437.562C239.32 437.573 238.598 437.51 238.114 437.246C237.455 436.885 237.333 436.103 237.356 435.447C237.381 434.736 237.584 433.859 237.9 432.913C238.537 431.01 239.685 428.683 241.065 426.543C242.44 424.411 244.08 422.412 245.722 421.209C246.544 420.607 247.407 420.174 248.27 420.056ZM238.557 435.427C239.009 435.122 239.65 434.682 240.402 434.142C241.917 433.055 243.879 431.568 245.686 429.955C247.504 428.332 249.121 426.622 249.987 425.092C250.421 424.328 250.637 423.659 250.639 423.101C250.64 422.573 250.451 422.108 249.976 421.697C249.505 421.29 248.997 421.161 248.433 421.238C247.844 421.319 247.168 421.631 246.433 422.17C244.961 423.248 243.415 425.108 242.073 427.188C240.736 429.261 239.637 431.499 239.038 433.29C238.748 434.156 238.586 434.886 238.557 435.427Z" fill="rgb(254,82,68)" fill-rule="evenodd" />
					<path id="Vector (Stroke)" d="M184.266 444.189L184.905 443.18L205.155 455.898L219.363 455.898L228.332 463.397L268.207 463.397L268.207 464.591L227.896 464.591L218.926 457.092L204.808 457.092L184.266 444.189Z" fill="rgb(254,82,68)" fill-rule="evenodd" />
					<g id="Group">
						<path id="Vector (Stroke)" d="M226.272 439.482L233.943 431.844L234.791 432.688L227.12 440.326L226.272 439.482Z" fill="rgb(254,82,68)" fill-rule="evenodd" />
						<path id="Vector (Stroke)" d="M229.788 443.162L237.458 435.523L238.306 436.367L230.635 444.006L229.788 443.162Z" fill="rgb(254,82,68)" fill-rule="evenodd" />
						<path id="Vector (Stroke)" d="M233.664 446.666L241.335 439.027L242.183 439.871L234.512 447.51L233.664 446.666Z" fill="rgb(254,82,68)" fill-rule="evenodd" />
					</g>
				</g>
			</g>
		</g>
		<g id="SKIRT">
			<path id="Vector" d="M269.425 222.703C234.885 239.572 216.786 270.762 207.218 303.524L102.401 303.524C75.5726 303.524 55.5761 278.878 61.2294 252.76L68.9204 217.193L251.166 217.193C257.918 217.193 264.191 219.222 269.425 222.703Z" fill="rgb(254,82,68)" fill-rule="nonzero" />
			<path id="Vector" d="M191.595 256.798L229.331 256.719L223.738 265.849L191.595 256.798Z" fill="rgb(229,114,129)" fill-rule="nonzero" />
			<path id="Vector (Stroke)" d="M108.676 216.61C109 216.678 109.208 216.994 109.14 217.316L107.682 224.278C104.244 240.717 116.825 256.143 133.684 256.143L229.005 256.143C239.061 242.274 252.185 230.362 269.36 221.97C269.657 221.825 270.016 221.947 270.162 222.243C270.308 222.539 270.185 222.896 269.888 223.041C252.806 231.388 239.775 243.255 229.798 257.088L229.619 257.337L133.684 257.337C116.064 257.337 102.915 241.214 106.509 224.035L107.967 217.073C108.035 216.75 108.352 216.543 108.676 216.61Z" fill="rgb(255,255,255)" fill-rule="evenodd" />
			<path id="Vector (Stroke)" d="M191.021 256.614C191.112 256.297 191.444 256.114 191.762 256.205L224.252 265.489L223.855 266.154C216.875 277.857 211.739 290.639 207.934 303.671C207.842 303.988 207.509 304.17 207.191 304.078C206.873 303.986 206.691 303.655 206.783 303.338C210.537 290.478 215.588 277.837 222.43 266.21L191.432 257.352C191.114 257.261 190.93 256.931 191.021 256.614Z" fill="rgb(255,255,255)" fill-rule="evenodd" />
		</g>
		<g id="BLOUSE">
			<path id="Vector" d="M44.4293 121.653L63.6267 196.646L27.8088 196.646C6.95327 196.646 -6.47096 174.586 3.19769 156.186L30.7054 103.81C38.4962 88.9908 53.8981 79.7012 70.6984 79.7012L77.1908 79.7012C55.1367 79.6813 38.9757 100.369 44.4293 121.653Z" fill="rgb(63,177,181)" fill-rule="nonzero" />
			<path id="Vector" d="M265.49 102.198C276.777 102.198 286.166 100.706 288.443 98.6176L253.424 174.207C247.092 187.893 233.328 196.645 218.205 196.645C213.771 196.645 209.416 195.89 205.301 194.437C201.185 192.985 197.31 190.857 193.854 188.072L171.78 170.328C171.78 170.328 169.583 183.198 153.901 186.481L153.901 217.154L68.901 217.154L44.4297 121.633C38.9761 100.348 55.1371 79.6406 77.1912 79.6406L136.701 79.6406C141.955 79.6406 147.129 80.2971 152.123 81.5701C165.787 85.0313 178.053 93.028 186.722 104.486L215.808 142.917L241.938 97.444C241.938 97.4838 241.918 97.5434 241.918 97.5832C241.938 100.229 252.505 102.198 265.49 102.198Z" fill="rgb(63,177,181)" fill-rule="nonzero" />
			<path id="Vector (Stroke)" d="M44.0853 121.072C44.4065 120.993 44.7315 121.188 44.811 121.508L63.609 197.098C63.6885 197.418 63.4926 197.741 63.1713 197.82C62.85 197.9 62.5251 197.705 62.4455 197.385L43.6476 121.795C43.568 121.475 43.764 121.152 44.0853 121.072Z" fill="rgb(255,255,255)" fill-rule="evenodd" />
			<path id="Vector (Stroke)" d="M154.868 153.205C155.109 152.979 155.489 152.991 155.715 153.231L172.416 170.935C172.642 171.175 172.63 171.553 172.389 171.779C172.148 172.004 171.769 171.992 171.542 171.752L154.842 154.048C154.615 153.808 154.627 153.43 154.868 153.205Z" fill="rgb(255,255,255)" fill-rule="evenodd" />
			<path id="Vector" d="M288.963 97.5042L288.444 98.6182C286.166 100.727 276.777 102.199 265.491 102.199C252.506 102.199 241.938 100.229 241.938 97.6236C241.938 97.5838 241.938 97.5241 241.958 97.4843C242.318 94.9381 252.746 92.75 265.511 92.75C278.256 92.75 288.604 94.9381 288.963 97.5042Z" fill="rgb(254,82,68)" fill-rule="nonzero" />
		</g>
		<g id="ARM">
			<path id="Vector" d="M299.429 59.3108C299.429 60.4447 299.149 61.5586 298.63 62.5333C298.11 63.5081 297.351 64.3634 296.412 65.0198L295.953 65.3381L292.377 84.335C291.798 87.4182 289.96 90.1434 287.303 91.8343L282.409 94.9374L278.533 97.404L276.736 101.681C273.399 102.019 269.584 102.218 265.509 102.218C261.394 102.218 257.518 102.019 254.142 101.661L254.142 72.2009C254.142 70.9278 254.422 69.6746 254.961 68.5208L261.473 54.5566C261.473 54.5566 268.585 56.3071 265.309 65C262.332 72.8971 269.124 70.8681 272.94 69.4557C276.356 68.1827 291.278 60.6237 297.112 57.8587C298.19 57.3415 299.429 58.1372 299.429 59.3108Z" fill="rgb(229,114,129)" fill-rule="nonzero" />
			<g id="Group">
				<path id="Vector (Stroke)" d="M293.289 76.6258C293.56 76.6763 293.738 76.9361 293.688 77.206C293.083 80.4249 291.164 83.2485 288.392 85.013L279.622 90.5831C279.389 90.7308 279.08 90.6628 278.932 90.4312C278.784 90.1996 278.852 89.8922 279.084 89.7445L287.854 84.175C290.395 82.5578 292.152 79.9708 292.706 77.0231C292.757 76.7532 293.017 76.5752 293.289 76.6258Z" fill="rgb(154,59,130)" fill-rule="evenodd" />
				<path id="Vector (Stroke)" d="M294.727 68.5691C294.998 68.6196 295.177 68.8794 295.126 69.1494C294.521 72.3682 292.603 75.1919 289.83 76.9564L281.06 82.5264C280.827 82.6741 280.519 82.6061 280.37 82.3745C280.222 82.143 280.29 81.8355 280.523 81.6878L289.292 76.1183C289.292 76.1182 289.292 76.1182 289.292 76.1181C291.833 74.501 293.59 71.914 294.144 68.9665C294.195 68.6965 294.456 68.5186 294.727 68.5691Z" fill="rgb(154,59,130)" fill-rule="evenodd" />
				<path id="Vector (Stroke)" d="M295.735 65.2895C295.883 65.5214 295.814 65.8287 295.581 65.9759L281.478 74.8875C281.245 75.0347 280.936 74.966 280.788 74.7341C280.64 74.5022 280.709 74.1949 280.942 74.0477L295.046 65.1361C295.279 64.9889 295.587 65.0576 295.735 65.2895Z" fill="rgb(154,59,130)" fill-rule="evenodd" />
			</g>
			<path id="Vector" d="M283.169 94.4409L282.39 94.9382L278.514 97.4048L276.716 101.682C273.38 102.02 269.565 102.219 265.49 102.219C261.375 102.219 257.499 102.02 254.123 101.662L254.123 93.3866C257.499 92.9888 261.375 92.77 265.49 92.77C272.541 92.7501 278.854 93.4065 283.169 94.4409Z" fill="rgb(154,59,130)" fill-rule="nonzero" />
		</g>
		<g id="HEAD">
			<g id="NECK">
				<path id="Vector" d="M150.266 81.1113C147.37 84.9902 136.583 94.1206 100.265 94.1206C53.5401 94.1206 83.445 79.7188 83.445 79.7188L103.262 46.7578L124.517 59.7473L124.517 70.1906C124.517 75.462 128.812 79.7188 134.085 79.7188L135.464 79.7188C140.418 79.699 145.532 79.9178 150.266 81.1113Z" fill="rgb(229,114,129)" fill-rule="nonzero" />
				<path id="Vector" d="M124.498 59.7278L124.498 62.3933L83.4258 79.6993L103.243 46.7383L124.498 59.7278Z" fill="rgb(154,59,130)" fill-rule="nonzero" />
			</g>
			<g id="HEAD 1">
				<path id="Vector" d="M125.614 61.0199L130.129 61.0199C134.284 61.0199 137.66 57.6581 137.66 53.5206L137.66 28.4766L110.711 28.4766L110.711 46.1805C110.711 54.376 117.384 61.0199 125.614 61.0199Z" fill="rgb(229,114,129)" fill-rule="nonzero" />
				<path id="Vector (Stroke)" d="M133.457 49.8301L133.457 49.8297L133.456 49.829L133.456 49.8283C133.456 49.828 133.456 49.8281 133.456 49.8284C133.456 49.8284 133.456 49.8284 133.456 49.8284M133.456 49.8284C133.456 49.8285 133.456 49.8286 133.456 49.8288C133.457 49.83 133.459 49.8331 133.462 49.8378C133.468 49.8471 133.478 49.8631 133.493 49.8848C133.523 49.9282 133.57 49.9941 133.637 50.0751C133.771 50.2373 133.979 50.4581 134.27 50.6799C134.847 51.12 135.756 51.5719 137.08 51.5719C137.356 51.5719 137.58 51.7946 137.58 52.0692C137.58 52.3439 137.356 52.5665 137.08 52.5665C135.508 52.5665 134.389 52.0238 133.663 51.4694C133.302 51.1939 133.039 50.9173 132.865 50.7065C132.778 50.601 132.713 50.5115 132.668 50.4461C132.646 50.4134 132.628 50.3867 132.616 50.3669C132.61 50.357 132.605 50.3489 132.601 50.3426L132.596 50.3346L132.594 50.3317L132.594 50.3305L132.593 50.33C132.593 50.3297 132.593 50.3295 133.025 50.08" fill="rgb(115,50,90)" fill-rule="evenodd" />
				<path id="Vector" d="M134.462 44.0534C134.992 44.0534 135.421 43.2251 135.421 42.2034C135.421 41.1818 134.992 40.3535 134.462 40.3535C133.933 40.3535 133.503 41.1818 133.503 42.2034C133.503 43.2251 133.933 44.0534 134.462 44.0534Z" fill="rgb(115,50,90)" fill-rule="nonzero" />
			</g>
			<path id="HAIR" d="M115.847 31.0839C115.847 31.0839 138.081 44.4513 145.312 32.8145C151.665 22.6099 123.518 17.3584 113.689 17.3186C103.002 17.2788 88.8385 21.9932 89.0782 37.6482C89.278 50.5383 89.8173 69.3959 82.1463 66.1137C54.8584 54.457 30.6069 66.6309 30.527 89.825C30.4471 113.019 57.4753 115.187 58.1545 109.2C58.8537 103.232 41.3743 104.605 43.7315 120.101C46.0688 135.597 56.4965 154.971 80.3085 154.971C109.075 154.991 127.393 117.276 109.594 113.437C95.9501 110.493 123.498 136.71 131.668 109.458C140.458 80.1177 108.695 70.5099 107.916 52.7861C107.137 35.0623 115.847 31.0839 115.847 31.0839Z" fill="rgb(255,207,45)" fill-rule="nonzero" />
			<path id="HAIR (Stroke)" d="M97.0142 21.1799C101.968 17.98 108.287 16.8004 113.691 16.8206C118.659 16.8407 128.208 18.1722 135.733 20.7844C139.486 22.0873 142.807 23.7322 144.79 25.7448C145.787 26.7576 146.471 27.8892 146.673 29.1408C146.877 30.4002 146.582 31.718 145.737 33.0754C143.832 36.1401 140.935 37.5487 137.719 37.9461C134.521 38.3413 130.988 37.7418 127.727 36.7895C124.459 35.8352 121.427 34.5154 119.214 33.4366C118.107 32.8967 117.203 32.4161 116.574 32.0699C116.26 31.8968 116.015 31.7572 115.848 31.6606C115.843 31.6582 115.839 31.6558 115.835 31.6534C115.804 31.6713 115.77 31.6913 115.734 31.7135C115.515 31.8461 115.196 32.0579 114.813 32.3679C114.046 32.9873 113.018 33.9999 112.009 35.5574C109.993 38.6676 108.029 43.9875 108.415 52.7636C108.603 57.044 110.662 60.8685 113.589 64.69C115.051 66.599 116.719 68.4942 118.464 70.4379C118.761 70.7688 119.06 71.1011 119.36 71.4351C120.822 73.0589 122.319 74.7217 123.764 76.4466C127.249 80.6072 130.466 85.1697 132.249 90.5614C134.036 95.9647 134.372 102.171 132.147 109.6C130.076 116.506 126.743 120.129 123.041 121.623C121.085 122.413 119.059 122.595 117.115 122.378C117.198 126.425 115.644 131.241 112.842 135.906C106.829 145.916 94.9148 155.478 80.3081 155.468C68.2476 155.468 59.5528 150.554 53.5888 143.671C47.6369 136.802 44.4164 127.99 43.2375 120.174C42.6652 116.411 43.2303 113.42 44.4518 111.137C44.2586 111.067 44.0653 110.993 43.8722 110.917C36.8857 108.163 29.9867 101.661 30.0275 89.8225C30.0681 78.0313 36.2645 69.0169 45.9193 64.4504C55.5588 59.8911 68.5964 59.7837 82.3431 65.656L82.3434 65.6561C83.2226 66.0322 83.9273 66.0686 84.5039 65.8868C85.0845 65.7037 85.6093 65.2762 86.0801 64.5838C87.0356 63.1783 87.6705 60.8263 88.0687 57.8785C88.8145 52.358 88.6972 45.0485 88.5973 38.8224C88.591 38.4287 88.5847 38.0394 88.5788 37.6551C88.4561 29.6466 92.0317 24.3981 97.0142 21.1799ZM45.41 111.464C44.2522 113.548 43.6677 116.361 44.2252 120.025L44.2253 120.026C45.3836 127.706 48.5456 136.329 54.345 143.021C60.132 149.7 68.5571 154.473 80.3084 154.473L80.3088 154.473C94.4682 154.483 106.097 145.197 111.985 135.395C114.771 130.756 116.237 126.057 116.111 122.231C114.751 121.984 113.445 121.553 112.246 121.016C110.653 120.302 109.234 119.393 108.107 118.45C106.987 117.513 106.127 116.518 105.689 115.623C105.47 115.175 105.338 114.715 105.366 114.279C105.395 113.821 105.602 113.416 106 113.133C106.377 112.865 106.885 112.735 107.482 112.709C108.085 112.683 108.822 112.761 109.7 112.95C112.02 113.451 113.786 114.513 115.013 116.009C116.21 117.47 116.867 119.311 117.058 121.37C118.915 121.6 120.833 121.441 122.666 120.701C126 119.355 129.175 116.035 131.189 109.315C133.359 102.074 133.021 96.0765 131.3 90.8725C129.575 85.6567 126.451 81.2081 122.997 77.0837C121.564 75.3736 120.081 73.7262 118.62 72.1026C118.318 71.7677 118.018 71.4338 117.719 71.1006C115.974 69.1561 114.283 67.2357 112.795 65.2931C109.822 61.4115 107.618 57.3885 107.417 52.8071C107.024 43.8593 109.025 38.3282 111.169 35.0182C112.24 33.3656 113.341 32.2759 114.183 31.5955C114.604 31.2555 114.96 31.0181 115.214 30.8639C115.342 30.7868 115.444 30.7304 115.516 30.6925C115.552 30.6735 115.58 30.6591 115.601 30.6489C115.611 30.6439 115.62 30.6399 115.626 30.6369L115.634 30.6333L115.638 30.6315C115.638 30.6313 115.638 30.6311 115.847 31.0831L115.638 30.6311L115.879 30.5214L116.105 30.6574L116.098 30.6685C116.105 30.6574 116.105 30.6574 116.105 30.6574L116.105 30.6578L116.108 30.6593L116.119 30.666C116.129 30.672 116.145 30.6811 116.165 30.6932C116.206 30.7174 116.268 30.7535 116.349 30.8002C116.511 30.8937 116.75 31.03 117.058 31.1997C117.674 31.5391 118.563 32.0118 119.653 32.5433C121.836 33.6073 124.813 34.902 128.008 35.835C131.209 36.7699 134.591 37.3304 137.596 36.9591C140.582 36.5901 143.176 35.3058 144.887 32.5521L144.888 32.5517C145.631 31.3581 145.846 30.2797 145.687 29.2986C145.527 28.3096 144.978 27.3565 144.077 26.4413C142.261 24.598 139.122 23.0141 135.404 21.7236C127.987 19.149 118.548 17.8349 113.687 17.8152M116.037 121.204C115.831 119.407 115.237 117.856 114.239 116.638C113.173 115.338 111.617 114.381 109.488 113.922C108.661 113.744 108.014 113.681 107.525 113.702C107.031 113.724 106.74 113.829 106.58 113.942C106.441 114.041 106.374 114.165 106.363 114.343C106.35 114.543 106.41 114.825 106.587 115.187C106.94 115.909 107.686 116.799 108.749 117.688C109.806 118.572 111.147 119.433 112.656 120.109C113.72 120.586 114.86 120.968 116.037 121.204ZM45.41 111.464C48.3735 112.406 51.275 112.698 53.5923 112.454C54.9487 112.311 56.1357 111.982 57.0213 111.466C57.9095 110.949 58.542 110.21 58.6506 109.256C58.7528 108.382 58.5205 107.617 58.028 107.007C57.5433 106.407 56.8316 105.986 56.0134 105.731C54.3815 105.223 52.2183 105.338 50.1412 106.137C48.2092 106.88 46.3197 108.227 44.9708 110.266C44.7273 110.18 44.4836 110.088 44.2398 109.992C37.5624 107.36 30.9872 101.182 31.0263 89.826C31.0656 78.4231 37.035 69.7535 46.3478 65.3488C55.676 60.9367 68.408 60.7855 81.9491 66.5699C82.9877 67.0143 83.9441 67.1066 84.8055 66.835C85.6629 66.5646 86.3529 65.9567 86.9072 65.1414C88.0018 63.5313 88.6578 60.9787 89.0587 58.0111C89.8149 52.4129 89.6962 45.0326 89.5964 38.8306C89.5899 38.4285 89.5835 38.0313 89.5775 37.6399C89.4604 29.9934 92.8466 25.0572 97.5577 22.0144C102.297 18.9533 108.404 17.7955 113.687 17.8152M45.9559 110.592C47.1665 108.867 48.8125 107.714 50.5011 107.065C52.4119 106.329 54.3401 106.252 55.7152 106.68C56.4006 106.894 56.9213 107.224 57.2496 107.63C57.5697 108.027 57.7307 108.524 57.6584 109.141L57.6582 109.143C57.5967 109.685 57.2361 110.189 56.5168 110.608C55.7946 111.029 54.7592 111.331 53.4874 111.465C51.3829 111.686 48.7151 111.436 45.9559 110.592Z" fill="rgb(255,255,255)" fill-rule="evenodd" />
			<g id="GLASSES">
				<path id="Vector (Stroke)" d="M130.19 42.3224L114.289 42.3224L114.289 41.1289L130.19 41.1289L130.19 42.3224Z" fill="rgb(63,177,181)" fill-rule="evenodd" />
				<path id="Vector (Stroke)" d="M135.085 37.1506C133.053 37.1506 131.169 39.319 131.169 42.3225C131.169 45.3259 133.053 47.4944 135.085 47.4944C137.117 47.4944 139 45.3259 139 42.3225C139 39.319 137.117 37.1506 135.085 37.1506ZM129.971 42.3225C129.971 38.954 132.13 35.957 135.085 35.957C138.04 35.957 140.199 38.954 140.199 42.3225C140.199 45.691 138.04 48.6879 135.085 48.6879C132.13 48.6879 129.971 45.6909 129.971 42.3225Z" fill="rgb(63,177,181)" fill-rule="evenodd" />
			</g>
			<g id="HEADPHONES">
				<path id="Vector (Stroke)" d="M110.433 13.9162C108.229 13.9162 106.458 15.6962 106.458 17.8747L106.458 34.6238L105.259 34.6238L105.259 17.8747C105.259 15.0404 107.563 12.7227 110.433 12.7227L115.427 12.7227C118.274 12.7227 120.601 15.0171 120.601 17.8747L119.403 17.8747C119.403 15.6797 117.615 13.9162 115.427 13.9162L110.433 13.9162Z" fill="rgb(102,176,240)" fill-rule="evenodd" />
				<path id="Vector" d="M110.673 53.0649L101.064 53.0649C98.607 53.0649 96.6094 51.0757 96.6094 48.629L96.6094 39.0609C96.6094 36.6142 98.607 34.625 101.064 34.625L110.673 34.625C113.13 34.625 115.128 36.6142 115.128 39.0609L115.128 48.629C115.108 51.0757 113.13 53.0649 110.673 53.0649Z" fill="rgb(255,255,255)" fill-rule="nonzero" />
				<path id="Vector (Stroke)" d="M101.064 35.2209C98.9382 35.2209 97.2088 36.9429 97.2088 39.06L97.2088 48.6281C97.2088 50.7452 98.9382 52.4672 101.064 52.4672L110.673 52.4672C112.794 52.4672 114.51 50.7498 114.529 48.6256L114.529 39.06C114.529 36.9429 112.799 35.2209 110.673 35.2209L101.064 35.2209ZM96.0103 39.06C96.0103 36.2837 98.2762 34.0273 101.064 34.0273L110.673 34.0273C113.461 34.0273 115.727 36.2837 115.727 39.06L115.727 48.6305L115.727 48.6329C115.704 51.401 113.466 53.6607 110.673 53.6607L101.064 53.6607C98.2762 53.6607 96.0103 51.4044 96.0103 48.6281L96.0103 39.06Z" fill="rgb(102,176,240)" fill-rule="evenodd" />
				<path id="Vector" d="M108.176 49.9012L103.481 49.9012C101.464 49.9012 99.8057 48.27 99.8057 46.241L99.8057 41.5664C99.8057 39.5573 101.444 37.9062 103.481 37.9062L108.176 37.9062C110.193 37.9062 111.852 39.5374 111.852 41.5664L111.852 46.241C111.852 48.27 110.213 49.9012 108.176 49.9012Z" fill="rgb(255,255,255)" fill-rule="nonzero" />
				<path id="Vector (Stroke)" d="M103.482 38.5041C101.778 38.5041 100.406 39.8858 100.406 41.5674L100.406 46.2421C100.406 47.9394 101.793 49.3054 103.482 49.3054L108.177 49.3054C109.883 49.3054 111.253 47.9415 111.253 46.2421L111.253 41.5674C111.253 39.8701 109.865 38.5041 108.177 38.5041L103.482 38.5041ZM99.207 41.5674C99.207 39.2309 101.111 37.3105 103.482 37.3105L108.177 37.3105C110.523 37.3105 112.452 39.2068 112.452 41.5674L112.452 46.2421C112.452 48.6006 110.545 50.499 108.177 50.499L103.482 50.499C101.136 50.499 99.207 48.6027 99.207 46.2421L99.207 41.5674Z" fill="rgb(102,176,240)" fill-rule="evenodd" />
				<g id="Group">
					<path id="Vector (Stroke)" d="M101.204 49.0873L109.554 38.0273L110.512 38.7446L102.162 49.8045L101.204 49.0873Z" fill="rgb(102,176,240)" fill-rule="evenodd" />
					<path id="Vector (Stroke)" d="M99.5674 47.1946L106.799 37.6465L107.756 38.3651L100.524 47.9132L99.5674 47.1946Z" fill="rgb(102,176,240)" fill-rule="evenodd" />
					<path id="Vector (Stroke)" d="M103.94 49.5423L111.172 39.9941L112.129 40.7128L104.897 50.261L103.94 49.5423Z" fill="rgb(102,176,240)" fill-rule="evenodd" />
					<path id="Vector (Stroke)" d="M106.839 49.5422L111.374 43.5547L112.331 44.2733L107.796 50.2608L106.839 49.5422Z" fill="rgb(102,176,240)" fill-rule="evenodd" />
					<path id="Vector (Stroke)" d="M99.3477 43.5942L103.862 37.6465L104.818 38.3662L100.304 44.3139L99.3477 43.5942Z" fill="rgb(102,176,240)" fill-rule="evenodd" />
				</g>
			</g>
		</g>
	</g>
	<g id="CHAIR">
		<path id="Vector (Stroke)" d="M98.1471 325.804L98.1471 314.844L99.3457 314.844L99.3457 325.804C99.3457 331.425 94.7625 335.989 89.1177 335.989L64.4268 335.989L64.4268 334.795L89.1177 334.795C94.1005 334.795 98.1471 330.766 98.1471 325.804Z" fill="rgb(102,176,240)" fill-rule="evenodd" />
		<path id="Vector (Stroke)" d="M107.358 415.515L107.358 314.961L108.556 314.961L108.556 415.515L107.358 415.515Z" fill="rgb(102,176,240)" fill-rule="evenodd" />
		<path id="Vector (Stroke)" d="M102.903 416.113C81.2201 416.113 63.8485 430.395 63.8485 447.762L62.6499 447.762C62.6499 429.521 80.7965 414.92 102.903 414.92L112.851 414.92C134.957 414.92 153.104 429.521 153.104 447.762L151.905 447.762C151.905 430.395 134.533 416.113 112.851 416.113L102.903 416.113Z" fill="rgb(102,176,240)" fill-rule="evenodd" />
		<path id="Vector" d="M204.022 316.493L58.9922 316.493C51.7208 316.493 45.8477 310.625 45.8477 303.404L207.458 303.404L204.022 316.493Z" fill="rgb(255,207,45)" fill-rule="nonzero" />
		<path id="Vector" d="M62.3705 469.086C68.2841 469.086 73.078 464.312 73.078 458.424C73.078 452.535 68.2841 447.762 62.3705 447.762C56.457 447.762 51.6631 452.535 51.6631 458.424C51.6631 464.312 56.457 469.086 62.3705 469.086Z" fill="rgb(255,207,45)" fill-rule="nonzero" />
		<path id="Vector" d="M56.9155 338.115L78.4103 338.115C80.1682 338.115 81.5865 336.703 81.5865 334.952L81.5865 334.714C81.5865 332.963 80.1682 331.551 78.4103 331.551L56.9155 331.551C55.1576 331.551 53.7393 332.963 53.7393 334.714L53.7393 334.952C53.7393 336.703 55.1576 338.115 56.9155 338.115Z" fill="rgb(255,207,45)" fill-rule="nonzero" />
		<path id="Vector (Stroke)" d="M12.044 211.285C9.38832 203.856 14.9108 196.047 22.8366 196.047L98.4877 196.047C105.853 196.047 112.411 200.662 114.893 207.562L114.894 207.563L149.599 304.399L45.4272 304.399L12.044 211.285ZM13.1731 210.885C10.7952 204.231 15.7404 197.24 22.8366 197.24L98.4877 197.24C105.345 197.24 111.453 201.537 113.765 207.965L147.898 303.205L46.272 303.205L13.1732 210.885C13.1732 210.885 13.1731 210.885 13.1731 210.885Z" fill="rgb(255,207,45)" fill-rule="evenodd" />
		<path id="Vector (Stroke)" d="M15.2461 199.609L91.836 199.609C98.9618 199.609 105.3 204.065 107.702 210.747L107.703 210.747L141.249 304.401L50.9441 304.401L50.9441 303.207L139.549 303.207L106.574 211.149C104.342 204.941 98.4541 200.803 91.836 200.803L15.2461 200.803L15.2461 199.609Z" fill="rgb(255,207,45)" fill-rule="evenodd" />
		<path id="Vector" d="M152.324 469.086C158.238 469.086 163.032 464.312 163.032 458.424C163.032 452.535 158.238 447.762 152.324 447.762C146.411 447.762 141.617 452.535 141.617 458.424C141.617 464.312 146.411 469.086 152.324 469.086Z" fill="rgb(255,207,45)" fill-rule="nonzero" />
	</g>
</svg>
