<svg viewBox="0 0 602 551.001" xmlns="http://www.w3.org/2000/svg" xmlns:xlink="http://www.w3.org/1999/xlink" width="602.000000" height="551.000977" fill="none" customFrame="#000000">
	<rect id="illustration" width="602.000000" height="551.000000" x="0.000000" y="0.000000" fill="rgb(255,255,255)" fill-opacity="0" />
	<g id="LAMP">
		<path id="Vector" d="M378.302 15.918L420.208 56.3535L462.326 284.295L67.2539 284.295L378.302 15.918Z" fill="rgb(255,207,45)" fill-rule="nonzero" />
		<g id="Group">
			<g id="Group">
				<g id="Group">
					<path id="Vector" d="M420.568 56.036L378.534 15.4735L385.564 8.16972C395.919 -2.58485 414.575 -1.35696 425.332 8.9742C436.089 19.3265 437.974 37.9776 427.619 48.7322L420.568 56.036Z" fill="rgb(255,255,255)" fill-rule="nonzero" />
					<path id="Vector" d="M420.589 56.925L377.645 15.4945L385.12 7.72497C390.16 2.47471 397.338 -0.256271 405.343 0.0189438C413.008 0.294159 420.462 3.38504 425.798 8.50828C431.134 13.6315 434.501 20.9776 435.052 28.6413C435.624 36.6226 433.146 43.9052 428.106 49.1555L420.589 56.925ZM379.424 15.4522L420.547 55.1255L427.153 48.2875C431.96 43.3124 434.29 36.3685 433.76 28.7472C433.231 21.3799 430.012 14.3513 424.888 9.43977C419.763 4.52824 412.627 1.56438 405.279 1.31034C397.656 1.03512 390.816 3.63908 386.031 8.61413L379.424 15.4522Z" fill="rgb(255,207,45)" fill-rule="nonzero" />
				</g>
				<path id="Vector" d="M427.598 49.367C427.429 49.367 427.281 49.3035 427.154 49.1977L385.099 8.63516C384.845 8.38112 384.845 8.00005 385.078 7.746C385.332 7.49196 385.734 7.49196 385.967 7.72483L428.022 48.2873C428.276 48.5414 428.276 48.9224 428.043 49.1765C427.937 49.3035 427.768 49.367 427.598 49.367Z" fill="rgb(255,207,45)" fill-rule="nonzero" />
			</g>
			<path id="Vector" d="M508.828 283.194C508.743 283.194 508.658 283.173 508.574 283.131C508.256 282.983 508.108 282.602 508.256 282.284L567.23 150.773L451.929 10.456L451.929 10.4348C449.748 7.47095 446.55 5.56561 442.908 5.03635C439.266 4.50709 435.645 5.45976 432.723 7.70382L428.022 11.3028C427.746 11.5145 427.344 11.4722 427.132 11.1758C426.921 10.9006 426.963 10.4983 427.259 10.2866L431.96 6.68764C435.158 4.25304 439.118 3.2157 443.099 3.7873C447.08 4.3589 450.574 6.4336 452.945 9.67267L568.712 150.583L568.543 150.943L509.399 282.813C509.294 283.046 509.061 283.194 508.828 283.194Z" fill="rgb(63,177,181)" fill-rule="nonzero" />
			<g id="Group">
				<path id="Vector" d="M566.086 157.865C569.665 157.865 572.566 154.965 572.566 151.387C572.566 147.81 569.665 144.909 566.086 144.909C562.508 144.909 559.606 147.81 559.606 151.387C559.606 154.965 562.508 157.865 566.086 157.865Z" fill="rgb(255,255,255)" fill-rule="evenodd" />
				<path id="Vector" d="M566.087 158.501C562.169 158.501 558.972 155.304 558.972 151.388C558.972 147.471 562.169 144.274 566.087 144.274C570.004 144.274 573.202 147.471 573.202 151.388C573.202 155.304 570.004 158.501 566.087 158.501ZM566.087 145.545C562.868 145.545 560.242 148.17 560.242 151.388C560.242 154.606 562.868 157.231 566.087 157.231C569.305 157.231 571.931 154.606 571.931 151.388C571.931 148.17 569.305 145.545 566.087 145.545Z" fill="rgb(255,207,45)" fill-rule="nonzero" />
			</g>
			<g id="Group">
				<path id="Vector" d="M492.395 267.824L523.968 267.824C533.052 267.824 540.4 275.192 540.4 284.252L540.4 284.718L475.942 284.718L475.942 284.252C475.963 275.192 483.311 267.824 492.395 267.824Z" fill="rgb(255,255,255)" fill-rule="nonzero" />
				<path id="Vector" d="M541.036 285.354L475.307 285.354L475.307 284.253C475.328 274.853 482.993 267.189 492.395 267.189L523.968 267.189C533.37 267.189 541.036 274.853 541.036 284.253L541.036 285.354ZM476.577 284.083L539.765 284.083C539.68 275.446 532.629 268.46 523.968 268.46L492.395 268.46C483.756 268.46 476.683 275.446 476.577 284.083Z" fill="rgb(255,207,45)" fill-rule="nonzero" />
			</g>
		</g>
	</g>
	<g id="COMPUTER">
		<g id="COMPUTER">
			<g id="Group">
				<path id="Vector" d="M339.444 236.64L139.568 236.64C132.051 236.64 125.974 230.564 125.974 223.049L125.974 83.2818C125.974 75.7663 132.051 69.6904 139.568 69.6904L339.444 69.6904C346.962 69.6904 353.039 75.7663 353.039 83.2818L353.039 223.028C353.06 230.543 346.962 236.64 339.444 236.64Z" fill="rgb(255,255,255)" fill-rule="nonzero" />
				<path id="Vector" d="M339.444 237.276L139.568 237.276C131.712 237.276 125.338 230.903 125.338 223.049L125.338 83.2822C125.338 75.428 131.712 69.0557 139.568 69.0557L339.444 69.0557C347.301 69.0557 353.674 75.428 353.674 83.2822L353.674 223.028C353.696 226.818 352.213 230.395 349.524 233.084C346.835 235.794 343.256 237.276 339.444 237.276ZM139.568 70.3259C132.432 70.3259 126.609 76.1478 126.609 83.2822L126.609 223.049C126.609 230.184 132.432 236.005 139.568 236.005L339.444 236.005C342.917 236.005 346.178 234.651 348.635 232.195C351.07 229.739 352.425 226.479 352.404 223.028L352.404 83.2822C352.404 76.1478 346.581 70.3259 339.444 70.3259L139.568 70.3259Z" fill="rgb(63,177,181)" fill-rule="nonzero" />
			</g>
			<g id="Group">
				<path id="Vector" d="M339.572 223.642L141.623 223.642C138.679 223.642 136.308 221.249 136.308 218.328L136.308 84.6155C136.308 81.6728 138.7 79.3018 141.623 79.3018L339.572 79.3018C342.515 79.3018 344.887 81.694 344.887 84.6155L344.887 218.307C344.908 221.249 342.515 223.642 339.572 223.642Z" fill="rgb(102,176,240)" fill-rule="nonzero" />
				<path id="Vector" d="M339.571 224.277L141.622 224.277C138.34 224.277 135.672 221.61 135.672 218.328L135.672 84.6159C135.672 81.3345 138.34 78.667 141.622 78.667L339.571 78.667C342.853 78.667 345.522 81.3345 345.522 84.6159L345.522 218.307C345.543 219.895 344.929 221.398 343.806 222.52C342.663 223.642 341.181 224.277 339.571 224.277ZM141.622 79.9372C139.039 79.9372 136.942 82.0331 136.942 84.6159L136.942 218.328C136.942 220.911 139.039 223.007 141.622 223.007L339.571 223.007C340.821 223.007 342.006 222.52 342.896 221.631C343.785 220.742 344.251 219.577 344.251 218.328L344.251 84.6159C344.251 82.0331 342.155 79.9372 339.571 79.9372L141.622 79.9372Z" fill="rgb(102,176,240)" fill-rule="nonzero" />
			</g>
			<g id="Group">
				<path id="Vector" d="M148.716 92.4283L145.582 92.4283C144.206 92.4283 143.083 91.3062 143.083 89.9302L143.083 86.7969C143.083 85.4209 144.206 84.2988 145.582 84.2988L148.716 84.2988C150.093 84.2988 151.215 85.4209 151.215 86.7969L151.215 89.9302C151.194 91.3274 150.093 92.4283 148.716 92.4283ZM145.582 85.5691C144.905 85.5691 144.354 86.1195 144.354 86.7969L144.354 89.9302C144.354 90.6076 144.905 91.1581 145.582 91.1581L148.716 91.1581C149.394 91.1581 149.923 90.6076 149.944 89.909L149.944 86.7969C149.944 86.1195 149.394 85.5691 148.716 85.5691L145.582 85.5691Z" fill="rgb(255,255,255)" fill-rule="nonzero" />
				<path id="Vector" d="M162.967 92.4283L159.833 92.4283C158.457 92.4283 157.334 91.3062 157.334 89.9302L157.334 86.7969C157.334 85.4209 158.457 84.2988 159.833 84.2988L162.967 84.2988C164.344 84.2988 165.466 85.4209 165.466 86.7969L165.466 89.9302C165.466 91.3062 164.344 92.4283 162.967 92.4283ZM159.833 85.5691C159.156 85.5691 158.605 86.1195 158.605 86.7969L158.605 89.9302C158.605 90.6076 159.156 91.1581 159.833 91.1581L162.967 91.1581C163.645 91.1581 164.195 90.6076 164.195 89.9302L164.195 86.7969C164.195 86.1195 163.645 85.5691 162.967 85.5691L159.833 85.5691Z" fill="rgb(255,255,255)" fill-rule="nonzero" />
				<path id="Vector" d="M177.219 92.4283L174.085 92.4283C172.708 92.4283 171.586 91.3062 171.586 89.9302L171.586 86.7969C171.586 85.4209 172.708 84.2988 174.085 84.2988L177.219 84.2988C178.595 84.2988 179.717 85.4209 179.717 86.7969L179.717 89.9302C179.717 91.3062 178.595 92.4283 177.219 92.4283ZM174.085 85.5691C173.407 85.5691 172.856 86.1195 172.856 86.7969L172.856 89.9302C172.856 90.6076 173.407 91.1581 174.085 91.1581L177.219 91.1581C177.917 91.1581 178.447 90.6288 178.447 89.9302L178.447 86.7969C178.447 86.1195 177.896 85.5691 177.219 85.5691L174.085 85.5691Z" fill="rgb(255,255,255)" fill-rule="nonzero" />
			</g>
			<g id="Group">
				<g id="Group">
					<path id="Vector" d="M281.699 284.295L204.111 284.295L219.337 236.641L266.452 236.641L281.699 284.295Z" fill="rgb(255,255,255)" fill-rule="nonzero" />
					<path id="Vector" d="M282.566 284.931L203.243 284.931L218.87 236.006L266.918 236.006L282.566 284.931ZM204.979 283.66L280.83 283.66L265.986 237.276L219.802 237.276L204.979 283.66Z" fill="rgb(63,177,181)" fill-rule="nonzero" />
				</g>
				<path id="Vector" d="M210.209 265.221L219.336 236.641L266.452 236.641L210.209 265.221Z" fill="rgb(63,177,181)" fill-rule="nonzero" />
			</g>
			<g id="Group">
				<path id="Vector" d="M328.052 123.781L290.338 123.781C286.463 123.781 283.308 120.627 283.308 116.752L283.308 92.4065C283.308 88.5323 286.463 85.3779 290.338 85.3779L328.052 85.3779C331.927 85.3779 335.082 88.5323 335.082 92.4065L335.082 116.752C335.082 120.627 331.927 123.781 328.052 123.781ZM290.338 86.6482C287.162 86.6482 284.578 89.2309 284.578 92.4065L284.578 116.752C284.578 119.928 287.162 122.511 290.338 122.511L328.052 122.511C331.228 122.511 333.811 119.928 333.811 116.752L333.811 92.4065C333.811 89.2309 331.228 86.6482 328.052 86.6482L290.338 86.6482Z" fill="rgb(255,255,255)" fill-rule="nonzero" />
				<path id="Vector" d="M323.499 95.3288L294.721 95.3288C294.361 95.3288 294.086 95.0536 294.086 94.6937C294.086 94.3338 294.361 94.0586 294.721 94.0586L323.499 94.0586C323.859 94.0586 324.134 94.3338 324.134 94.6937C324.134 95.0536 323.859 95.3288 323.499 95.3288Z" fill="rgb(255,255,255)" fill-rule="nonzero" />
				<path id="Vector" d="M323.499 101.891L294.721 101.891C294.361 101.891 294.086 101.616 294.086 101.256C294.086 100.896 294.361 100.621 294.721 100.621L323.499 100.621C323.859 100.621 324.134 100.896 324.134 101.256C324.134 101.616 323.859 101.891 323.499 101.891Z" fill="rgb(255,255,255)" fill-rule="nonzero" />
				<path id="Vector" d="M323.499 108.454L294.721 108.454C294.361 108.454 294.086 108.179 294.086 107.819C294.086 107.459 294.361 107.184 294.721 107.184L323.499 107.184C323.859 107.184 324.134 107.459 324.134 107.819C324.134 108.179 323.859 108.454 323.499 108.454Z" fill="rgb(255,255,255)" fill-rule="nonzero" />
				<path id="Vector" d="M323.499 115.016L294.721 115.016C294.361 115.016 294.086 114.741 294.086 114.381C294.086 114.021 294.361 113.746 294.721 113.746L323.499 113.746C323.859 113.746 324.134 114.021 324.134 114.381C324.134 114.741 323.859 115.016 323.499 115.016Z" fill="rgb(255,255,255)" fill-rule="nonzero" />
			</g>
		</g>
		<g id="TEACHER">
			<g id="SHIRT">
				<g id="Group">
					<path id="Vector" d="M338.47 223.642L188.569 223.642L179.781 236.238C169.849 250.465 148.864 250.676 138.658 236.64L85.126 163.031C87.3706 165.825 97.6407 162.713 107.424 156.278C117.355 149.736 123.771 141.501 121.76 138.452L158.88 185.747L170.252 165.677C173.365 160.364 178.531 156.553 184.545 155.156L223.233 146.963L256.584 146.963L293.345 155.071C299.74 156.532 305.161 160.702 308.232 166.482L338.47 223.642Z" fill="rgb(255,255,255)" fill-rule="nonzero" />
					<path id="Vector" d="M159.07 247.67C150.706 247.67 143.083 243.796 138.149 237L84.6172 163.391L85.6336 162.629C87.4335 164.852 96.9837 162.396 107.084 155.748C111.785 152.657 115.872 149.08 118.583 145.65C121.039 142.559 122.034 139.997 121.23 138.791L122.267 138.05L158.795 184.604L169.701 165.36C172.898 159.898 178.255 155.96 184.396 154.542L223.169 146.327L256.647 146.327L256.711 146.349L293.472 154.457C300.036 155.96 305.626 160.236 308.782 166.185L339.507 224.277L188.886 224.277L180.288 236.598C175.439 243.542 167.795 247.586 159.303 247.67C159.24 247.67 159.155 247.67 159.07 247.67ZM87.0735 164.619L139.187 236.259C143.93 242.78 151.257 246.485 159.325 246.4C167.392 246.315 174.656 242.483 179.272 235.878L188.25 223.007L337.432 223.007L307.68 166.778C304.695 161.147 299.422 157.103 293.218 155.685L256.52 147.598L223.296 147.598L184.672 155.769C178.87 157.124 173.809 160.85 170.802 165.995L158.965 186.89L122.67 140.654C122.373 142.242 121.336 144.232 119.557 146.454C116.762 149.969 112.569 153.652 107.762 156.807C101.049 161.21 92.9815 164.682 88.1747 164.682C87.7935 164.682 87.4124 164.661 87.0735 164.619Z" fill="rgb(63,177,181)" fill-rule="nonzero" />
				</g>
				<path id="Vector" d="M297.326 223.409C297.093 223.409 296.881 223.282 296.754 223.071L286.103 202.048C285.955 201.731 286.061 201.35 286.378 201.202C286.696 201.053 287.077 201.159 287.225 201.477L297.877 222.499C298.025 222.817 297.919 223.198 297.601 223.346C297.517 223.388 297.432 223.409 297.326 223.409Z" fill="rgb(63,177,181)" fill-rule="nonzero" />
				<path id="Vector" d="M187.721 225.378C187.615 225.378 187.531 225.357 187.425 225.314C187.107 225.166 186.98 224.764 187.15 224.468L197.695 203.657C197.843 203.34 198.246 203.213 198.542 203.382C198.86 203.53 198.987 203.932 198.817 204.229L188.272 225.039C188.166 225.251 187.954 225.378 187.721 225.378Z" fill="rgb(63,177,181)" fill-rule="nonzero" />
				<path id="Vector" d="M168.599 198.916C168.409 198.916 168.218 198.831 168.091 198.662L143.93 167.774C143.718 167.499 143.76 167.097 144.036 166.885C144.311 166.673 144.713 166.715 144.925 166.991L169.086 197.878C169.298 198.154 169.256 198.556 168.98 198.767C168.875 198.873 168.726 198.916 168.599 198.916Z" fill="rgb(63,177,181)" fill-rule="nonzero" />
				<path id="Vector" d="M252.878 168.853L243.582 157.527C243.349 157.252 243.392 156.85 243.667 156.638C243.942 156.405 244.345 156.448 244.556 156.723L253.048 167.033L272.466 150.562C272.741 150.329 273.143 150.372 273.355 150.626C273.588 150.901 273.546 151.303 273.292 151.515L252.878 168.853Z" fill="rgb(63,177,181)" fill-rule="nonzero" />
				<path id="Vector" d="M228.739 169.256L206.356 151.536C206.081 151.324 206.038 150.922 206.25 150.647C206.462 150.372 206.864 150.329 207.139 150.541L228.506 167.456L236.743 156.935C236.955 156.659 237.357 156.617 237.632 156.829C237.908 157.04 237.95 157.443 237.738 157.718L228.739 169.256Z" fill="rgb(63,177,181)" fill-rule="nonzero" />
				<path id="Vector" d="M95.3109 174.464C93.2992 174.464 92.2405 173.85 91.7111 173.172C91.4993 172.897 91.5417 172.495 91.8169 172.283C92.0922 172.071 92.4946 172.114 92.7063 172.389C93.5957 173.511 96.4967 173.447 100.457 172.262C104.67 170.992 109.753 168.493 114.369 165.424C119.091 162.291 123.199 158.67 125.931 155.198C128.408 152.065 129.404 149.482 128.599 148.255C128.408 147.958 128.493 147.577 128.789 147.365C129.086 147.175 129.467 147.26 129.679 147.556C130.822 149.313 129.848 152.298 126.947 155.982C124.131 159.538 119.917 163.264 115.089 166.461C110.303 169.637 105.242 172.135 100.838 173.469C98.4449 174.188 96.645 174.464 95.3109 174.464Z" fill="rgb(63,177,181)" fill-rule="nonzero" />
				<path id="Vector" d="M122.479 153.906C120.806 153.906 119.451 152.551 119.451 150.879C119.451 149.206 120.806 147.852 122.479 147.852C124.152 147.852 125.507 149.206 125.507 150.879C125.507 152.551 124.152 153.906 122.479 153.906ZM122.479 149.122C121.505 149.122 120.722 149.905 120.722 150.879C120.722 151.853 121.505 152.636 122.479 152.636C123.453 152.636 124.237 151.853 124.237 150.879C124.237 149.905 123.453 149.122 122.479 149.122Z" fill="rgb(63,177,181)" fill-rule="nonzero" />
				<path id="Vector" d="M240.639 168.938C238.966 168.938 237.611 167.583 237.611 165.91C237.611 164.238 238.966 162.883 240.639 162.883C242.312 162.883 243.667 164.238 243.667 165.91C243.667 167.583 242.312 168.938 240.639 168.938ZM240.639 164.153C239.665 164.153 238.881 164.936 238.881 165.91C238.881 166.884 239.665 167.667 240.639 167.667C241.613 167.667 242.396 166.884 242.396 165.91C242.396 164.936 241.613 164.153 240.639 164.153Z" fill="rgb(63,177,181)" fill-rule="nonzero" />
				<path id="Vector" d="M240.639 188.203C238.966 188.203 237.611 186.848 237.611 185.176C237.611 183.503 238.966 182.148 240.639 182.148C242.312 182.148 243.667 183.503 243.667 185.176C243.667 186.848 242.312 188.203 240.639 188.203ZM240.639 183.419C239.665 183.419 238.881 184.202 238.881 185.176C238.881 186.15 239.665 186.933 240.639 186.933C241.613 186.933 242.396 186.15 242.396 185.176C242.396 184.202 241.613 183.419 240.639 183.419Z" fill="rgb(63,177,181)" fill-rule="nonzero" />
				<path id="Vector" d="M179.018 237.255L188.568 223.643L188.568 237.255L179.018 237.255Z" fill="rgb(63,177,181)" fill-rule="nonzero" />
			</g>
			<g id="ARM">
				<path id="Vector" d="M107.191 155.642C97.4075 162.078 87.1373 165.19 84.8927 162.396C84.8504 162.353 84.8292 162.311 84.7868 162.248C84.321 161.549 84.3633 160.596 84.7868 159.432C86.2479 155.6 92.283 149.672 99.9485 144.634C106.047 140.611 112.061 137.817 116.233 136.949C118.647 136.462 120.446 136.61 121.315 137.542L121.526 137.796C123.517 140.844 117.122 149.101 107.191 155.642Z" fill="rgb(254,82,68)" fill-rule="nonzero" />
				<path id="Vector" d="M107.191 155.643C101.622 159.305 95.883 161.909 91.5632 162.925L72.2299 135.658C69.5406 131.847 70.43 126.576 74.2628 123.887L91.6691 111.651L81.8013 94.8626C80.3613 92.428 81.1872 89.2736 83.6435 87.8552C84.4482 87.3894 85.3164 87.1777 86.1846 87.1777C87.8575 87.1777 89.5092 88.0034 90.4832 89.5277L121.336 137.5L121.548 137.839C123.517 140.845 117.122 149.101 107.191 155.643Z" fill="rgb(229,114,129)" fill-rule="nonzero" />
				<path id="Vector" d="M97.1322 135.975C96.8569 135.975 96.5816 135.954 96.3063 135.89C95.2476 135.679 94.337 135.043 93.7653 134.154L83.5798 118.912C83.3893 118.615 83.4739 118.234 83.7492 118.022C84.0457 117.832 84.4269 117.917 84.6386 118.192L94.824 133.434C95.2264 134.048 95.8405 134.472 96.5604 134.62C97.2804 134.768 98.0216 134.62 98.6356 134.218L101.028 132.651C102.299 131.826 102.659 130.132 101.854 128.862L91.076 112.158C90.8854 111.862 90.9701 111.481 91.2665 111.29C91.563 111.1 91.9442 111.184 92.1348 111.481L102.913 128.184C104.099 130.047 103.548 132.524 101.706 133.71L99.3132 135.276C98.678 135.742 97.9157 135.975 97.1322 135.975Z" fill="rgb(154,59,130)" fill-rule="nonzero" />
				<path id="Vector" d="M89.234 141.035C87.9211 141.035 86.6294 140.4 85.8459 139.235C85.6553 138.939 85.74 138.558 86.0365 138.346C86.3329 138.156 86.7141 138.24 86.9258 138.537C87.7517 139.786 89.4457 140.146 90.7163 139.341L92.8974 137.965C93.5115 137.563 93.9561 136.949 94.1044 136.208C94.2526 135.467 94.1255 134.726 93.7232 134.112C93.5326 133.816 93.6173 133.435 93.9138 133.223C94.2102 133.032 94.5914 133.117 94.8032 133.413C95.3961 134.324 95.6078 135.403 95.3749 136.483C95.142 137.542 94.5067 138.452 93.5961 139.045L91.4151 140.421C90.7375 140.823 89.9751 141.035 89.234 141.035Z" fill="rgb(154,59,130)" fill-rule="nonzero" />
				<path id="Vector" d="M81.4834 145.777C80.2129 145.777 78.9635 145.184 78.18 144.062L72.3991 135.911C72.1873 135.615 72.272 135.234 72.5473 135.022C72.8226 134.811 73.2249 134.895 73.4367 135.17L79.2176 143.321C80.0858 144.528 81.7163 144.845 82.9445 144.062L82.9868 144.041L84.9985 142.919C85.6338 142.517 86.0573 141.903 86.2267 141.183C86.3961 140.442 86.2479 139.701 85.8455 139.066L75.8719 124.246C75.6813 123.95 75.7448 123.569 76.0413 123.357C76.3377 123.167 76.7189 123.23 76.9306 123.527L86.9043 138.346C87.5184 139.277 87.709 140.378 87.4761 141.437C87.2431 142.495 86.6079 143.406 85.6762 143.977L85.655 143.998L83.6433 145.12C82.9445 145.586 82.2034 145.777 81.4834 145.777Z" fill="rgb(154,59,130)" fill-rule="nonzero" />
				<path id="Vector" d="M114.136 126.322L109.075 118.468C107.402 115.864 103.908 115.144 101.346 116.88L88.7891 125.39C88.7891 125.39 92.4313 131.932 101.283 126.745L104.247 131.466C98.191 135.298 96.4546 143.364 100.393 149.355L114.136 126.322Z" fill="rgb(229,114,129)" fill-rule="nonzero" />
				<path id="Vector" d="M100.393 149.99C100.181 149.99 99.9908 149.884 99.8637 149.693C97.8732 146.645 97.1745 143.004 97.9579 139.447C98.6779 136.102 100.605 133.223 103.379 131.275L101.071 127.592C98.0215 129.264 95.2475 129.751 92.7911 129.095C89.6783 128.248 88.2807 125.792 88.2172 125.707L87.9419 125.199L100.308 116.562C101.706 115.63 103.358 115.292 104.988 115.63C106.619 115.969 108.016 116.922 108.927 118.34L113.988 126.194C114.178 126.491 114.094 126.872 113.797 127.062C113.501 127.253 113.12 127.168 112.929 126.872L107.868 119.018C107.148 117.896 106.047 117.133 104.734 116.879C103.442 116.604 102.108 116.879 101.028 117.62L89.6571 125.559C90.1653 126.216 91.3088 127.401 93.1299 127.888C95.3745 128.502 98.0003 127.93 100.944 126.216L101.473 125.898L105.094 131.677L104.565 132.016C101.791 133.773 99.8637 136.525 99.1649 139.743C98.4661 142.961 99.0802 146.264 100.901 149.016C101.092 149.312 101.007 149.693 100.711 149.905C100.626 149.948 100.52 149.99 100.393 149.99Z" fill="rgb(154,59,130)" fill-rule="nonzero" />
				<path id="Vector" d="M107.191 155.643C101.622 159.305 95.883 161.909 91.5632 162.925L86.7563 156.151C89.4456 152.636 94.2525 148.402 99.9487 144.655C106.047 140.633 112.061 137.838 116.233 136.97C118.647 136.483 120.447 136.632 121.315 137.563L121.527 137.817C121.548 137.86 121.569 137.881 121.59 137.923C121.611 137.944 121.611 137.965 121.632 138.008C121.654 138.05 121.675 138.071 121.696 138.114C123.136 141.353 116.804 149.292 107.191 155.643Z" fill="rgb(154,59,130)" fill-rule="nonzero" />
			</g>
			<g id="HEAD 2">
				<g id="Group">
					<path id="Vector" d="M256.563 128.333L256.563 146.942C256.563 152.34 249.067 156.701 239.856 156.701C230.623 156.701 223.148 152.34 223.148 146.942L223.148 128.333L256.563 128.333Z" fill="rgb(229,114,129)" fill-rule="nonzero" />
					<path id="Vector" d="M228.039 153.843C225.011 152.086 223.126 149.63 223.126 146.942L223.126 128.333L256.562 128.333L256.562 133.499C256.562 138.855 253.301 143.66 248.346 145.672L228.039 153.843Z" fill="rgb(154,59,130)" fill-rule="nonzero" />
				</g>
				<path id="Vector" d="M265.88 127.233L265.88 127.55C265.88 130.768 263.275 133.372 260.057 133.372L256.224 133.372C254.932 138.58 250.231 142.454 244.598 142.454L235.112 142.454C229.5 142.454 224.778 138.601 223.508 133.372L219.675 133.372C216.456 133.372 213.852 130.768 213.852 127.55L213.852 127.233C213.852 124.015 216.456 121.411 219.675 121.411L223.148 121.411L223.148 116.817C223.148 111.905 226.769 107.841 231.491 107.163C232.528 108.899 235.662 113.048 242.057 112.816C245.064 112.71 247.86 112.138 250.168 111.461C252.942 110.656 255.716 112.35 256.414 114.996C256.52 115.589 256.584 116.182 256.584 116.796L256.584 121.39L260.057 121.39C263.254 121.39 265.88 124.015 265.88 127.233Z" fill="rgb(229,114,129)" fill-rule="nonzero" />
				<path id="Vector" d="M259.231 121.39L256.562 121.39L256.562 116.288C256.562 115.843 256.499 115.398 256.393 114.996C255.694 112.35 252.92 110.656 250.146 111.461C247.838 112.138 245.064 112.71 242.036 112.816C235.641 113.049 232.507 108.899 231.469 107.163C226.747 107.841 223.126 111.905 223.126 116.817L223.126 121.411L219.802 121.411C219.802 121.411 215.99 107.629 218.849 103.734C221.665 99.9017 225.053 101.574 225.053 101.574C225.053 101.574 223.02 90.0998 234.37 90.3115C245.699 90.5232 260.438 103.67 261.518 106.083C263.212 109.788 259.231 121.39 259.231 121.39Z" fill="rgb(154,59,130)" fill-rule="nonzero" />
				<g id="Group">
					<g id="Group">
						<path id="Vector" d="M257.855 128.841C257.558 128.841 257.325 128.608 257.325 128.311C257.325 125.771 259.4 123.696 261.941 123.696C262.238 123.696 262.471 123.929 262.471 124.226C262.471 124.522 262.238 124.755 261.941 124.755C259.972 124.755 258.384 126.343 258.384 128.311C258.384 128.608 258.151 128.841 257.855 128.841Z" fill="rgb(154,59,130)" fill-rule="nonzero" />
						<path id="Vector" d="M221.898 128.841C221.602 128.841 221.369 128.608 221.369 128.311C221.369 126.343 219.78 124.755 217.811 124.755C217.515 124.755 217.282 124.522 217.282 124.226C217.282 123.929 217.515 123.696 217.811 123.696C220.352 123.696 222.427 125.771 222.427 128.311C222.427 128.608 222.194 128.841 221.898 128.841Z" fill="rgb(154,59,130)" fill-rule="nonzero" />
					</g>
					<g id="Group">
						<path id="Vector" d="M251.226 117.346C251.121 117.346 251.015 117.303 250.909 117.24C250.803 117.155 248.071 115.229 244.577 116.689C244.302 116.795 244.006 116.668 243.878 116.393C243.773 116.118 243.9 115.822 244.175 115.694C248.241 114.022 251.396 116.266 251.523 116.372C251.756 116.541 251.819 116.88 251.629 117.113C251.544 117.261 251.396 117.346 251.226 117.346Z" fill="rgb(154,59,130)" fill-rule="nonzero" />
						<path id="Vector" d="M228.272 117.346C228.103 117.346 227.955 117.261 227.849 117.134C227.679 116.902 227.722 116.563 227.955 116.393C228.082 116.288 231.258 114.043 235.303 115.716C235.578 115.822 235.705 116.139 235.599 116.415C235.493 116.69 235.175 116.817 234.9 116.711C231.385 115.25 228.611 117.24 228.569 117.261C228.484 117.304 228.378 117.346 228.272 117.346Z" fill="rgb(154,59,130)" fill-rule="nonzero" />
						<path id="Vector" d="M241.189 135.171C240.363 135.171 239.41 135.002 238.33 134.599C238.055 134.494 237.907 134.197 238.013 133.922C238.119 133.647 238.415 133.499 238.69 133.604C243.137 135.256 244.598 132.334 244.662 132.207C244.789 131.953 245.107 131.826 245.361 131.953C245.615 132.08 245.742 132.398 245.615 132.652C245.594 132.694 244.387 135.171 241.189 135.171Z" fill="rgb(154,59,130)" fill-rule="nonzero" />
						<path id="Vector" d="M239.686 131.191C239.199 131.191 238.67 131.191 238.225 131.149C237.928 131.128 237.717 130.874 237.738 130.577C237.759 130.281 238.013 130.069 238.31 130.09C239.559 130.175 241.486 130.09 241.507 130.09C241.804 130.069 242.036 130.302 242.058 130.598C242.079 130.895 241.846 131.128 241.549 131.149C241.507 131.149 240.639 131.191 239.686 131.191Z" fill="rgb(154,59,130)" fill-rule="nonzero" />
						<path id="Vector" d="M247.818 125.645C248.402 125.645 248.876 124.848 248.876 123.866C248.876 122.884 248.402 122.088 247.818 122.088C247.233 122.088 246.759 122.884 246.759 123.866C246.759 124.848 247.233 125.645 247.818 125.645Z" fill="rgb(154,59,130)" fill-rule="evenodd" />
						<path id="Vector" d="M232.634 125.645C233.219 125.645 233.693 124.848 233.693 123.866C233.693 122.884 233.219 122.088 232.634 122.088C232.049 122.088 231.575 122.884 231.575 123.866C231.575 124.848 232.049 125.645 232.634 125.645Z" fill="rgb(154,59,130)" fill-rule="evenodd" />
					</g>
				</g>
				<g id="Group">
					<path id="Vector" d="M235.154 130.387L228.484 130.387C226.917 130.387 225.625 129.095 225.625 127.529L225.625 120.86C225.625 119.293 226.917 118.002 228.484 118.002L235.154 118.002C236.721 118.002 238.013 119.293 238.013 120.86L238.013 127.529C238.034 128.27 237.737 128.989 237.208 129.519C236.657 130.09 235.938 130.387 235.154 130.387ZM228.484 119.06C227.488 119.06 226.684 119.865 226.684 120.86L226.684 127.529C226.684 128.524 227.488 129.328 228.484 129.328L235.154 129.328C235.641 129.328 236.107 129.138 236.446 128.778C236.785 128.439 236.954 127.994 236.954 127.529L236.954 120.86C236.954 119.865 236.149 119.06 235.154 119.06L228.484 119.06Z" fill="rgb(255,255,255)" fill-rule="nonzero" />
					<path id="Vector" d="M251.48 130.387L244.81 130.387C243.243 130.387 241.951 129.095 241.951 127.529L241.951 120.86C241.951 119.293 243.243 118.002 244.81 118.002L251.48 118.002C253.047 118.002 254.339 119.293 254.339 120.86L254.339 127.529C254.339 129.095 253.047 130.387 251.48 130.387ZM244.81 119.06C243.815 119.06 243.01 119.865 243.01 120.86L243.01 127.529C243.01 128.524 243.815 129.328 244.81 129.328L251.48 129.328C252.475 129.328 253.28 128.524 253.28 127.529L253.28 120.86C253.28 119.865 252.475 119.06 251.48 119.06L244.81 119.06Z" fill="rgb(255,255,255)" fill-rule="nonzero" />
					<path id="Vector" d="M242.481 122.405L237.504 122.405L237.504 123.464L242.481 123.464L242.481 122.405Z" fill="rgb(255,255,255)" fill-rule="evenodd" />
				</g>
			</g>
		</g>
		<g id="ICON">
			<path id="Vector" d="M253.239 216.063L230.094 216.063C227.637 216.063 225.647 214.073 225.647 211.617L225.647 199.317C225.647 196.861 227.637 194.871 230.094 194.871L253.239 194.871C255.695 194.871 257.686 196.861 257.686 199.317L257.686 211.617C257.686 214.073 255.695 216.063 253.239 216.063ZM230.094 196.141C228.336 196.141 226.918 197.56 226.918 199.317L226.918 211.617C226.918 213.374 228.336 214.792 230.094 214.792L253.239 214.792C254.996 214.792 256.415 213.374 256.415 211.617L256.415 199.317C256.415 197.56 254.996 196.141 253.239 196.141L230.094 196.141Z" fill="rgb(102,176,240)" fill-rule="nonzero" />
			<g id="Group">
				<path id="Vector" d="M242.248 210.475L234.413 210.475C233.164 210.475 232.147 209.458 232.147 208.209L232.147 202.726C232.147 201.477 233.164 200.461 234.413 200.461L242.248 200.461C243.498 200.461 244.514 201.477 244.514 202.726L244.514 208.209C244.514 209.458 243.498 210.475 242.248 210.475Z" fill="rgb(102,176,240)" fill-rule="nonzero" />
				<path id="Vector" d="M249.872 210.326L247.458 208.717C246.801 208.273 246.399 207.511 246.399 206.685L246.399 204.272C246.399 203.446 246.801 202.684 247.458 202.239L249.872 200.63C250.443 200.249 251.185 200.673 251.185 201.392L251.185 209.585C251.206 210.284 250.443 210.707 249.872 210.326Z" fill="rgb(102,176,240)" fill-rule="nonzero" />
			</g>
		</g>
	</g>
	<g id="TABLE">
		<path id="Vector" d="M562.783 285.354L0.635267 285.354C0.275282 285.354 0 285.079 0 284.719C0 284.359 0.275282 284.084 0.635267 284.084L562.783 284.084C563.143 284.084 563.418 284.359 563.418 284.719C563.418 285.079 563.143 285.354 562.783 285.354Z" fill="rgb(63,177,181)" fill-rule="nonzero" />
		<g id="Group">
			<g id="Group">
				<path id="Vector" d="M181.623 288.424L181.623 549.794L166.864 549.794L166.864 500.043C166.864 495.407 163.094 491.639 158.457 491.639L52.8121 491.639C48.1746 491.639 44.4054 495.407 44.4054 500.043L44.4054 549.794L29.646 549.794L29.646 288.424L181.623 288.424Z" fill="rgb(255,255,255)" fill-rule="nonzero" />
				<path id="Vector" d="M182.258 550.428L166.228 550.428L166.228 500.043C166.228 495.766 162.734 492.273 158.457 492.273L52.8121 492.273C48.5346 492.273 45.0407 495.766 45.0407 500.043L45.0407 550.428L29.0107 550.428L29.0107 287.788L182.258 287.788L182.258 550.428ZM167.499 549.158L180.988 549.158L180.988 289.058L30.2813 289.058L30.2813 549.158L43.7701 549.158L43.7701 500.043C43.7701 495.068 47.8358 491.003 52.8121 491.003L158.457 491.003C163.433 491.003 167.499 495.068 167.499 500.043L167.499 549.158Z" fill="rgb(63,177,181)" fill-rule="nonzero" />
			</g>
			<path id="Vector" d="M182.068 288.424L182.068 357.778L29.646 483.255L29.6672 288.424L182.068 288.424Z" fill="rgb(208,240,228)" fill-rule="nonzero" />
			<path id="Vector" d="M158.901 364.319L52.3883 364.319C47.645 364.319 43.791 360.466 43.791 355.724L43.791 308.324C43.791 303.582 47.645 299.729 52.3883 299.729L158.901 299.729C163.645 299.729 167.499 303.582 167.499 308.324L167.499 355.724C167.499 360.466 163.645 364.319 158.901 364.319ZM52.3883 300.999C48.3438 300.999 45.0616 304.28 45.0616 308.324L45.0616 355.724C45.0616 359.768 48.3438 363.049 52.3883 363.049L158.901 363.049C162.946 363.049 166.228 359.768 166.228 355.724L166.228 308.324C166.228 304.28 162.946 300.999 158.901 300.999L52.3883 300.999Z" fill="rgb(63,177,181)" fill-rule="nonzero" />
			<path id="Vector" d="M132.728 399.589L80.2973 399.589L78.1162 384.579L130.568 384.579L132.728 399.589Z" fill="rgb(255,207,45)" fill-rule="nonzero" />
			<g id="Group">
				<g id="Group">
					<path id="Vector" d="M160.701 375.921C154.158 375.921 148.864 381.213 148.864 387.755L148.864 399.589L104.247 399.589L104.247 387.755C104.247 381.213 109.541 375.921 116.084 375.921L160.701 375.921Z" fill="rgb(255,255,255)" fill-rule="nonzero" />
					<path id="Vector" d="M149.5 400.225L103.612 400.225L103.612 387.756C103.612 380.875 109.203 375.286 116.085 375.286L160.702 375.286L160.702 376.556C154.518 376.556 149.5 381.574 149.5 387.756L149.5 400.225ZM104.883 398.955L148.229 398.955L148.229 387.756C148.229 382.844 151.088 378.589 155.217 376.556L116.085 376.556C109.901 376.556 104.883 381.574 104.883 387.756L104.883 398.955Z" fill="rgb(63,177,181)" fill-rule="nonzero" />
				</g>
				<g id="Group">
					<path id="Vector" d="M171.819 384.58L127.202 384.58C125.825 379.583 121.23 375.921 115.788 375.921L160.405 375.921C165.847 375.921 170.421 379.583 171.819 384.58Z" fill="rgb(255,255,255)" fill-rule="nonzero" />
					<path id="Vector" d="M172.666 385.215L126.737 385.215L126.61 384.749C125.276 379.922 120.829 376.556 115.81 376.556L115.81 375.286L160.427 375.286C165.996 375.286 170.951 379.033 172.455 384.411L172.666 385.215ZM127.668 383.945L170.951 383.945C169.363 379.563 165.128 376.556 160.406 376.556L121.273 376.556C124.259 378.017 126.631 380.663 127.668 383.945Z" fill="rgb(63,177,181)" fill-rule="nonzero" />
				</g>
			</g>
			<path id="Vector" d="M158.901 463.545L52.3883 463.545C47.645 463.545 43.791 459.692 43.791 454.95L43.791 407.549C43.791 402.807 47.645 398.954 52.3883 398.954L158.901 398.954C163.645 398.954 167.499 402.807 167.499 407.549L167.499 454.95C167.499 459.692 163.645 463.545 158.901 463.545ZM52.3883 400.224C48.3438 400.224 45.0616 403.506 45.0616 407.549L45.0616 454.95C45.0616 458.993 48.3438 462.275 52.3883 462.275L158.901 462.275C162.946 462.275 166.228 458.993 166.228 454.95L166.228 407.549C166.228 403.506 162.946 400.224 158.901 400.224L52.3883 400.224Z" fill="rgb(63,177,181)" fill-rule="nonzero" />
			<path id="Vector" d="M127.477 331.717C127.117 331.717 126.842 331.442 126.842 331.082C126.842 327.652 124.068 324.879 120.637 324.879L90.6737 324.879C87.2433 324.879 84.4693 327.652 84.4693 331.082C84.4693 331.442 84.194 331.717 83.834 331.717C83.474 331.717 83.1987 331.442 83.1987 331.082C83.1987 326.953 86.5445 323.608 90.6737 323.608L120.637 323.608C124.766 323.608 128.112 326.953 128.112 331.082C128.112 331.442 127.837 331.717 127.477 331.717Z" fill="rgb(63,177,181)" fill-rule="nonzero" />
			<path id="Vector" d="M127.477 430.942C127.117 430.942 126.842 430.667 126.842 430.307C126.842 426.878 124.068 424.104 120.637 424.104L90.6737 424.104C87.2433 424.104 84.4693 426.878 84.4693 430.307C84.4693 430.667 84.194 430.942 83.834 430.942C83.474 430.942 83.1987 430.667 83.1987 430.307C83.1987 426.179 86.5445 422.834 90.6737 422.834L120.637 422.834C124.766 422.834 128.112 426.179 128.112 430.307C128.112 430.667 127.837 430.942 127.477 430.942Z" fill="rgb(63,177,181)" fill-rule="nonzero" />
		</g>
		<g id="Group">
			<path id="Vector" d="M540.4 288.424L524.667 288.424L524.667 550.365L540.4 550.365L540.4 288.424Z" fill="rgb(255,255,255)" fill-rule="evenodd" />
			<path id="Vector" d="M541.035 551L524.031 551L524.031 287.788L541.035 287.788L541.035 551ZM525.302 549.73L539.765 549.73L539.765 289.058L525.302 289.058L525.302 549.73Z" fill="rgb(63,177,181)" fill-rule="nonzero" />
		</g>
		<path id="Vector" d="M601.365 551.001L273.017 551.001C272.657 551.001 272.381 550.725 272.381 550.366C272.381 550.006 272.657 549.73 273.017 549.73L601.365 549.73C601.725 549.73 602 550.006 602 550.366C602 550.725 601.725 551.001 601.365 551.001Z" fill="rgb(63,177,181)" fill-rule="nonzero" />
	</g>
	<g id="PLANT">
		<g id="Group">
			<path id="Vector" d="M74.3262 248.792L64.8184 248.792C64.8184 248.792 51.2449 192.246 39.3231 190.404C27.4012 188.563 26.7871 210.326 26.7871 210.326C26.7871 210.326 26.9989 177.236 56.7929 181.767C86.6081 186.297 74.3262 248.792 74.3262 248.792Z" fill="rgb(255,255,255)" fill-rule="nonzero" />
			<path id="Vector" d="M74.8564 249.428L64.3322 249.428L64.2051 248.941C64.1628 248.792 60.7535 234.651 55.9467 220.488C47.9846 197.052 42.4578 191.526 39.2391 191.04C37.0369 190.701 35.0887 191.209 33.4794 192.564C27.8679 197.221 27.4444 210.22 27.4444 210.347L26.1738 210.326C26.1738 210.156 26.2162 206.282 27.4655 201.328C28.6302 196.734 31.0866 190.32 36.2322 185.916C41.4626 181.449 48.4082 179.84 56.9207 181.153C62.4264 181.979 66.8944 184.815 70.219 189.536C75.5552 197.137 77.9904 209.437 77.4187 226.14C76.9952 238.525 75.0047 248.814 74.9835 248.919L74.8564 249.428ZM65.3274 248.157L73.8188 248.157C74.2212 245.934 75.7882 236.789 76.1481 226.077C76.5293 214.793 75.6188 199.444 69.1814 190.277C66.0686 185.832 61.8758 183.185 56.7301 182.423C48.6199 181.195 41.992 182.698 37.058 186.911C35.5758 188.182 34.3052 189.642 33.2464 191.188C35.0464 189.918 37.1216 189.473 39.4509 189.833C44.6389 190.637 50.6104 200.841 57.1748 220.149C61.4735 232.83 64.671 245.532 65.3274 248.157Z" fill="rgb(63,177,181)" fill-rule="nonzero" />
		</g>
		<path id="Vector" d="M70.1546 248.581C69.8158 248.581 69.5193 248.305 69.5193 247.945C68.8205 205.795 59.8844 190.912 52.5153 185.874C46.925 182.042 42.0334 183.778 41.9911 183.799C41.6523 183.926 41.2923 183.757 41.1652 183.418C41.0382 183.079 41.2076 182.719 41.5464 182.592C41.7793 182.508 47.0944 180.624 53.2353 184.815C57.9786 188.076 61.8538 194.046 64.7336 202.598C68.4394 213.607 70.4722 228.85 70.7898 247.924C70.7898 248.284 70.5146 248.581 70.1546 248.581Z" fill="rgb(63,177,181)" fill-rule="nonzero" />
		<path id="Vector" d="M100.224 247.945L55.5649 247.945L55.5649 284.295L100.224 284.295L100.224 247.945Z" fill="rgb(254,82,68)" fill-rule="evenodd" />
		<g id="Group">
			<path id="Vector" d="M109.626 266.131C106.789 267.358 103.401 267.21 100.246 265.834C97.9162 264.818 95.714 263.146 93.9352 260.859C91.4789 257.684 89.8272 253.344 89.8272 247.945C89.8272 234.862 79.4088 226.648 75.1313 243.965C74.8349 245.172 74.5596 246.484 74.3267 247.945L74.3267 247.903L74.3267 247.818C74.3267 247.776 74.3267 247.712 74.3479 247.649L74.3479 247.564C74.4326 246.484 74.7502 243.288 75.7243 239.435C76.4442 236.577 77.5242 233.401 79.1335 230.458C79.9382 228.998 80.8699 227.6 81.9711 226.351C84.8086 223.091 88.7049 220.805 94.0199 220.805C103.803 220.805 110.96 232.321 113.692 243.796C116.085 253.767 115.111 263.738 109.626 266.131Z" fill="rgb(255,255,255)" fill-rule="nonzero" />
			<path id="Vector" d="M105.454 267.592C103.654 267.592 101.77 267.189 99.9911 266.406C97.4713 265.305 95.2055 263.527 93.4267 261.241C90.6527 257.663 89.1916 253.048 89.1916 247.946C89.1916 241.975 86.5658 235.243 82.6484 234.778C79.8108 234.439 77.3121 237.847 75.7451 244.114C75.4275 245.426 75.1734 246.696 74.9405 248.051L73.6699 247.946L73.6699 247.818C73.6699 247.776 73.6699 247.67 73.6911 247.564L73.6911 247.501C73.7758 246.315 74.1146 243.14 75.0887 239.266C75.9569 235.836 77.1215 232.766 78.5615 230.141C79.472 228.511 80.4249 227.114 81.4837 225.928C84.8083 222.096 89.0222 220.17 94.0196 220.17C104.184 220.17 111.532 231.962 114.306 243.648C115.534 248.792 115.873 253.852 115.238 257.896C114.539 262.447 112.675 265.475 109.88 266.703C108.525 267.295 107.021 267.592 105.454 267.592ZM82.2672 233.486C82.4578 233.486 82.6272 233.507 82.7966 233.528C87.0317 234.037 90.4621 240.515 90.4621 247.967C90.4621 252.794 91.8385 257.133 94.4431 260.5C96.0948 262.617 98.1912 264.268 100.499 265.284C103.527 266.597 106.767 266.703 109.372 265.58C114.115 263.506 115.619 254.635 113.078 243.987C111.659 237.995 109.139 232.47 106.005 228.426C102.469 223.875 98.3394 221.482 94.0196 221.482C89.4245 221.482 85.5282 223.282 82.4578 226.817C81.4625 227.961 80.552 229.252 79.705 230.819C78.6462 232.766 77.7356 234.947 76.9945 237.36C77.3545 236.768 77.7145 236.238 78.0956 235.773C79.5991 233.931 81.1237 233.486 82.2672 233.486Z" fill="rgb(63,177,181)" fill-rule="nonzero" />
		</g>
		<path id="Vector" d="M107.36 267.168C107.043 267.168 106.767 266.935 106.725 266.597C103.633 237.572 96.5819 228.596 91.2245 226.182C86.4388 224.023 82.3943 226.839 82.3519 226.86C82.0766 227.072 81.6743 226.987 81.4625 226.712C81.2508 226.436 81.3355 226.034 81.6108 225.823C81.8013 225.696 86.2906 222.562 91.7327 225.018C95.3325 226.648 98.4665 230.332 101.029 236.005C104.247 243.098 106.577 253.344 107.974 266.449C108.017 266.787 107.763 267.105 107.403 267.147C107.403 267.168 107.381 267.168 107.36 267.168Z" fill="rgb(63,177,181)" fill-rule="nonzero" />
		<path id="Vector" d="M26.1518 210.325C26.1518 213.819 25.7495 227.177 38.4972 227.791C51.2449 228.405 52.5154 209.161 52.5154 209.161C52.5154 209.161 46.2474 192.14 39.323 190.404C27.6129 187.461 26.1518 210.325 26.1518 210.325Z" fill="rgb(63,177,181)" fill-rule="nonzero" />
		<path id="Vector" d="M89.8267 247.945L74.3262 247.945C77.9048 225.526 89.8267 233.952 89.8267 247.945Z" fill="rgb(63,177,181)" fill-rule="nonzero" />
	</g>
	<g id="LIGHT">
		<path id="Vector" d="M353.06 83.2818L353.06 223.028C353.06 230.543 346.962 236.619 339.466 236.619L179.484 236.619C169.447 250.443 148.758 250.507 138.637 236.619L138.615 236.598C134.592 236.323 131.035 234.269 128.748 231.242L132.432 228.066L226.452 146.941L315.982 69.6904L339.466 69.6904C346.962 69.6904 353.06 75.7875 353.06 83.2818Z" opacity="0.400000006" fill="rgb(255,255,255)" fill-rule="nonzero" />
		<path id="Vector" d="M109.626 266.766C106.81 268.036 103.4 267.845 100.245 266.469L100.245 284.295L67.2749 284.295L93.9561 261.283L100.266 255.842L105.073 251.692L114.369 243.796C117.08 255.355 115.576 264.035 109.626 266.766Z" opacity="0.400000006" fill="rgb(255,255,255)" fill-rule="nonzero" />
	</g>
	<g id="GIRL">
		<g id="GIRL 1">
			<g id="LEGS">
				<g id="RIGHT LEG">
					<path id="Vector" d="M390.392 360.826L390.392 478.661L363.16 478.661L345.817 430.244L320.979 360.826L390.392 360.826Z" fill="rgb(160,80,90)" fill-rule="nonzero" />
					<path id="Vector" d="M320.979 360.826L390.392 360.826L390.392 398.658L329.237 383.881L320.979 360.826Z" fill="rgb(115,50,90)" fill-rule="nonzero" />
					<g id="Group">
						<path id="Vector" d="M391.028 479.295L362.716 479.295L344.653 428.867L346.136 429.672C346.178 429.693 349.693 431.577 356.85 432.508C363.457 433.376 374.638 433.567 390.244 429.608L391.028 429.418L391.028 479.295ZM363.605 478.025L389.757 478.025L389.757 431.048C374.299 434.88 363.203 434.647 356.575 433.779C351.768 433.144 348.592 432.106 346.919 431.429L363.605 478.025Z" fill="rgb(255,255,255)" fill-rule="nonzero" />
						<path id="Vector" d="M359.985 442.247C357.931 442.247 356.258 440.574 356.258 438.521C356.258 436.467 357.931 434.795 359.985 434.795C362.039 434.795 363.712 436.467 363.712 438.521C363.712 440.574 362.039 442.247 359.985 442.247ZM359.985 436.065C358.629 436.065 357.528 437.166 357.528 438.521C357.528 439.876 358.629 440.977 359.985 440.977C361.34 440.977 362.441 439.876 362.441 438.521C362.441 437.166 361.34 436.065 359.985 436.065Z" fill="rgb(255,255,255)" fill-rule="nonzero" />
						<path id="Vector" d="M374.723 452.219C372.669 452.219 370.996 450.546 370.996 448.493C370.996 446.439 372.669 444.767 374.723 444.767C376.777 444.767 378.45 446.439 378.45 448.493C378.45 450.546 376.777 452.219 374.723 452.219ZM374.723 446.037C373.368 446.037 372.267 447.138 372.267 448.493C372.267 449.848 373.368 450.948 374.723 450.948C376.078 450.948 377.179 449.848 377.179 448.493C377.179 447.138 376.078 446.037 374.723 446.037Z" fill="rgb(255,255,255)" fill-rule="nonzero" />
						<path id="Vector" d="M385.691 441.146C383.637 441.146 381.964 439.474 381.964 437.42C381.964 435.367 383.637 433.694 385.691 433.694C387.745 433.694 389.418 435.367 389.418 437.42C389.418 439.474 387.745 441.146 385.691 441.146ZM385.691 434.965C384.336 434.965 383.235 436.065 383.235 437.42C383.235 438.775 384.336 439.876 385.691 439.876C387.047 439.876 388.148 438.775 388.148 437.42C388.148 436.065 387.047 434.965 385.691 434.965Z" fill="rgb(255,255,255)" fill-rule="nonzero" />
						<path id="Vector" d="M381.35 463.819C379.296 463.819 377.624 462.147 377.624 460.093C377.624 458.04 379.296 456.367 381.35 456.367C383.405 456.367 385.077 458.04 385.077 460.093C385.077 462.147 383.405 463.819 381.35 463.819ZM381.35 457.637C379.995 457.637 378.894 458.738 378.894 460.093C378.894 461.448 379.995 462.549 381.35 462.549C382.706 462.549 383.807 461.448 383.807 460.093C383.807 458.738 382.706 457.637 381.35 457.637Z" fill="rgb(255,255,255)" fill-rule="nonzero" />
						<path id="Vector" d="M363.077 458.188C361.023 458.188 359.35 456.516 359.35 454.462C359.35 452.409 361.023 450.736 363.077 450.736C365.131 450.736 366.803 452.409 366.803 454.462C366.803 456.516 365.131 458.188 363.077 458.188ZM363.077 452.007C361.721 452.007 360.62 453.107 360.62 454.462C360.62 455.817 361.721 456.918 363.077 456.918C364.432 456.918 365.533 455.817 365.533 454.462C365.533 453.107 364.432 452.007 363.077 452.007Z" fill="rgb(255,255,255)" fill-rule="nonzero" />
						<path id="Vector" d="M368.116 475.125C366.062 475.125 364.389 473.452 364.389 471.399C364.389 469.345 366.062 467.673 368.116 467.673C370.17 467.673 371.842 469.345 371.842 471.399C371.842 473.452 370.17 475.125 368.116 475.125ZM368.116 468.943C366.76 468.943 365.659 470.044 365.659 471.399C365.659 472.754 366.76 473.855 368.116 473.855C369.471 473.855 370.572 472.754 370.572 471.399C370.572 470.044 369.471 468.943 368.116 468.943Z" fill="rgb(255,255,255)" fill-rule="nonzero" />
					</g>
					<g id="Group">
						<path id="Vector" d="M403.267 500.636L384.59 539.399C381.943 545.644 375.823 549.709 369.026 549.709L345.203 549.709C339.105 549.709 335.399 543.527 337.728 537.896L361.678 480.143C363.012 476.629 365.363 473.707 368.306 471.653C371.271 469.6 374.828 468.436 378.576 468.436C383.785 468.436 388.952 471.971 392.383 475.888L400.683 484.843C404.516 489.204 405.511 495.322 403.267 500.636Z" fill="rgb(102,176,240)" fill-rule="nonzero" />
						<g id="Group">
							<path id="Vector" d="M403.267 500.635L384.59 539.398C381.943 545.644 375.824 549.708 369.026 549.708L343.7 549.708C341.35 549.708 340.016 548.248 339.232 546.236L344.865 546.236C351.662 546.236 357.782 542.172 360.429 535.926L381.965 491.024C383.976 486.832 388.233 484.144 392.891 484.144C398.969 484.144 403.585 488.589 404.432 494.221C404.517 496.38 404.135 498.561 403.267 500.635Z" fill="rgb(255,255,255)" fill-rule="nonzero" />
							<path id="Vector" d="M369.026 550.344L343.7 550.344C341.349 550.344 339.634 549.031 338.639 546.47C338.554 546.279 338.596 546.046 338.702 545.877C338.829 545.707 339.02 545.602 339.232 545.602L344.864 545.602C351.408 545.602 357.294 541.706 359.836 535.673C359.836 535.673 359.836 535.651 359.857 535.651L381.392 490.749C383.51 486.346 388.02 483.509 392.891 483.509C399.01 483.509 404.135 487.976 405.067 494.136C405.067 494.158 405.067 494.179 405.067 494.2C405.151 496.486 404.749 498.751 403.86 500.89C403.86 500.89 403.86 500.911 403.838 500.911L385.162 539.653C382.409 546.152 376.077 550.344 369.026 550.344ZM340.227 546.872C341.032 548.375 342.154 549.074 343.7 549.074L369.026 549.074C375.569 549.074 381.456 545.178 383.997 539.145C383.997 539.145 383.997 539.123 384.018 539.123L402.695 500.382C403.5 498.434 403.881 496.38 403.796 494.285C402.949 488.78 398.375 484.779 392.891 484.779C388.507 484.779 384.442 487.341 382.536 491.299L361 536.181C358.247 542.68 351.916 546.872 344.864 546.872L340.227 546.872Z" fill="rgb(102,176,240)" fill-rule="nonzero" />
						</g>
						<g id="Group">
							<path id="Vector" d="M398.969 482.979C396.724 481.751 394.013 480.862 391.642 480.862C387.089 480.862 382.875 483.508 380.906 487.615L358.608 534.106C355.77 540.817 349.206 545.157 341.9 545.157L337.792 545.157C337.581 544.754 337.432 544.331 337.284 543.886L341.9 543.886C348.698 543.886 354.796 539.843 357.443 533.598L357.464 533.576L379.784 487.065C381.965 482.513 386.623 479.592 391.663 479.592C393.272 479.592 395.199 480.121 396.851 480.693L398.969 482.979Z" fill="rgb(255,255,255)" fill-rule="nonzero" />
						</g>
					</g>
				</g>
				<g id="LEFT LEG">
					<path id="Vector" d="M320.979 360.826L315.664 430.244L313.292 461.343C313.292 461.343 297.813 478.576 280.194 467.948L272.042 430.265L253.386 344.038C248.346 320.729 264.27 298.056 287.924 294.901L320.979 360.826Z" fill="rgb(160,80,90)" fill-rule="nonzero" />
					<g id="Group">
						<path id="Vector" d="M292.117 472.881C288.326 472.881 284.155 471.928 279.877 469.345L279.644 469.197L271.216 429.354L272.233 429.672C292.286 435.684 315.283 429.714 315.515 429.651L316.384 429.418L313.927 462.465L313.779 462.634C313.61 462.804 309.756 467.059 303.636 470.065C300.566 471.547 296.585 472.881 292.117 472.881ZM280.766 468.393C287.797 472.542 295.293 472.711 303.043 468.922C308.295 466.339 311.937 462.698 312.678 461.915L314.965 431.069C313.038 431.514 308.041 432.594 301.582 433.186C294.149 433.885 283.244 434.054 272.868 431.175L280.766 468.393Z" fill="rgb(255,255,255)" fill-rule="nonzero" />
						<path id="Vector" d="M291.332 450.081C289.278 450.081 287.605 448.408 287.605 446.355C287.605 444.301 289.278 442.629 291.332 442.629C293.386 442.629 295.059 444.301 295.059 446.355C295.059 448.408 293.386 450.081 291.332 450.081ZM291.332 443.899C289.977 443.899 288.876 445 288.876 446.355C288.876 447.71 289.977 448.811 291.332 448.811C292.688 448.811 293.789 447.71 293.789 446.355C293.789 445 292.688 443.899 291.332 443.899Z" fill="rgb(255,255,255)" fill-rule="nonzero" />
						<path id="Vector" d="M310.984 445.339C308.93 445.339 307.257 443.666 307.257 441.613C307.257 439.559 308.93 437.887 310.984 437.887C313.038 437.887 314.711 439.559 314.711 441.613C314.711 443.666 313.038 445.339 310.984 445.339ZM310.984 439.157C309.629 439.157 308.527 440.258 308.527 441.613C308.527 442.968 309.629 444.068 310.984 444.068C312.339 444.068 313.44 442.968 313.44 441.613C313.44 440.258 312.339 439.157 310.984 439.157Z" fill="rgb(255,255,255)" fill-rule="nonzero" />
						<path id="Vector" d="M279.474 441.146C277.42 441.146 275.748 439.474 275.748 437.42C275.748 435.367 277.42 433.694 279.474 433.694C281.529 433.694 283.201 435.367 283.201 437.42C283.201 439.474 281.529 441.146 279.474 441.146ZM279.474 434.965C278.119 434.965 277.018 436.065 277.018 437.42C277.018 438.775 278.119 439.876 279.474 439.876C280.83 439.876 281.931 438.775 281.931 437.42C281.931 436.065 280.83 434.965 279.474 434.965Z" fill="rgb(255,255,255)" fill-rule="nonzero" />
						<path id="Vector" d="M288.242 466.911C286.188 466.911 284.515 465.238 284.515 463.185C284.515 461.131 286.188 459.459 288.242 459.459C290.296 459.459 291.968 461.131 291.968 463.185C291.968 465.238 290.296 466.911 288.242 466.911ZM288.242 460.729C286.886 460.729 285.785 461.83 285.785 463.185C285.785 464.54 286.886 465.641 288.242 465.641C289.597 465.641 290.698 464.54 290.698 463.185C290.698 461.83 289.597 460.729 288.242 460.729Z" fill="rgb(255,255,255)" fill-rule="nonzero" />
						<path id="Vector" d="M302.661 460.729C300.607 460.729 298.935 459.057 298.935 457.003C298.935 454.95 300.607 453.277 302.661 453.277C304.715 453.277 306.388 454.95 306.388 457.003C306.388 459.057 304.715 460.729 302.661 460.729ZM302.661 454.548C301.306 454.548 300.205 455.648 300.205 457.003C300.205 458.358 301.306 459.459 302.661 459.459C304.017 459.459 305.118 458.358 305.118 457.003C305.118 455.648 304.017 454.548 302.661 454.548Z" fill="rgb(255,255,255)" fill-rule="nonzero" />
					</g>
					<g id="Group">
						<path id="Vector" d="M333.705 468.753L313.292 550.365L306.854 550.365C306.558 550.365 306.283 550.344 305.986 550.323C301.116 549.878 297.008 545.771 295.97 540.923L280.173 467.906C297.791 478.555 313.292 461.322 313.292 461.322L333.705 468.753Z" fill="rgb(102,176,240)" fill-rule="nonzero" />
						<g id="Group">
							<path id="Vector" d="M334.743 510.629C339.041 487.934 340.227 470.595 332.816 469.198C325.404 467.801 312.212 482.853 307.913 505.548C303.615 528.242 305.859 548.312 313.271 549.709C320.682 551.128 330.444 533.344 334.743 510.629Z" fill="rgb(255,255,255)" fill-rule="nonzero" />
							<path id="Vector" d="M314.118 550.429C313.8 550.429 313.462 550.408 313.144 550.344C309.29 549.625 306.601 544.417 305.563 535.694C304.568 527.29 305.182 516.535 307.278 505.442C309.269 494.963 313.313 485.203 318.671 477.963C323.583 471.336 328.92 467.822 332.922 468.584C336.776 469.304 338.682 473.665 338.788 481.922C338.872 488.654 337.75 498.075 335.357 510.756C333.663 519.69 331.101 528.094 327.946 535.059C324.833 541.94 321.424 546.766 318.099 549.032C316.744 549.942 315.41 550.429 314.118 550.429ZM331.821 469.749C328.433 469.749 323.88 473.093 319.708 478.725C314.457 485.817 310.497 495.386 308.528 505.675C306.452 516.662 305.838 527.269 306.812 535.546C307.765 543.549 310.158 548.481 313.377 549.095C314.605 549.328 315.96 548.947 317.4 547.973C323.901 543.549 330.783 528.158 334.108 510.523C336.501 497.948 337.602 488.59 337.517 481.943C337.432 474.491 335.802 470.426 332.689 469.833C332.414 469.77 332.117 469.749 331.821 469.749Z" fill="rgb(102,176,240)" fill-rule="nonzero" />
						</g>
						<g id="Group">
							<path id="Vector" d="M304.949 505.188C302.725 516.958 302.069 528.327 303.128 537.218C303.89 543.612 305.499 548.164 307.702 550.365L306.855 550.365C306.558 550.365 306.283 550.344 305.986 550.323C303.996 547.698 302.577 543.294 301.857 537.367C300.777 528.369 301.434 516.852 303.7 504.955C305.838 493.692 310.158 483.128 315.897 475.189C319.327 470.447 322.927 467.123 326.209 465.62L328.115 466.255C320.555 468.499 309.078 483.403 304.949 505.188Z" fill="rgb(255,255,255)" fill-rule="nonzero" />
						</g>
					</g>
				</g>
			</g>
			<g id="SKIRT">
				<path id="Vector" d="M287.924 294.881L384.527 284.931L481.087 312.008L480.261 324.837C478.949 345.076 461.5 360.827 441.214 360.827L321 360.827L287.924 294.881Z" fill="rgb(254,82,68)" fill-rule="nonzero" />
				<g id="Group">
					<path id="Vector" d="M436.957 352.571L316.744 352.571C316.384 352.571 316.108 352.295 316.108 351.935C316.108 351.576 316.384 351.3 316.744 351.3L436.957 351.3C446.147 351.3 455.782 346.452 463.406 337.963C470.626 329.918 474.946 319.862 474.946 311.077C474.946 310.717 475.222 310.441 475.582 310.441C475.942 310.441 476.217 310.717 476.217 311.077C476.217 320.18 471.77 330.553 464.358 338.831C456.481 347.553 446.507 352.571 436.957 352.571Z" fill="rgb(255,255,255)" fill-rule="nonzero" />
					<path id="Vector" d="M427.492 341.985L311.874 341.985C311.514 341.985 311.238 341.71 311.238 341.35C311.238 340.99 311.514 340.715 311.874 340.715L427.492 340.715C435.518 340.715 443.818 336.946 450.828 330.087C457.413 323.651 462.029 315.352 463.491 307.308C463.554 306.969 463.893 306.736 464.232 306.8C464.571 306.863 464.803 307.202 464.74 307.54C461.754 323.821 445.724 341.985 427.492 341.985Z" fill="rgb(255,255,255)" fill-rule="nonzero" />
					<path id="Vector" d="M417.306 331.188L305.732 331.188C305.372 331.188 305.097 330.913 305.097 330.553C305.097 330.193 305.372 329.918 305.732 329.918L417.306 329.918C432.553 329.918 445.788 316.2 450.51 303.307C450.637 302.968 450.997 302.799 451.314 302.926C451.653 303.053 451.823 303.413 451.696 303.73C449.07 310.907 444.326 317.661 438.313 322.741C431.769 328.267 424.506 331.188 417.306 331.188Z" fill="rgb(255,255,255)" fill-rule="nonzero" />
					<path id="Vector" d="M411.801 319.544L300.227 319.544C299.867 319.544 299.592 319.269 299.592 318.909C299.592 318.549 299.867 318.274 300.227 318.274L411.801 318.274C422.304 318.274 433.315 311.436 440.557 300.449C440.748 300.152 441.15 300.067 441.447 300.258C441.743 300.449 441.828 300.851 441.637 301.147C434.141 312.494 422.728 319.544 411.801 319.544Z" fill="rgb(255,255,255)" fill-rule="nonzero" />
					<path id="Vector" d="M406.507 308.96L294.933 308.96C294.573 308.96 294.298 308.684 294.298 308.324C294.298 307.965 294.573 307.689 294.933 307.689L406.507 307.689C414.596 307.689 422.749 303.963 429.462 297.21C429.716 296.956 430.118 296.956 430.351 297.21C430.605 297.464 430.605 297.866 430.351 298.099C423.405 305.107 414.935 308.96 406.507 308.96Z" fill="rgb(255,255,255)" fill-rule="nonzero" />
					<path id="Vector" d="M400.79 298.163L289.216 298.163C288.856 298.163 288.581 297.888 288.581 297.528C288.581 297.168 288.856 296.893 289.216 296.893L400.79 296.893C405.554 296.893 410.34 295.538 415.041 292.891C415.337 292.722 415.74 292.828 415.909 293.124C416.079 293.421 415.973 293.823 415.676 293.992C410.785 296.766 405.766 298.163 400.79 298.163Z" fill="rgb(255,255,255)" fill-rule="nonzero" />
					<path id="Vector" d="M320.768 361.462C320.535 361.462 320.302 361.335 320.196 361.102L287.141 295.156C286.992 294.838 287.12 294.457 287.416 294.309C287.734 294.161 288.115 294.288 288.263 294.584L321.318 360.53C321.466 360.848 321.339 361.229 321.043 361.377C320.958 361.441 320.873 361.462 320.768 361.462Z" fill="rgb(255,255,255)" fill-rule="nonzero" />
				</g>
			</g>
			<g id="HANDS">
				<g id="RIGHT HAND">
					<g id="Group">
						<path id="Vector" d="M486.381 223.643C477.276 226.225 468.318 225.463 467.365 222.69C466.476 220.044 470.499 215.513 478.652 212.507C479.054 212.359 479.478 212.211 479.901 212.062C482.358 211.237 484.814 210.707 487.122 210.432C493.962 209.564 499.531 210.792 500.23 212.867C501.183 215.64 496.016 220.912 486.381 223.643Z" fill="rgb(255,255,255)" fill-rule="nonzero" />
						<path id="Vector" d="M475.539 225.865C470.923 225.865 467.429 224.827 466.751 222.901C465.608 219.514 470.626 214.793 478.419 211.913C478.821 211.765 479.245 211.617 479.668 211.469L479.69 211.469C482.082 210.664 484.56 210.114 487.037 209.818C494.047 208.928 499.976 210.156 500.823 212.676C501.119 213.501 500.971 214.517 500.42 215.576C498.642 218.963 493.2 222.393 486.55 224.277C482.718 225.335 478.843 225.865 475.539 225.865ZM491.463 210.791C490.171 210.791 488.753 210.876 487.207 211.067C484.814 211.363 482.421 211.892 480.113 212.676C479.69 212.824 479.266 212.972 478.885 213.12C475.2 214.475 472.066 216.275 470.076 218.201C468.403 219.81 467.62 221.419 467.979 222.499C468.678 224.552 476.831 225.695 486.212 223.049C491.4 221.588 497.456 218.519 499.298 214.983C499.679 214.242 499.806 213.586 499.637 213.078C499.256 211.956 496.249 210.791 491.463 210.791Z" fill="rgb(63,177,181)" fill-rule="nonzero" />
					</g>
					<path id="Vector" d="M480.621 285.374L477.127 285.374L467.958 223.493L467.958 223.451L467.725 221.906C468.17 219.09 472.574 215.11 480.346 212.527C484.221 211.236 488.075 210.664 491.357 210.601L494.703 219.767L495.02 220.635L505.608 249.66C511.961 266.999 499.107 285.374 480.621 285.374Z" fill="rgb(160,80,90)" fill-rule="nonzero" />
					<path id="Vector" d="M494.914 220.424C492.691 221.821 489.811 223.112 486.381 224.086C478.503 226.309 470.52 225.399 467.958 223.493L467.958 223.451L467.725 221.906C468.17 219.09 472.574 215.11 480.346 212.527C484.221 211.236 488.075 210.664 491.357 210.601L494.914 220.424Z" fill="rgb(115,50,90)" fill-rule="nonzero" />
				</g>
				<g id="LEFT HAND">
					<path id="Vector" d="M367.205 234.46L356.088 262.109C350.604 275.764 337.348 284.719 322.61 284.719L173.174 284.719L173.174 271.043C173.174 267.74 175.207 264.776 178.298 263.612L193.651 257.79C195.048 257.261 196.509 256.985 197.992 256.985L215.419 256.985L314.055 247.035L331.08 208.061L367.205 234.46Z" fill="rgb(160,80,90)" fill-rule="nonzero" />
					<path id="Vector" d="M173.809 276.822C173.449 276.822 173.174 276.547 173.174 276.187C173.174 273.414 174.847 270.979 177.451 269.984L189.034 265.602C189.352 265.475 189.733 265.644 189.86 265.962C189.987 266.279 189.818 266.661 189.5 266.788L177.917 271.17C175.821 271.974 174.444 273.943 174.444 276.187C174.444 276.547 174.169 276.822 173.809 276.822Z" fill="rgb(115,50,90)" fill-rule="nonzero" />
					<path id="Vector" d="M173.809 283.808C173.449 283.808 173.174 283.532 173.174 283.173C173.174 280.399 174.847 277.965 177.451 276.97L189.034 272.587C189.352 272.46 189.733 272.63 189.86 272.947C189.987 273.265 189.818 273.646 189.5 273.773L177.917 278.155C175.821 278.96 174.444 280.928 174.444 283.173C174.444 283.532 174.169 283.808 173.809 283.808Z" fill="rgb(115,50,90)" fill-rule="nonzero" />
					<path id="Vector" d="M177.684 284.719C177.43 284.719 177.176 284.55 177.091 284.296C176.964 283.957 177.133 283.597 177.472 283.491L189.055 279.32C189.394 279.193 189.754 279.363 189.86 279.702C189.987 280.04 189.818 280.4 189.479 280.506L177.896 284.677C177.832 284.698 177.747 284.719 177.684 284.719Z" fill="rgb(115,50,90)" fill-rule="nonzero" />
					<path id="Vector" d="M188.06 260.139C188.06 260.139 198.902 232.47 202.375 232.936C205.848 233.401 192.761 258.361 192.761 258.361L188.06 260.139Z" fill="rgb(254,82,68)" fill-rule="nonzero" />
					<path id="Vector" d="M331.079 208.082L328.581 213.777L360.577 250.931L367.205 234.46L331.079 208.082Z" fill="rgb(115,50,90)" fill-rule="nonzero" />
				</g>
			</g>
			<g id="T SHIRT">
				<path id="Vector" d="M467.958 223.515L481.087 312.008L384.548 284.931L367.205 234.439L322.44 201.731L338.152 183.016C352.17 166.313 372.859 156.659 394.67 156.659L425.692 156.659C452.67 156.659 477.509 171.394 490.447 195.062L500.505 212.464C500.505 212.464 497.477 208.019 481.151 212.486C466.773 216.444 467.958 223.515 467.958 223.515Z" fill="rgb(63,177,181)" fill-rule="nonzero" />
				<path id="Vector" d="M367.205 234.672C367.163 234.672 367.099 234.672 367.057 234.65C366.718 234.566 366.506 234.227 366.591 233.888L371.61 212.125C371.694 211.786 372.033 211.575 372.372 211.659C372.711 211.744 372.922 212.083 372.838 212.421L367.819 234.185C367.756 234.481 367.502 234.672 367.205 234.672Z" fill="rgb(255,255,255)" fill-rule="nonzero" />
				<path id="Vector" d="M478.652 291.98C478.355 291.98 478.08 291.769 478.017 291.451L461.69 189.981C461.627 189.642 461.86 189.304 462.22 189.261C462.558 189.198 462.897 189.431 462.939 189.791L479.266 291.26C479.329 291.599 479.096 291.938 478.737 291.98C478.715 291.98 478.694 291.98 478.652 291.98Z" fill="rgb(255,255,255)" fill-rule="nonzero" />
				<path id="Vector" d="M480.876 312.642C480.812 312.642 480.77 312.642 480.706 312.621L384.357 285.141C384.019 285.036 383.828 284.697 383.913 284.358C384.018 284.019 384.357 283.829 384.696 283.914L481.045 311.393C481.384 311.499 481.574 311.837 481.49 312.176C481.405 312.451 481.151 312.642 480.876 312.642Z" fill="rgb(255,255,255)" fill-rule="nonzero" />
			</g>
			<g id="HEAD">
				<path id="NECK" d="M389.736 142.517L389.736 156.744L414.85 156.532L414.85 131.424L389.736 142.517Z" fill="rgb(160,80,90)" fill-rule="nonzero" />
				<g id="HEAD 1">
					<path id="Vector" d="M416.883 127.041L416.883 127.422C416.883 131.233 414.003 134.324 410.192 134.324L408.709 134.324C407.756 138.092 399.286 142.496 393.272 142.496L386.263 142.496C378.598 142.496 372.732 135.615 373.981 128.036L374.32 125.983L372.245 124.818C371.059 124.141 370.72 122.596 371.546 121.495L376.035 115.567L377.01 109.724C377.793 104.918 380.948 101.002 385.141 99.0752C386.793 117.684 403.225 119.886 407.566 120.14L409.98 120.14C413.792 120.14 416.883 123.231 416.883 127.041Z" fill="rgb(160,80,90)" fill-rule="nonzero" />
					<path id="Vector" d="M405.766 129.497C405.406 129.497 405.131 129.222 405.131 128.862C405.131 125.517 407.863 122.786 411.208 122.786C411.568 122.786 411.844 123.061 411.844 123.421C411.844 123.781 411.568 124.056 411.208 124.056C408.561 124.056 406.401 126.216 406.401 128.862C406.401 129.222 406.126 129.497 405.766 129.497Z" fill="rgb(115,50,90)" fill-rule="nonzero" />
					<path id="Vector" d="M382.811 120.33C383.408 120.33 383.891 119.212 383.891 117.832C383.891 116.452 383.408 115.334 382.811 115.334C382.215 115.334 381.731 116.452 381.731 117.832C381.731 119.212 382.215 120.33 382.811 120.33Z" fill="rgb(115,50,90)" fill-rule="evenodd" />
					<path id="Vector" d="M387.216 114.678C387.026 114.678 386.835 114.593 386.708 114.424C383.892 110.529 381.266 110.74 381.223 110.74C380.863 110.783 380.567 110.529 380.525 110.169C380.482 109.83 380.736 109.512 381.096 109.47C381.223 109.449 384.484 109.195 387.724 113.662C387.936 113.937 387.873 114.339 387.576 114.551C387.47 114.636 387.343 114.678 387.216 114.678Z" fill="rgb(115,50,90)" fill-rule="nonzero" />
				</g>
				<g id="HAIR">
					<path id="Vector" d="M407.566 120.14L409.98 120.14C413.792 120.14 416.883 123.231 416.883 127.042L416.883 127.423C416.883 131.233 414.003 134.324 410.192 134.324L408.561 135.467C401.7 139.871 392.214 157.188 394.543 169.446C397.169 183.228 409.175 186.298 420.271 184.181C431.367 182.064 439.457 175.607 436.831 161.803C436.534 160.173 436.047 158.543 435.433 156.934C435.624 156.998 435.793 157.061 435.984 157.125C449.324 160.766 464.994 161.19 469.314 150.774C473.634 140.358 472.66 130.048 459.679 124.671C452.141 121.537 441.892 121.559 433.951 123.718C437.953 109.809 430.838 94.3334 417.773 92.7879C397.254 90.3533 385.48 98.8215 385.162 99.0544C385.141 101.51 386.814 118.933 407.566 120.14Z" fill="rgb(115,50,90)" fill-rule="nonzero" />
					<path id="Vector" d="M435.984 157.781C435.687 157.781 435.412 157.57 435.369 157.273C433.125 145.524 423.511 139.045 423.405 138.982C423.236 138.876 423.13 138.664 423.13 138.453C423.13 138.241 423.236 138.05 423.405 137.923C429.97 133.287 432.807 126.597 433.908 123.041C434.014 122.702 434.374 122.511 434.692 122.617C435.031 122.723 435.221 123.083 435.115 123.4C434.014 126.999 431.219 133.605 424.845 138.431C427.238 140.231 434.628 146.54 436.619 157.019C436.682 157.358 436.449 157.697 436.111 157.76C436.068 157.781 436.026 157.781 435.984 157.781Z" fill="rgb(255,255,255)" fill-rule="nonzero" />
					<g id="Group">
						<g id="Group">
							<path id="Vector" d="M440.24 123.4L434.628 123.4C434.268 123.4 433.993 123.125 433.993 122.765L433.993 117.155C433.993 113.874 436.661 111.206 439.944 111.206L440.24 111.206C443.522 111.206 446.19 113.874 446.19 117.155L446.19 117.451C446.212 119.018 445.597 120.521 444.475 121.643C443.353 122.765 441.849 123.4 440.24 123.4ZM435.264 122.13L440.24 122.13C441.511 122.13 442.675 121.643 443.565 120.733C444.433 119.844 444.92 118.679 444.92 117.451L444.92 117.155C444.92 114.572 442.823 112.476 440.24 112.476L439.944 112.476C437.36 112.476 435.264 114.572 435.264 117.155L435.264 122.13Z" fill="rgb(254,82,68)" fill-rule="nonzero" />
							<path id="Vector" d="M443.374 131.995C441.108 131.995 438.927 130.894 437.635 128.862L434.035 123.146C433.845 122.85 433.93 122.447 434.226 122.278L439.943 118.679C441.468 117.726 443.289 117.409 445.047 117.811C446.804 118.213 448.308 119.272 449.282 120.796L449.621 121.325C450.595 122.85 450.891 124.67 450.489 126.427C450.087 128.185 449.028 129.688 447.503 130.662L446.974 131C445.873 131.657 444.623 131.995 443.374 131.995ZM435.454 122.998L438.715 128.185C440.325 130.725 443.734 131.487 446.317 129.878L446.847 129.54C448.096 128.756 448.943 127.55 449.261 126.11C449.578 124.67 449.324 123.21 448.541 121.961L448.202 121.431C447.418 120.182 446.211 119.335 444.771 119.018C443.331 118.7 441.87 118.954 440.621 119.738L435.454 122.998Z" fill="rgb(254,82,68)" fill-rule="nonzero" />
						</g>
						<g id="Group">
							<path id="Vector" d="M408.688 148.931C408.54 148.931 408.391 148.931 408.243 148.91C406.655 148.783 405.215 148.063 404.177 146.857L403.987 146.624C402.949 145.438 402.441 143.914 402.547 142.347C402.653 140.76 403.373 139.299 404.58 138.261L408.561 134.451C408.688 134.324 408.857 134.26 409.027 134.281C409.196 134.281 409.365 134.366 409.471 134.493L413.389 138.918C414.426 140.124 414.956 141.67 414.829 143.258C414.702 144.845 413.982 146.285 412.775 147.322L412.521 147.513C411.483 148.423 410.128 148.931 408.688 148.931ZM408.984 135.806L405.469 139.172L405.448 139.193C404.495 140.019 403.923 141.162 403.839 142.432C403.754 143.681 404.156 144.867 404.961 145.798C404.961 145.798 404.961 145.819 404.982 145.819L405.173 146.052C405.977 146.984 407.1 147.555 408.349 147.661C409.598 147.746 410.805 147.344 411.758 146.539L412.012 146.327C412.944 145.523 413.516 144.401 413.622 143.152C413.706 141.903 413.304 140.696 412.499 139.743L408.984 135.806Z" fill="rgb(254,82,68)" fill-rule="nonzero" />
							<path id="Vector" d="M416.798 146.603C413.834 146.603 411.102 144.634 410.255 141.649L408.455 135.15C408.37 134.811 408.561 134.472 408.9 134.366L415.401 132.567C417.137 132.08 418.958 132.313 420.525 133.181C422.092 134.07 423.236 135.51 423.723 137.245L423.892 137.859C424.379 139.595 424.146 141.416 423.278 142.983C422.389 144.549 420.949 145.692 419.212 146.179L418.598 146.349C417.984 146.539 417.391 146.603 416.798 146.603ZM411.483 141.31C412.309 144.211 415.337 145.947 418.238 145.142L418.852 144.973C420.271 144.57 421.436 143.66 422.156 142.39C422.876 141.12 423.045 139.638 422.664 138.219L422.494 137.605C422.092 136.187 421.182 135.023 419.911 134.303C418.641 133.583 417.158 133.414 415.739 133.795L409.853 135.425L411.483 141.31Z" fill="rgb(254,82,68)" fill-rule="nonzero" />
						</g>
					</g>
				</g>
			</g>
		</g>
		<g id="CHAIR">
			<path id="Vector" d="M316.193 550.344C316.151 550.344 316.108 550.344 316.066 550.323C315.727 550.26 315.494 549.921 315.579 549.561L352.467 376.958C352.53 376.62 352.869 376.387 353.229 376.472C353.568 376.535 353.801 376.874 353.716 377.234L316.807 549.836C316.744 550.133 316.49 550.344 316.193 550.344Z" fill="rgb(255,207,45)" fill-rule="nonzero" />
			<path id="Vector" d="M484.369 550.344C484.073 550.344 483.818 550.132 483.755 549.836L446.867 377.233C446.804 376.895 447.015 376.556 447.354 376.471C447.693 376.408 448.032 376.619 448.117 376.958L485.004 549.56C485.068 549.899 484.856 550.238 484.517 550.323C484.454 550.344 484.411 550.344 484.369 550.344Z" fill="rgb(255,207,45)" fill-rule="nonzero" />
			<path id="Vector" d="M475.688 512.025L324.367 512.025C324.007 512.025 323.732 511.75 323.732 511.39C323.732 511.03 324.007 510.755 324.367 510.755L475.688 510.755C476.048 510.755 476.323 511.03 476.323 511.39C476.323 511.75 476.048 512.025 475.688 512.025Z" fill="rgb(255,207,45)" fill-rule="nonzero" />
			<g id="Group">
				<path id="Vector" d="M476.513 377.106L324.028 377.106C322.101 377.106 320.534 375.54 320.534 373.613L320.534 364.319C320.534 362.393 322.101 360.826 324.028 360.826L476.513 360.826C478.44 360.826 480.007 362.393 480.007 364.319L480.007 373.613C480.007 375.54 478.44 377.106 476.513 377.106Z" fill="rgb(255,255,255)" fill-rule="nonzero" />
				<path id="Vector" d="M476.513 377.742L324.028 377.742C321.741 377.742 319.898 375.9 319.898 373.614L319.898 364.32C319.898 362.033 321.741 360.191 324.028 360.191L476.513 360.191C478.8 360.191 480.642 362.033 480.642 364.32L480.642 373.614C480.642 375.9 478.8 377.742 476.513 377.742ZM324.028 361.462C322.461 361.462 321.169 362.753 321.169 364.32L321.169 373.614C321.169 375.18 322.461 376.472 324.028 376.472L476.513 376.472C478.08 376.472 479.372 375.18 479.372 373.614L479.372 364.32C479.372 362.753 478.08 361.462 476.513 361.462L324.028 361.462Z" fill="rgb(102,176,240)" fill-rule="nonzero" />
			</g>
		</g>
	</g>
</svg>
