<svg viewBox="0 0 130 22" xmlns="http://www.w3.org/2000/svg" xmlns:xlink="http://www.w3.org/1999/xlink" width="130.000000" height="22.000000" fill="none">
	<rect id="logo" width="130.000000" height="21.999998" x="0.000000" y="0.000000" />
	<path id="Vector" d="M0 11.1008C0 5.00078 3.3 1.30078 8.7 1.30078C12.8 1.30078 16.1 3.80078 16.7 7.50078C16.8 7.90078 16.5 8.20078 16.1 8.20078L13.5 8.20078C13.2 8.20078 13 8.00078 12.9 7.70078C12.4 5.80078 10.8 4.60078 8.7 4.60078C5.8 4.60078 4 7.10078 4 11.1008C4 15.1008 5.8 17.6008 8.8 17.6008C10.9 17.6008 12.4 16.5008 13 14.7008C13.1 14.4008 13.3 14.2008 13.6 14.2008L16.2 14.2008C16.6 14.2008 16.9 14.6008 16.8 14.9008C16.2 18.5008 13 20.9008 8.8 20.9008C3.3 20.9008 0 17.1008 0 11.1008ZM79.0001 19.7014L79.0001 5.50143C79.0001 5.20143 78.8001 5.00143 78.5001 5.00143L74.1001 5.00143C73.7001 5.00143 73.3001 4.70143 73.3001 4.20143L73.3001 2.50143C73.3001 2.10143 73.6001 1.70143 74.1001 1.70143L87.7001 1.70143C88.1001 1.70143 88.5001 2.00143 88.5001 2.50143L88.5001 4.20143C88.5001 4.60143 88.2001 5.00143 87.7001 5.00143L83.3001 5.00143C83.0001 5.00143 82.8001 5.20143 82.8001 5.50143L82.8001 19.8014C82.8001 20.2014 82.5001 20.5014 82.1001 20.5014L79.6001 20.5014C79.3001 20.4014 79.0001 20.1014 79.0001 19.7014ZM21.3997 20.401L24.2997 20.401C24.5997 20.401 24.8997 20.201 24.7997 20.001L24.7997 14.101C24.7997 13.801 24.9997 13.601 25.2997 13.601L27.5997 13.601C27.8997 13.601 28.1997 13.701 28.2997 14.001L31.1997 20.001C31.2997 20.201 31.4997 20.301 31.6997 20.301L34.9997 20.301C35.2997 20.301 35.5997 19.901 35.3997 19.601L32.2997 13.701C32.0997 13.401 32.1997 12.901 32.5997 12.701C34.2997 11.701 35.2997 9.80104 35.2997 7.70104C35.2997 4.10104 32.7997 1.80104 28.6997 1.80104L21.6997 1.80104C21.2997 1.80104 20.8997 2.20104 20.8997 2.60104L20.8997 19.901C20.8997 20.201 21.0997 20.401 21.3997 20.401ZM51.4998 20.401L40.4998 20.401C40.0998 20.401 39.7998 20.101 39.7998 19.701L39.7998 2.50104C39.7998 2.10104 40.0998 1.80104 40.4998 1.80104L51.4998 1.80104C51.8998 1.80104 52.1998 2.10104 52.1998 2.50104L52.1998 4.40104C52.1998 4.80104 51.8998 5.10104 51.4998 5.10104L44.1998 5.10104C43.8998 5.10104 43.6998 5.30104 43.6998 5.60104L43.6998 9.00104C43.6998 9.30104 43.8998 9.50104 44.1998 9.50104L50.9998 9.50104C51.3998 9.50104 51.6998 9.80104 51.6998 10.201L51.6998 11.901C51.6998 12.301 51.3998 12.601 50.9998 12.601L44.1998 12.601C43.8998 12.601 43.6998 12.801 43.6998 13.101L43.6998 16.901C43.6998 17.201 43.8998 17.401 44.1998 17.401L51.4998 17.401C51.8998 17.401 52.1998 17.701 52.1998 18.101L52.1998 20.001C52.1998 20.101 51.8998 20.401 51.4998 20.401ZM61.2999 15.901L66.9999 15.901C67.1999 15.901 67.4999 16.101 67.4999 16.301L68.5999 20.001C68.6999 20.201 68.8999 20.401 69.1999 20.401L72.0999 20.401C72.4999 20.401 72.7999 20.001 72.6999 19.601L66.6999 2.20104C66.5999 2.00104 66.3999 1.80104 66.0999 1.80104L62.3999 1.80104C62.0999 1.80104 61.8999 2.00104 61.7999 2.20104L55.7999 19.601C55.6999 20.001 55.9999 20.401 56.3999 20.401L58.9999 20.401C59.2999 20.401 59.4999 20.301 59.5999 20.001L60.6999 16.301C60.7999 16.101 60.9999 15.901 61.2999 15.901ZM92.7999 20.401L103.8 20.401C104.2 20.401 104.5 20.101 104.5 20.001L104.5 18.101C104.5 17.701 104.2 17.401 103.8 17.401L96.4999 17.401C96.1999 17.401 95.9999 17.201 95.9999 16.901L95.9999 13.101C95.9999 12.801 96.1999 12.601 96.4999 12.601L103.3 12.601C103.7 12.601 104 12.301 104 11.901L104 10.201C104 9.80104 103.7 9.50104 103.3 9.50104L96.4999 9.50104C96.1999 9.50104 95.9999 9.30104 95.9999 9.00104L95.9999 5.60104C95.9999 5.30104 96.1999 5.10104 96.4999 5.10104L103.8 5.10104C104.2 5.10104 104.5 4.80104 104.5 4.40104L104.5 2.50104C104.5 2.10104 104.2 1.80104 103.8 1.80104L92.7999 1.80104C92.3999 1.80104 92.0999 2.10104 92.0999 2.50104L92.0999 19.701C92.0999 20.101 92.3999 20.401 92.7999 20.401ZM25.3997 10.701C25.0997 10.701 24.8997 10.501 24.8997 10.201L24.9997 10.201L24.9997 5.40104C24.9997 5.10104 25.1997 4.90104 25.4997 4.90104L28.3997 4.90104C30.2997 4.90104 31.4997 6.00104 31.4997 7.80104C31.4997 9.60104 30.3997 10.701 28.3997 10.701L25.3997 10.701ZM66.1999 13.001L62.0999 13.001C61.8999 13.001 61.7999 12.801 61.8999 12.601L64.0999 5.60104L64.2999 5.60104L66.4999 12.601C66.4999 12.801 66.3999 13.001 66.1999 13.001Z" fill="rgb(255,255,255)" fill-rule="evenodd" />
	<path id="Vector" d="M117.7 9.7L111.5 1.6C111.1 1.2 110.6 1 110.1 1C109.6 1 109.1 1.2 108.7 1.6C108 2.4 108 3.6 108.7 4.4L113.6 11L108.7 17.6C108 18.4 108 19.6 108.7 20.4C109.1 20.8 109.6 21 110.1 21C110.6 21 111.1 20.8 111.5 20.4L117.7 12.3C118.4 11.7 118.4 10.5 117.7 9.7ZM126.543 1.6L120.343 9.7C119.643 10.5 119.643 11.7 120.343 12.3L126.543 20.4C126.943 20.8 127.443 21 127.943 21C128.443 21 128.943 20.8 129.343 20.4C130.043 19.6 130.043 18.4 129.343 17.6L124.443 11L129.343 4.4C130.043 3.6 130.043 2.4 129.343 1.6C128.943 1.2 128.443 1 127.943 1C127.443 1 126.943 1.2 126.543 1.6Z" fill="rgb(255,63,58)" fill-rule="evenodd" />
</svg>
