<svg viewBox="0 0 495 554" xmlns="http://www.w3.org/2000/svg" xmlns:xlink="http://www.w3.org/1999/xlink" width="495.000000" height="554.000000" fill="none" customFrame="#000000">
	<rect id="illustration" width="495.000000" height="554.000000" x="0.000000" y="0.000000" fill="rgb(255,255,255)" fill-opacity="0" transform="matrix(-1,0,0,1,495,0)" />
	<g id="LEGS">
		<g id="LEFT LEG">
			<path id="Vector" d="M63.7886 5.77212L60.5455 14.6419L45.5578 55.547C39.935 59.5297 32.8346 62.0887 24.8706 62.0887C23.9303 62.0887 22.7981 61.8578 21.8385 61.8001C13.5099 61.2229 5.52681 57.5672 0 52.9111L4.47131 3.57868L4.79758 0C28.9582 9.38931 57.1296 7.8116 63.7886 5.77212Z" fill="rgb(229,114,129)" fill-rule="nonzero" transform="matrix(-1,0,0,1,221.748,423.27)" />
			<path id="Vector" d="M59.2981 5.77213L52.9461 23.0885C33.5639 25.7245 5.1622 9.83183 0 3.57869L0.326226 0C24.4677 9.38933 52.6391 7.81162 59.2981 5.77213Z" fill="rgb(154,59,130)" fill-rule="nonzero" transform="matrix(-1,0,0,1,217.257,423.27)" />
			<g id="Group">
				<g id="Group">
					<path id="Vector" d="M48.7995 2.32806L44.213 50.4868C43.3878 63.1855 33.6776 72.9019 22.1634 72.9019C21.6453 72.9019 21.1271 72.8826 20.5898 72.8441C8.38478 71.9206 -0.807372 60.3956 0.0561913 47.1197L2.83878 4.55997L3.12664 0C5.58299 2.30885 8.44234 4.29057 11.6087 5.8298C15.5811 7.75384 20.0141 9.0045 24.7541 9.37007C25.7136 9.44703 26.6539 9.48548 27.5943 9.48548C30.3193 9.48548 32.9867 9.17766 35.5198 8.60045C35.5966 8.58121 35.6925 8.56196 35.7693 8.54272C40.5093 7.42678 44.8463 5.36805 48.4541 2.57819C48.5884 2.50123 48.7036 2.42426 48.7995 2.32806Z" fill="rgb(255,255,255)" fill-rule="nonzero" transform="matrix(-1,0,0,1,224.683,476.43)" />
					<path id="Vector" d="M22.6444 74.441C22.1071 74.441 21.5889 74.4218 21.0324 74.3833C8.57788 73.4405 -0.825351 61.6654 0.0574043 48.1394L2.84 5.57971L3.18539 0L3.93384 0.692625C6.39021 3.00147 9.21116 4.94478 12.3008 6.44553C16.3692 8.40805 20.7254 9.5817 25.2735 9.94727C26.233 10.0242 27.1542 10.0627 28.0753 10.0627C30.7236 10.0627 33.3526 9.77408 35.8858 9.19686C35.9241 9.19686 35.9625 9.17763 36.0201 9.15839C36.0585 9.15839 36.0969 9.13918 36.1353 9.13918C40.7601 8.06172 45.0779 6.02222 48.6473 3.25161L48.7049 3.21313C48.8201 3.13617 48.8968 3.09766 48.9544 3.03994L49.8947 2.09718L45.1739 51.5834C44.7709 57.8173 42.2377 63.5894 38.0159 67.8416C33.8132 72.0937 28.3631 74.441 22.6444 74.441ZM4.0298 2.09718L3.79952 5.65665L1.01692 48.2164C0.172546 61.2229 9.192 72.5362 21.1092 73.4213C21.6465 73.4597 22.1455 73.479 22.6444 73.479C28.0945 73.479 33.3142 71.2471 37.3442 67.1681C41.3934 63.0699 43.8305 57.5095 44.2144 51.5065L48.7049 4.40603C45.1355 7.04196 40.8753 9.00446 36.3655 10.0627C36.3271 10.0627 36.2888 10.082 36.2312 10.1012C36.1928 10.1012 36.1544 10.1204 36.116 10.1204C33.487 10.7169 30.8003 11.0247 28.0753 11.0247C27.1158 11.0247 26.1755 10.9862 25.1968 10.9093C20.5335 10.5437 16.0429 9.3508 11.8786 7.33056C9.01927 5.92601 6.37102 4.17514 4.0298 2.09718Z" fill="rgb(255,207,45)" fill-rule="nonzero" transform="matrix(-1,0,0,1,225.164,475.371)" />
				</g>
				<path id="Vector" d="M19.2196 60.6841C18.7591 60.6841 18.3177 60.6649 17.8571 60.6264C7.30245 59.8183 -0.699919 49.8326 0.0485034 38.3461L2.60082 0L3.56034 0.0577305L1.00802 38.4038C0.297977 49.3515 7.89733 58.8756 17.9339 59.6452C18.3752 59.6837 18.7975 59.7029 19.2196 59.7029C28.738 59.7029 36.7212 51.5834 37.3929 41.1936L40.636 2.65518L41.5955 2.73212L38.3524 41.2706C38.007 46.5617 35.8576 51.468 32.2882 55.066C28.7188 58.7024 24.0748 60.6841 19.2196 60.6841Z" fill="rgb(255,207,45)" fill-rule="nonzero" transform="matrix(-1,0,0,1,221.394,478.971)" />
				<path id="Vector" d="M25.5488 14.2019C23.0157 14.7214 20.1563 14.8176 17.4313 14.8176C16.491 14.8176 15.5506 14.7791 14.5911 14.7214C9.85111 14.3943 5.39896 13.2399 1.44575 11.4698L0.179221 5.2359C-0.626772 2.58072 1.38822 -0.0936819 4.17082 0.00252006L22.5935 0.541261C24.9347 0.598982 26.7194 2.63846 26.5083 4.96655L25.5488 14.2019Z" fill="rgb(255,207,45)" fill-rule="nonzero" transform="matrix(-1,0,0,1,214.5,470.348)" />
				<path id="Vector" d="M25.474 2.55898L23.152 31.8236C22.749 37.4995 17.3757 41.6939 12.3095 40.7703L11.9065 40.7319C4.69094 39.4043 -0.835868 31.8621 0.104457 23.7811L1.56289 0C5.53528 1.77011 9.96824 2.92452 14.7083 3.2516C15.6678 3.32857 16.6081 3.34781 17.5484 3.34781C20.2734 3.36705 22.9409 3.07847 25.474 2.55898Z" fill="rgb(255,207,45)" fill-rule="nonzero" transform="matrix(-1,0,0,1,214.618,481.799)" />
				<path id="Vector" d="M23.0132 34.782C22.9748 34.782 22.9364 34.782 22.898 34.7628L1.88468 29.9526C0.502983 29.6448 -0.0535444 28.4712 0.00402641 27.4706C0.0615973 26.4509 0.733294 25.335 2.15338 25.1618L22.2456 22.7952C23.3011 22.6605 23.7424 21.8524 23.8 21.1982C23.8575 20.5441 23.5697 19.659 22.5718 19.3512L3.32395 13.2327C1.76954 12.7325 0.829246 11.3664 0.906007 9.73094C1.00196 8.0955 2.0958 6.84488 3.6886 6.51779L18.8489 3.88186C18.1389 3.88186 17.4096 3.86263 16.6612 3.84339C9.88703 3.63175 4.85918 2.65048 1.69278 0.899598C1.4625 0.764915 1.38574 0.476327 1.50088 0.245442C1.63521 0.0145571 1.92309 -0.0624047 2.15338 0.0530379C9.38811 4.05505 25.6231 2.68895 25.7958 2.66971C26.0453 2.65047 26.2755 2.82362 26.3139 3.09299C26.3523 3.34311 26.1796 3.59325 25.9109 3.63173L3.86129 7.4606C2.4604 7.74921 1.9039 8.88437 1.86552 9.78867C1.80795 10.6737 2.2493 11.8859 3.61181 12.3284L22.8597 18.4469C24.2989 18.9086 24.8555 20.217 24.7403 21.2945C24.6444 22.3912 23.8576 23.5841 22.3415 23.7572L2.24933 26.1238C1.32819 26.2393 0.982759 26.9511 0.944378 27.5283C0.925188 28.1055 1.19383 28.8367 2.07659 29.0291L23.0899 33.8392C23.3394 33.8969 23.5122 34.147 23.4546 34.4164C23.4354 34.6281 23.2243 34.782 23.0132 34.782Z" fill="rgb(255,255,255)" fill-rule="nonzero" transform="matrix(-1,0,0,1,214.978,481.766)" />
			</g>
			<path id="Vector" d="M108.387 42.7714L68.7397 150.999C62.0806 153.038 30.6661 155.732 0 141.475L24.1222 29.5917C26.3675 12.6602 40.7602 1.31085e-05 57.8204 1.31085e-05L75.5522 1.31085e-05C97.8322 -0.0192273 114.106 21.1452 108.387 42.7714Z" fill="rgb(254,82,68)" fill-rule="nonzero" transform="matrix(-1,0,0,1,226.699,278.043)" />
			<path id="Vector" d="M54.7639 12.4626C51.847 12.4626 48.6614 12.3664 45.2647 12.1355C33.9232 11.3659 16.9206 8.82611 0.340191 1.1107C0.0523359 0.976014 -0.0819962 0.629686 0.0523359 0.341079C0.186668 0.0524727 0.532094 -0.0822104 0.819948 0.0524727C31.3901 14.2712 65.4337 11.6929 71.8433 9.74963C72.1503 9.65343 72.4766 9.8266 72.5533 10.1344C72.6493 10.4423 72.4766 10.7694 72.1695 10.8464C69.7707 11.5968 63.4763 12.4626 54.7639 12.4626Z" fill="rgb(255,255,255)" fill-rule="nonzero" transform="matrix(-1,0,0,1,225.37,407.189)" />
		</g>
		<g id="RIGHT LEG">
			<path id="Vector" d="M76.8188 2.42426L72.8272 9.52399L47.285 54.3348C37.4403 58.2406 25.8302 59.6837 15.429 57.4903L14.1241 57.1247C8.98108 56.0472 3.72292 53.1612 0 49.9288L18.6338 0C18.6338 0 18.653 0 18.6722 0C25.1009 2.13568 47.2082 8.13866 76.8188 2.42426Z" fill="rgb(229,114,129)" fill-rule="nonzero" transform="matrix(-1,0,0,1,181.909,428.752)" />
			<path id="Vector" d="M59.2405 2.40505L50.8159 17.2779C18.3843 22.4728 0 2.90532 0 2.90532L1.07463 0C7.52257 2.11644 29.6298 8.11944 59.2405 2.40505Z" fill="rgb(154,59,130)" fill-rule="nonzero" transform="matrix(-1,0,0,1,164.33,428.771)" />
			<path id="Vector" d="M112.82 58.1637L68.5862 149.286C31.1459 158.675 6.39038 151.075 0 148.959L46.2871 24.8394C49.4535 17.3164 54.7116 11.1017 61.2171 6.77263C67.7226 2.44354 75.4756 0 83.6123 0C114.432 0 127.712 31.0925 112.82 58.1637Z" fill="rgb(254,82,68)" fill-rule="nonzero" transform="matrix(-1,0,0,1,163.256,279.812)" />
			<path id="Vector" d="M34.1872 6.06992C30.5986 6.06992 27.0676 5.91603 23.5557 5.62743C15.1888 4.93478 7.18637 3.37628 0.393001 1.12517C0.0859558 1.02896 -0.0675479 0.70187 0.0284036 0.394025C0.124355 0.0861798 0.4506 -0.0677239 0.757645 0.0284776C7.45506 2.24111 15.3807 3.78036 23.6517 4.47301C38.409 5.70439 53.934 4.31909 69.7852 0.336341C70.0922 0.25938 70.3993 0.451774 70.4761 0.759619C70.5528 1.06746 70.3609 1.37528 70.0538 1.45224C57.8488 4.53069 45.8165 6.06992 34.1872 6.06992Z" fill="rgb(255,255,255)" fill-rule="nonzero" transform="matrix(-1,0,0,1,159.619,418.373)" />
			<path id="Vector" d="M196.036 0L0 0L0 1.15178L196.036 1.15178L196.036 0Z" fill="rgb(255,255,255)" fill-rule="evenodd" transform="matrix(-0.347003,-0.937895,-0.937304,0.348598,185.539,488.281)" />
			<g id="Group">
				<g id="Group">
					<path id="Vector" d="M67.4752 4.27136L65.9783 8.21564L49.0141 52.7187C44.1589 67.9763 28.1926 77.0386 14.1645 73.556L13.3968 73.3059C3.55221 70.8624 -2.70385 58.9718 1.15341 48.4666L20.5356 0.981279L20.9387 0C23.3758 2.19341 26.216 4.00202 29.3824 5.31037C31.0711 6.00302 32.8558 6.56097 34.7173 6.96501L36.0222 7.33061C41.5298 8.48503 47.2102 8.69667 52.8138 8.0425C57.8416 7.4268 62.7928 6.15692 67.4752 4.27136Z" fill="rgb(255,255,255)" fill-rule="nonzero" transform="matrix(-1,0,0,1,202.482,478.951)" />
					<path id="Vector" d="M20.836 75.5956C18.7059 75.5956 16.5949 75.3455 14.5223 74.826L14.484 74.826L13.7356 74.5759C9.01475 73.4022 4.86961 70.0159 2.37486 65.302C-0.31178 60.2417 -0.733958 54.3349 1.18507 49.1208L20.5673 1.61618L21.2198 0L21.7187 0.461751C24.1559 2.65516 26.9577 4.4253 30.0281 5.67592C31.7169 6.36858 33.4824 6.90731 35.2863 7.31136L35.3055 7.31136L36.5912 7.67691C41.9645 8.79285 47.5681 9.043 53.2101 8.36958C58.2187 7.75389 63.1123 6.50328 67.7563 4.63696L68.7734 4.23289L66.8928 9.19693L49.9285 53.6808C47.5681 61.1076 42.521 67.3799 35.7276 71.382C31.026 74.1718 25.883 75.5956 20.836 75.5956ZM14.7718 73.9025C21.4884 75.5571 28.7616 74.3834 35.2671 70.5546C41.8494 66.6873 46.7429 60.5688 49.0458 53.3729L49.0458 53.3537L66.01 8.85059L67.123 5.92606C62.7093 7.59997 58.0844 8.75439 53.3444 9.3316C47.5873 10.005 41.8877 9.7549 36.3993 8.61972L36.3609 8.61972L35.0752 8.25412C33.2137 7.85007 31.4098 7.29211 29.6827 6.58021C26.7274 5.34883 24.0024 3.69416 21.6036 1.63544L21.4501 2.00098L2.06785 49.4863C0.244768 54.4504 0.666954 60.0493 3.21927 64.8787C5.59887 69.3617 9.51366 72.5748 13.985 73.6715L14.0234 73.6715L14.7718 73.9025Z" fill="rgb(255,207,45)" fill-rule="nonzero" transform="matrix(-1,0,0,1,202.956,478.143)" />
				</g>
				<path id="Vector" d="M17.5385 62.6228C15.7538 62.6228 13.9692 62.4112 12.2228 61.9687L12.1845 61.9494L11.5703 61.7378C7.57876 60.7373 4.08614 57.8897 1.9944 53.9262C-0.250867 49.674 -0.615492 44.71 0.977303 40.3039L17.4042 0.303111C17.5002 0.0529851 17.788 -0.0624387 18.0375 0.0337635C18.287 0.129966 18.4021 0.418534 18.3062 0.66866L1.87924 40.6503C0.363204 44.787 0.708629 49.4624 2.83875 53.4836C4.81535 57.2163 8.07771 59.8907 11.8198 60.8335L11.8582 60.8527L12.4723 61.0644C18.0759 62.4497 24.14 61.4684 29.5709 58.2745C35.0785 55.0421 39.166 49.9434 41.0659 43.9211L41.0659 43.9019L55.9384 4.49753C56.0343 4.24741 56.303 4.13197 56.5524 4.20893C56.8019 4.30513 56.917 4.57449 56.8403 4.82461L41.9678 44.2098C39.972 50.4437 35.7501 55.7155 30.0506 59.0826C26.0782 61.4107 21.7796 62.6228 17.5385 62.6228Z" fill="rgb(255,207,45)" fill-rule="nonzero" transform="matrix(-1,0,0,1,196.895,480.629)" />
				<path id="Vector" d="M26.924 9.89989L23.4314 15.8259C17.847 16.4801 12.1667 16.2685 6.63987 15.114L5.33492 14.7484C3.47346 14.3636 1.68875 13.8057 0 13.0938L1.38169 3.47364C1.70793 1.1648 3.934 -0.393683 6.21765 0.087325L24.2566 3.87766C26.9816 4.43563 28.3441 7.51409 26.924 9.89989Z" fill="rgb(255,207,45)" fill-rule="nonzero" transform="matrix(-1,0,0,1,173.12,471.129)" />
				<path id="Vector" d="M34.0232 2.73213L33.9272 2.88606L24.9078 26.7827C22.4322 34.5366 14.3339 39.135 7.19506 37.3649L6.81125 37.2302C1.80257 35.9796 -1.38305 29.9381 0.593551 24.6085L10.5534 0.365549L10.6109 0C12.2997 0.692655 14.0844 1.2506 15.9458 1.65465L17.2508 2.02025C22.7584 3.19391 28.4388 3.38631 34.0232 2.73213Z" fill="rgb(255,207,45)" fill-rule="nonzero" transform="matrix(-1,0,0,1,183.711,484.223)" />
				<path id="Vector" d="M21.4981 32.1418C21.3829 32.1418 21.2678 32.1418 21.1527 32.1226L0.427114 29.8715C0.15845 29.8522 -0.0334911 29.6021 0.00488957 29.3327C0.0432702 29.0634 0.273563 28.871 0.542228 28.9094L21.2678 31.1606C22.4 31.276 23.0333 30.5256 23.2444 29.8329C23.4555 29.1595 23.3404 28.1783 22.3425 27.6396L6.20337 19.0007C4.82167 18.2695 4.51462 16.8457 4.80247 15.7683C5.09033 14.6908 6.08825 13.6133 7.66186 13.6903L28.042 14.6139C29.2702 14.6716 29.9418 13.825 30.1529 13.0746C30.364 12.3243 30.2105 11.2468 29.1166 10.6696L10.8283 0.895479C10.598 0.780037 10.502 0.491422 10.6171 0.260538C10.7323 0.0296538 11.0202 -0.0665198 11.2504 0.0489223C11.2696 0.0681627 13.63 1.16482 17.6408 2.03064C21.3446 2.83874 27.236 3.60837 34.3556 2.72331C34.6242 2.68483 34.8545 2.87723 34.8929 3.14659C34.9313 3.41595 34.7394 3.64685 34.4707 3.68533C27.1976 4.58963 21.1718 3.80078 17.3913 2.97345C16.95 2.87724 16.547 2.78104 16.144 2.68484L29.5388 9.84224C31.0357 10.6311 31.3619 12.1896 31.0548 13.3632C30.7286 14.5369 29.654 15.6913 27.9652 15.5951L7.58507 14.6716C6.49122 14.6331 5.87717 15.3835 5.70445 16.0376C5.53174 16.6918 5.66603 17.6538 6.62555 18.1733L22.7646 26.8122C24.1655 27.5626 24.4726 29.0248 24.1272 30.1215C23.8393 31.1605 22.8989 32.1418 21.4981 32.1418Z" fill="rgb(255,255,255)" fill-rule="nonzero" transform="matrix(-1,0,0,1,184.178,483.693)" />
			</g>
		</g>
	</g>
	<g id="TIMER">
		<path id="Vector" d="M141.509 283.757C219.663 283.757 283.019 220.236 283.019 141.879C283.019 63.5212 219.663 0 141.509 0C63.3559 0 0 63.5212 0 141.879C0 220.236 63.3559 283.757 141.509 283.757Z" fill="rgb(208,240,228)" fill-rule="evenodd" transform="matrix(-1,0,0,1,373.85,0)" />
		<path id="Vector" d="M102.265 142.533C87.5654 137.607 73.7484 130.411 61.2171 121.176C48.8202 112.037 37.9392 101.108 28.843 88.6597C19.6509 76.0572 12.5121 62.2042 7.61854 47.4468C2.5523 32.1892 0 16.2389 0 0L1.34332 0C1.34332 16.085 3.87645 31.9005 8.90431 47.0235C13.7595 61.6462 20.8215 75.3838 29.9369 87.8708C38.9371 100.204 49.7221 111.055 62.0231 120.098C74.4584 129.257 88.1411 136.376 102.707 141.263L102.265 142.533Z" fill="rgb(255,207,45)" fill-rule="nonzero" transform="matrix(-1,0,0,1,382.217,141.879)" />
		<g id="Group">
			<path id="Vector" d="M92.3629 185.208C90.4631 185.208 88.5633 185.15 86.6826 185.035C86.1453 184.996 85.7423 184.554 85.7807 184.015C85.8191 183.476 86.2604 183.072 86.7978 183.111C88.64 183.226 90.5207 183.284 92.3629 183.284L92.4973 183.284C93.0346 183.284 93.4568 183.707 93.4568 184.246C93.4568 184.785 93.0346 185.208 92.4973 185.208L92.3629 185.208ZM99.2139 184.958C98.715 184.958 98.2928 184.573 98.2544 184.073C98.216 183.534 98.619 183.072 99.1371 183.034C101.018 182.899 102.937 182.688 104.798 182.437C105.316 182.36 105.815 182.726 105.873 183.265C105.95 183.784 105.585 184.284 105.048 184.342C103.129 184.612 101.191 184.804 99.2523 184.958C99.2523 184.958 99.2331 184.958 99.2139 184.958ZM80.062 184.381C80.0236 184.381 79.9852 184.381 79.9277 184.381C78.0086 184.131 76.0896 183.803 74.1897 183.419C73.6716 183.322 73.3262 182.803 73.4413 182.283C73.5565 181.764 74.0554 181.418 74.5735 181.533C76.435 181.899 78.3157 182.226 80.1963 182.476C80.7144 182.553 81.0983 183.034 81.0215 183.553C80.9447 184.034 80.5226 184.381 80.062 184.381ZM111.553 183.188C111.112 183.188 110.709 182.88 110.613 182.418C110.498 181.899 110.824 181.379 111.342 181.283C113.184 180.879 115.046 180.417 116.869 179.917C117.387 179.782 117.905 180.071 118.059 180.59C118.193 181.11 117.905 181.629 117.387 181.783C115.526 182.303 113.626 182.784 111.745 183.188C111.688 183.188 111.611 183.188 111.553 183.188ZM67.8378 181.879C67.761 181.879 67.665 181.86 67.5883 181.841C65.7268 181.321 63.8653 180.744 62.0423 180.109C61.5433 179.936 61.2747 179.378 61.4474 178.878C61.6201 178.378 62.1766 178.108 62.6755 178.281C64.4603 178.897 66.2833 179.474 68.1064 179.994C68.6245 180.129 68.9124 180.667 68.7781 181.187C68.6437 181.591 68.26 181.879 67.8378 181.879ZM123.547 179.744C123.163 179.744 122.78 179.494 122.645 179.109C122.473 178.609 122.722 178.051 123.221 177.877C125.006 177.223 126.771 176.511 128.498 175.761C128.978 175.549 129.554 175.78 129.765 176.261C129.976 176.742 129.746 177.319 129.266 177.531C127.5 178.301 125.677 179.032 123.873 179.686C123.758 179.725 123.643 179.744 123.547 179.744ZM56.0741 177.704C55.9398 177.704 55.8246 177.685 55.6903 177.627C53.9248 176.858 52.1401 176.011 50.413 175.145C49.9332 174.895 49.7605 174.318 49.9908 173.856C50.2402 173.375 50.816 173.202 51.2765 173.433C52.9653 174.299 54.6924 175.126 56.4387 175.876C56.9185 176.088 57.1488 176.646 56.9377 177.146C56.8033 177.493 56.4387 177.704 56.0741 177.704ZM134.927 174.684C134.582 174.684 134.255 174.491 134.083 174.164C133.833 173.702 134.006 173.106 134.486 172.856C136.155 171.971 137.825 171.028 139.437 170.027C139.897 169.758 140.473 169.893 140.761 170.354C141.03 170.816 140.895 171.393 140.435 171.682C138.784 172.683 137.096 173.664 135.388 174.568C135.234 174.645 135.081 174.684 134.927 174.684ZM44.9821 171.951C44.8094 171.951 44.6367 171.913 44.4831 171.817C42.8328 170.816 41.1824 169.739 39.6088 168.623C39.1674 168.315 39.0715 167.719 39.3785 167.276C39.6856 166.833 40.2805 166.737 40.7219 167.045C42.2763 168.123 43.8882 169.181 45.5002 170.162C45.9608 170.431 46.0951 171.028 45.8265 171.49C45.6154 171.778 45.3083 171.951 44.9821 171.951ZM145.539 168.123C145.232 168.123 144.944 167.988 144.752 167.719C144.445 167.295 144.541 166.68 144.983 166.372C146.518 165.275 148.034 164.101 149.512 162.908C149.915 162.581 150.529 162.639 150.855 163.043C151.181 163.447 151.124 164.063 150.721 164.39C149.224 165.621 147.669 166.814 146.096 167.93C145.923 168.065 145.731 168.123 145.539 168.123ZM34.792 164.736C34.5809 164.736 34.3699 164.659 34.1971 164.525C32.7003 163.312 31.2226 162.023 29.8026 160.696C29.4188 160.33 29.3804 159.734 29.745 159.33C30.1096 158.945 30.7045 158.906 31.1075 159.272C32.5084 160.561 33.9477 161.812 35.4253 163.005C35.8283 163.332 35.9051 163.947 35.5597 164.351C35.3486 164.621 35.0607 164.736 34.792 164.736ZM155.154 160.157C154.904 160.157 154.636 160.061 154.463 159.849C154.098 159.464 154.117 158.849 154.501 158.483C155.883 157.175 157.226 155.809 158.512 154.423C158.877 154.039 159.471 154.019 159.874 154.385C160.258 154.751 160.277 155.347 159.913 155.751C158.589 157.175 157.207 158.56 155.806 159.888C155.633 160.08 155.384 160.157 155.154 160.157ZM25.6575 156.213C25.408 156.213 25.1393 156.117 24.9666 155.905C23.6425 154.5 22.3567 153.019 21.1285 151.518C20.7831 151.114 20.8407 150.498 21.2629 150.171C21.6659 149.825 22.28 149.883 22.6062 150.306C23.8152 151.768 25.0817 153.211 26.3675 154.597C26.7321 154.981 26.7129 155.597 26.3291 155.963C26.1372 156.136 25.8877 156.213 25.6575 156.213ZM163.617 150.979C163.405 150.979 163.194 150.902 163.022 150.768C162.6 150.441 162.542 149.825 162.868 149.421C164.058 147.939 165.209 146.4 166.303 144.861C166.61 144.418 167.205 144.322 167.647 144.63C168.088 144.938 168.184 145.534 167.877 145.977C166.764 147.555 165.574 149.132 164.365 150.633C164.173 150.845 163.904 150.979 163.617 150.979ZM17.7702 146.535C17.4632 146.535 17.1753 146.4 16.9834 146.131C15.8704 144.553 14.7766 142.918 13.7595 141.263C13.4716 140.82 13.6251 140.224 14.0665 139.935C14.5079 139.647 15.1028 139.801 15.3906 140.243C16.3885 141.859 17.444 143.456 18.5378 144.996C18.8449 145.438 18.7489 146.035 18.3076 146.342C18.154 146.477 17.9621 146.535 17.7702 146.535ZM170.755 140.705C170.583 140.705 170.41 140.667 170.256 140.57C169.796 140.301 169.662 139.704 169.93 139.243C170.909 137.607 171.849 135.933 172.713 134.259C172.962 133.778 173.538 133.605 173.999 133.855C174.478 134.106 174.651 134.683 174.402 135.145C173.519 136.857 172.559 138.589 171.561 140.243C171.408 140.551 171.082 140.705 170.755 140.705ZM11.2647 135.876C10.9193 135.876 10.5931 135.683 10.4203 135.356C9.5184 133.644 8.67403 131.874 7.90642 130.104C7.69533 129.623 7.90642 129.045 8.38618 128.834C8.86594 128.622 9.44164 128.834 9.65274 129.315C10.4203 131.046 11.2455 132.778 12.1283 134.452C12.3778 134.914 12.1858 135.51 11.7253 135.741C11.5718 135.837 11.4182 135.876 11.2647 135.876ZM176.436 129.565C176.301 129.565 176.186 129.546 176.052 129.488C175.572 129.276 175.342 128.718 175.553 128.218C176.301 126.467 176.992 124.678 177.626 122.888C177.798 122.388 178.355 122.119 178.854 122.311C179.353 122.484 179.621 123.042 179.429 123.543C178.777 125.37 178.067 127.198 177.299 128.988C177.165 129.353 176.82 129.565 176.436 129.565ZM6.27525 124.428C5.87225 124.428 5.50762 124.178 5.37329 123.793C4.72082 121.965 4.12593 120.099 3.5886 118.232C3.43508 117.713 3.74211 117.193 4.24105 117.039C4.75919 116.885 5.27734 117.193 5.43087 117.693C5.94901 119.521 6.5439 121.349 7.17718 123.139C7.34989 123.639 7.10042 124.197 6.60147 124.37C6.48633 124.408 6.39039 124.428 6.27525 124.428ZM180.542 117.751C180.466 117.751 180.37 117.732 180.293 117.713C179.775 117.578 179.487 117.039 179.621 116.539C180.12 114.711 180.562 112.845 180.945 110.979C181.061 110.459 181.56 110.132 182.078 110.228C182.596 110.344 182.922 110.844 182.826 111.363C182.442 113.268 181.982 115.173 181.464 117.039C181.348 117.482 180.965 117.751 180.542 117.751ZM2.89773 112.402C2.45635 112.402 2.05338 112.095 1.95743 111.633C1.55443 109.747 1.22818 107.804 0.94033 105.88C0.863569 105.36 1.22818 104.86 1.74631 104.783C2.26445 104.706 2.76341 105.072 2.84018 105.591C3.10884 107.477 3.43507 109.362 3.81888 111.209C3.93402 111.729 3.58859 112.248 3.07045 112.345C3.01288 112.402 2.9553 112.402 2.89773 112.402ZM182.999 105.495C182.96 105.495 182.922 105.495 182.864 105.495C182.346 105.418 181.963 104.937 182.039 104.418C182.289 102.532 182.461 100.627 182.596 98.7225C182.634 98.1837 183.076 97.7989 183.613 97.8182C184.15 97.8567 184.534 98.3184 184.515 98.8379C184.381 100.781 184.189 102.724 183.939 104.649C183.882 105.149 183.479 105.495 182.999 105.495ZM1.18981 100.012C0.690865 100.012 0.268678 99.6268 0.230298 99.1073C0.0959656 97.1832 0.0191903 95.2207 0 93.2774C0 92.7387 0.422187 92.3154 0.959516 92.3154C1.49684 92.3154 1.91903 92.7387 1.91903 93.2774C1.93822 95.1822 2.01498 97.1063 2.13012 98.9918C2.1685 99.5306 1.76551 99.9731 1.24737 100.012C1.22818 100.012 1.209 100.012 1.18981 100.012ZM183.766 93.0273C183.248 93.0273 182.807 92.604 182.807 92.0653C182.788 90.1605 182.73 88.2364 182.596 86.3509C182.557 85.8121 182.96 85.3696 183.479 85.3311C183.997 85.2927 184.457 85.6967 184.496 86.2162C184.63 88.1402 184.707 90.1028 184.707 92.0461C184.726 92.5848 184.304 93.0081 183.766 93.0273ZM1.15142 87.5053C1.13223 87.5053 1.11305 87.5053 1.09386 87.5053C0.556533 87.4668 0.172713 87.0051 0.191903 86.4856C0.326235 84.5423 0.498953 82.599 0.748427 80.675C0.825188 80.1555 1.30494 79.7707 1.82308 79.8476C2.34122 79.9246 2.72503 80.4056 2.64827 80.9251C2.3988 82.8107 2.22608 84.7155 2.09175 86.6203C2.07256 87.1205 1.65037 87.5053 1.15142 87.5053ZM182.845 80.5403C182.366 80.5403 181.963 80.194 181.905 79.713C181.636 77.8274 181.31 75.9418 180.926 74.0755C180.811 73.556 181.157 73.0365 181.675 72.9403C182.193 72.8249 182.711 73.1712 182.807 73.6907C183.191 75.5763 183.536 77.5196 183.805 79.4436C183.882 79.9631 183.517 80.4633 182.999 80.5403C182.941 80.5403 182.903 80.5403 182.845 80.5403ZM2.82099 75.1145C2.76342 75.1145 2.68666 75.1145 2.62909 75.0953C2.11095 74.9798 1.76552 74.4796 1.88066 73.9601C2.26447 72.0553 2.72503 70.1505 3.22398 68.2842C3.35831 67.7647 3.89564 67.4761 4.39459 67.6107C4.91272 67.7454 5.20058 68.2842 5.06625 68.7844C4.5673 70.6122 4.12592 72.4786 3.74211 74.3449C3.66535 74.8067 3.26237 75.1145 2.82099 75.1145ZM180.255 68.3226C179.832 68.3226 179.449 68.0533 179.333 67.63C178.815 65.8021 178.22 63.9743 177.587 62.185C177.414 61.6847 177.664 61.1267 178.163 60.9536C178.662 60.7804 179.218 61.0305 179.391 61.5308C180.043 63.3586 180.638 65.2249 181.176 67.0913C181.329 67.6107 181.022 68.1302 180.523 68.2842C180.427 68.3034 180.331 68.3226 180.255 68.3226ZM6.1409 63.07C6.02576 63.07 5.92982 63.0508 5.81467 63.0123C5.31573 62.8391 5.04707 62.2812 5.21978 61.7809C5.87225 59.9531 6.58229 58.1252 7.33071 56.3359C7.54181 55.8549 8.09832 55.624 8.59727 55.8356C9.09622 56.0473 9.3073 56.6052 9.09621 57.1055C8.34779 58.8564 7.65693 60.6457 7.02365 62.4351C6.90851 62.8199 6.5439 63.07 6.1409 63.07ZM176.014 56.5668C175.649 56.5668 175.284 56.3551 175.131 55.9895C174.363 54.2579 173.538 52.5263 172.674 50.8524C172.425 50.3713 172.617 49.7941 173.077 49.5633C173.538 49.3131 174.133 49.5055 174.363 49.9673C175.246 51.6797 176.09 53.4498 176.877 55.2199C177.088 55.7009 176.877 56.2781 176.378 56.4898C176.282 56.5475 176.148 56.5668 176.014 56.5668ZM11.092 51.5835C10.9385 51.5835 10.785 51.545 10.6506 51.4681C10.1709 51.2179 9.99816 50.6407 10.2476 50.1789C11.1304 48.4666 12.0899 46.7349 13.0878 45.0802C13.3565 44.6185 13.9514 44.4838 14.4119 44.7532C14.8725 45.0225 15.0068 45.619 14.7382 46.0807C13.7595 47.7162 12.8383 49.3901 11.9556 51.0832C11.7829 51.3911 11.4374 51.5835 11.092 51.5835ZM170.218 45.5228C169.892 45.5228 169.585 45.3689 169.393 45.061C168.395 43.4448 167.339 41.8479 166.246 40.2894C165.939 39.8469 166.035 39.2504 166.476 38.9426C166.917 38.6347 167.512 38.7309 167.819 39.1734C168.932 40.7512 170.007 42.3866 171.024 44.0413C171.293 44.503 171.158 45.0802 170.717 45.3688C170.563 45.465 170.391 45.5228 170.218 45.5228ZM17.5591 40.8858C17.3672 40.8858 17.1753 40.8281 17.0026 40.7127C16.5612 40.4048 16.4653 39.8084 16.7723 39.3658C17.8854 37.7881 19.056 36.2104 20.265 34.6904C20.5912 34.2671 21.2053 34.2094 21.6083 34.5365C22.0305 34.8636 22.0881 35.4793 21.7618 35.8833C20.572 37.3648 19.4206 38.9041 18.3267 40.4433C18.154 40.7319 17.8662 40.8858 17.5591 40.8858ZM162.964 35.3446C162.695 35.3446 162.408 35.2292 162.216 34.9983C161.007 33.536 159.759 32.093 158.454 30.7077C158.09 30.3229 158.109 29.7072 158.493 29.3416C158.877 28.976 159.491 28.9953 159.855 29.3801C161.179 30.8039 162.465 32.2661 163.693 33.7669C164.039 34.1709 163.962 34.7866 163.559 35.1137C163.386 35.2869 163.175 35.3446 162.964 35.3446ZM25.4272 31.1694C25.1969 31.1694 24.9666 31.0925 24.7747 30.9193C24.3909 30.5537 24.3717 29.9573 24.7171 29.5532C26.0413 28.1295 27.4038 26.7441 28.8047 25.4166C29.1885 25.051 29.8026 25.0702 30.1672 25.455C30.5318 25.8398 30.5126 26.4555 30.1288 26.8211C28.7471 28.1295 27.4038 29.4955 26.118 30.8808C25.9453 31.054 25.6766 31.1694 25.4272 31.1694ZM154.386 26.2631C154.156 26.2631 153.925 26.1862 153.734 26.013C152.352 24.7239 150.893 23.4733 149.435 22.2611C149.032 21.9341 148.955 21.3184 149.301 20.9143C149.627 20.5103 150.241 20.4333 150.644 20.7796C152.141 22.011 153.618 23.3001 155.039 24.6085C155.422 24.974 155.461 25.5705 155.096 25.9745C154.904 26.1477 154.655 26.2631 154.386 26.2631ZM34.5234 22.6075C34.2547 22.6075 33.9668 22.492 33.7749 22.2611C33.4487 21.8571 33.5063 21.2414 33.9093 20.9143C35.4061 19.6829 36.9605 18.49 38.5342 17.3548C38.9563 17.047 39.5704 17.1432 39.8775 17.5665C40.1845 17.9898 40.0886 18.6055 39.6664 18.9133C38.1312 20.01 36.6151 21.1837 35.1375 22.3958C34.9455 22.5305 34.7345 22.6075 34.5234 22.6075ZM144.676 18.4131C144.484 18.4131 144.292 18.3553 144.119 18.2399C142.565 17.1432 140.953 16.1042 139.341 15.1037C138.88 14.8343 138.746 14.2379 139.015 13.7761C139.283 13.3143 139.878 13.1797 140.339 13.449C141.989 14.4495 143.62 15.527 145.213 16.6429C145.654 16.9508 145.75 17.5472 145.443 17.9898C145.271 18.2591 144.983 18.4131 144.676 18.4131ZM44.6751 15.3731C44.3488 15.3731 44.0418 15.2192 43.8499 14.9113C43.5812 14.4495 43.7155 13.8723 44.1761 13.5837C45.8265 12.564 47.5152 11.602 49.2231 10.6977C49.6837 10.4475 50.2786 10.6207 50.5281 11.1017C50.7775 11.5635 50.6049 12.1599 50.1251 12.4101C48.4555 13.2951 46.786 14.2379 45.174 15.2384C45.0205 15.3154 44.8478 15.3731 44.6751 15.3731ZM133.987 11.9483C133.833 11.9483 133.699 11.9098 133.545 11.8328C131.857 10.967 130.13 10.1397 128.383 9.38931C127.903 9.17767 127.673 8.6197 127.884 8.11945C128.095 7.63844 128.652 7.40755 129.151 7.61919C130.916 8.38881 132.701 9.23538 134.428 10.1204C134.908 10.3706 135.081 10.9478 134.85 11.4096C134.678 11.7559 134.332 11.9483 133.987 11.9483ZM55.7287 9.58171C55.364 9.58171 54.9994 9.37007 54.8459 9.0045C54.6348 8.52349 54.8459 7.94628 55.3449 7.73464C57.1104 6.96502 58.9335 6.23389 60.7374 5.56048C61.2363 5.38732 61.7928 5.63744 61.9655 6.13769C62.1382 6.63794 61.8888 7.19591 61.3898 7.36907C59.6243 8.02324 57.8396 8.73514 56.1125 9.48551C55.9781 9.56247 55.863 9.58171 55.7287 9.58171ZM122.511 7.02274C122.415 7.02274 122.3 7.00351 122.204 6.96502C120.419 6.33009 118.596 5.77212 116.773 5.25263C116.255 5.11794 115.967 4.57921 116.101 4.05972C116.236 3.54023 116.773 3.25162 117.291 3.3863C119.153 3.9058 121.014 4.50225 122.837 5.13719C123.336 5.31035 123.605 5.86832 123.432 6.36857C123.279 6.77261 122.914 7.02274 122.511 7.02274ZM67.454 5.36807C67.0318 5.36807 66.648 5.0987 66.5328 4.67541C66.3793 4.15592 66.6863 3.63643 67.2045 3.48251C69.0659 2.96302 70.9658 2.48201 72.8464 2.07796C73.3645 1.96252 73.8827 2.2896 73.9787 2.80909C74.0938 3.32858 73.7676 3.84808 73.2494 3.94428C71.4072 4.34833 69.5457 4.8101 67.7226 5.32959C67.6267 5.34883 67.5499 5.36807 67.454 5.36807ZM110.479 3.73264C110.421 3.73264 110.344 3.73263 110.287 3.71339C108.425 3.34783 106.545 3.02075 104.664 2.77062C104.146 2.69366 103.762 2.21264 103.839 1.69315C103.916 1.17366 104.395 0.808097 104.913 0.865818C106.832 1.13518 108.751 1.46227 110.651 1.82784C111.169 1.92404 111.515 2.44353 111.4 2.96303C111.323 3.40555 110.939 3.73264 110.479 3.73264ZM79.659 2.80909C79.1792 2.80909 78.7762 2.46277 78.7187 1.98176C78.6419 1.46227 79.0065 0.962022 79.5439 0.904301C81.4629 0.634935 83.4011 0.423289 85.3201 0.288606C85.8574 0.250125 86.318 0.654169 86.3564 1.17366C86.3948 1.71239 85.9918 2.17416 85.4736 2.21265C83.593 2.34733 81.674 2.55897 79.8125 2.82834C79.7549 2.78986 79.6974 2.80909 79.659 2.80909ZM98.12 2.09721C98.1009 2.09721 98.0817 2.09721 98.0625 2.09721C96.1819 1.98177 94.2628 1.92404 92.3629 1.92404L92.0943 1.92404C91.557 1.92404 91.1348 1.50075 91.1348 0.96202C91.1348 0.423289 91.557 0 92.0943 0L92.3629 0C94.3012 0 96.2586 0.0577259 98.1776 0.173168C98.715 0.211649 99.1179 0.654176 99.0796 1.19291C99.0412 1.7124 98.619 2.09721 98.12 2.09721Z" fill="rgb(255,255,255)" fill-rule="nonzero" transform="matrix(-1,0,0,1,324.704,49.2754)" />
		</g>
		<g id="Group">
			<path id="Vector" d="M1.43925 18.1437C0.652462 18.1437 0 17.4895 0 16.7007L0 1.44303C0 0.654173 0.652462 0 1.43925 0C2.22605 0 2.87851 0.654173 2.87851 1.44303L2.87851 16.7007C2.87851 17.4895 2.22605 18.1437 1.43925 18.1437Z" fill="rgb(255,255,255)" fill-rule="nonzero" transform="matrix(-1,0,0,1,233.78,48.8125)" />
			<path id="Vector" d="M1.43925 18.1629C0.652462 18.1629 0 17.5088 0 16.7199L0 1.44303C0 0.654174 0.652462 0 1.43925 0C2.22605 0 2.87851 0.654174 2.87851 1.44303L2.87851 16.7199C2.87851 17.5088 2.22605 18.1629 1.43925 18.1629Z" fill="rgb(255,255,255)" fill-rule="nonzero" transform="matrix(-1,0,0,1,233.78,216.801)" />
		</g>
		<g id="Group">
			<path id="Vector" d="M12.2002 13.6944C11.8356 13.6944 11.471 13.5597 11.1831 13.2711L0.417389 2.45796C-0.13913 1.89998 -0.13913 0.97645 0.417389 0.418479C0.973907 -0.139493 1.89504 -0.139493 2.45155 0.418479L13.2173 11.2316C13.7738 11.7896 13.7738 12.7131 13.2173 13.2711C12.9294 13.5597 12.5648 13.6944 12.2002 13.6944Z" fill="rgb(255,255,255)" fill-rule="nonzero" transform="matrix(-1,0,0,1,298.408,75.6387)" />
			<path id="Vector" d="M12.2003 13.6751C11.8357 13.6751 11.4711 13.5404 11.1832 13.2518L0.41739 2.45798C-0.13913 1.9 -0.13913 0.976449 0.41739 0.418478C0.97391 -0.139493 1.89507 -0.139493 2.45159 0.418478L13.2173 11.2123C13.7739 11.7703 13.7739 12.6938 13.2173 13.2518C12.9295 13.5404 12.5649 13.6751 12.2003 13.6751Z" fill="rgb(255,255,255)" fill-rule="nonzero" transform="matrix(-1,0,0,1,179.927,194.449)" />
		</g>
		<g id="Group">
			<path id="Vector" d="M16.6764 2.88602L1.43927 2.88602C0.65247 2.88602 0 2.23185 0 1.44301C0 0.654164 0.65247 0 1.43927 0L16.6764 0C17.4632 0 18.1156 0.654164 18.1156 1.44301C18.1156 2.23185 17.4632 2.88602 16.6764 2.88602Z" fill="rgb(255,255,255)" fill-rule="nonzero" transform="matrix(-1,0,0,1,325.184,140.436)" />
			<path id="Vector" d="M16.6572 2.88602L1.43928 2.88602C0.652473 2.88602 0 2.23185 0 1.44301C0 0.654164 0.652473 0 1.43928 0L16.6572 0C17.4441 0 18.0965 0.654164 18.0965 1.44301C18.0965 2.23185 17.4441 2.88602 16.6572 2.88602Z" fill="rgb(255,255,255)" fill-rule="nonzero" transform="matrix(-1,0,0,1,157.614,140.436)" />
		</g>
		<g id="Group">
			<path id="Vector" d="M1.43446 13.6751C1.06984 13.6751 0.705243 13.5404 0.417389 13.2518C-0.13913 12.6938 -0.13913 11.7703 0.417389 11.2123L11.1831 0.418478C11.7397 -0.139493 12.6608 -0.139493 13.2173 0.418478C13.7738 0.976449 13.7738 1.9 13.2173 2.45798L2.45155 13.2518C2.1637 13.5404 1.79908 13.6751 1.43446 13.6751Z" fill="rgb(255,255,255)" fill-rule="nonzero" transform="matrix(-1,0,0,1,298.408,194.449)" />
			<path id="Vector" d="M1.43449 13.6944C1.06987 13.6944 0.705245 13.5597 0.41739 13.2711C-0.13913 12.7131 -0.13913 11.7896 0.41739 11.2316L11.1832 0.418479C11.7397 -0.139493 12.6608 -0.139493 13.2173 0.418479C13.7739 0.97645 13.7739 1.89998 13.2173 2.45796L2.45159 13.2711C2.16373 13.5597 1.7991 13.6944 1.43449 13.6944Z" fill="rgb(255,255,255)" fill-rule="nonzero" transform="matrix(-1,0,0,1,179.927,75.6387)" />
		</g>
		<g id="Group">
			<g id="Group">
				<path id="Vector" d="M97.1605 194.463C84.0535 194.463 71.3304 191.884 59.3364 186.805C47.7647 181.899 37.3827 174.876 28.4592 165.929C19.5357 156.982 12.5313 146.573 7.63775 134.971C2.57151 122.965 0 110.209 0 97.0485C0 70.0543 10.4395 45.2726 29.2268 28.1679L36.9605 36.7107C28.9582 44.0028 23.0668 52.0068 18.4995 62.7429C13.913 73.5368 11.495 85.3888 11.495 97.0293C11.495 108.631 13.7594 119.868 18.2308 130.45C22.5486 140.666 28.7279 149.863 36.5959 157.752C44.464 165.641 53.6177 171.836 63.827 176.146C74.3816 180.629 85.5888 182.899 97.1605 182.899C108.732 182.899 119.939 180.629 130.494 176.146C140.684 171.817 149.857 165.621 157.725 157.752C165.593 149.863 171.772 140.686 176.09 130.45C180.562 119.868 182.826 108.631 182.826 97.0293C182.826 85.485 180.485 74.2679 175.86 63.6664C171.408 53.469 165.037 44.2721 156.938 36.3643C148.859 28.4758 139.494 22.2611 129.093 17.9128C118.366 13.4298 108.771 11.5442 97.1989 11.5442L97.1989 0C110.306 0 121.398 2.1934 133.526 7.25362C145.271 12.1599 155.844 19.1634 164.979 28.091C174.152 37.057 181.368 47.466 186.415 59.0295C191.673 71.0932 194.359 83.8688 194.359 97.01C194.359 110.151 191.788 122.908 186.722 134.933C181.828 146.535 174.824 156.944 165.9 165.891C156.977 174.837 146.595 181.86 135.023 186.766C122.991 191.884 110.267 194.463 97.1605 194.463Z" fill="rgb(208,240,228)" fill-rule="nonzero" transform="matrix(-1,0,0,1,329.501,44.8301)" />
				<path id="Vector" d="M98.5998 197.31C85.3009 197.31 72.3858 194.693 60.2192 189.537C48.4939 184.554 37.9392 177.435 28.8814 168.353C19.8236 159.272 12.7232 148.709 7.75289 136.934C2.60989 124.735 0 111.806 0 98.4531C0 84.8116 2.59069 71.7859 7.67612 59.7414C12.7999 47.6584 20.2074 37.1532 29.6874 28.5143C29.9753 28.2641 30.3399 28.1295 30.7237 28.1487C31.1075 28.1679 31.4721 28.3411 31.7216 28.6297L39.4553 37.1724C39.9926 37.7689 39.9542 38.6732 39.3593 39.2119C31.1843 46.658 25.5999 54.5465 21.2629 64.7439C16.7532 75.3454 14.3735 87.005 14.3735 98.4723C14.3735 109.882 16.5996 120.926 20.9942 131.335C25.2545 141.398 31.3186 150.421 39.0523 158.175C46.8052 165.948 55.8055 172.028 65.8228 176.261C76.2048 180.667 87.22 182.899 98.5998 182.899C109.98 182.899 120.995 180.667 131.377 176.261C141.394 172.009 150.414 165.91 158.147 158.175C165.881 150.421 171.964 141.378 176.205 131.335C180.6 120.926 182.826 109.882 182.826 98.4723C182.826 87.1397 180.523 76.0957 175.975 65.6867C171.6 55.6432 165.325 46.6195 157.361 38.8463C149.397 31.0732 140.185 24.9548 129.957 20.6834C119.46 16.2966 110.095 14.4303 98.619 14.4303C97.8322 14.4303 97.1797 13.7761 97.1797 12.9873L97.1797 1.44303C97.1797 0.654173 97.8322 0 98.619 0C111.918 0 123.298 2.27038 135.503 7.36908C147.42 12.3523 158.147 19.452 167.416 28.5143C176.724 37.615 184.054 48.1779 189.159 59.9146C194.513 72.1899 197.219 85.158 197.219 98.4723C197.219 111.806 194.609 124.755 189.466 136.953C184.496 148.709 177.395 159.291 168.337 168.373C159.28 177.454 148.744 184.573 137 189.556C124.833 194.674 111.918 197.31 98.5998 197.31ZM30.5702 31.612C21.8962 39.7891 15.0836 49.621 10.3244 60.8574C5.3733 72.5363 2.87855 85.1772 2.87855 98.4338C2.87855 111.402 5.41168 123.966 10.4012 135.799C15.2179 147.227 22.1264 157.483 30.9156 166.295C39.7048 175.107 49.9524 182.033 61.3322 186.863C73.1535 191.865 85.6847 194.405 98.5998 194.405C111.515 194.405 124.065 191.846 135.906 186.824C147.305 181.995 157.533 175.068 166.322 166.256C175.112 157.444 182.02 147.17 186.837 135.76C191.826 123.908 194.359 111.344 194.359 98.3953C194.359 85.485 191.73 72.9018 186.53 60.992C181.56 49.6017 174.459 39.3466 165.401 30.5153C156.401 21.7224 145.981 14.8151 134.409 9.98577C123.01 5.23339 112.359 3.02075 100.077 2.84759L100.077 11.5058C111.304 11.6597 120.669 13.6222 131.089 17.9705C141.644 22.3766 151.162 28.6874 159.376 36.7107C167.608 44.7532 174.075 54.0847 178.604 64.4745C183.306 75.2492 185.685 86.6779 185.685 98.4146C185.685 110.209 183.383 121.638 178.835 132.393C174.459 142.783 168.165 152.134 160.162 160.157C152.16 168.161 142.853 174.453 132.471 178.859C121.743 183.419 110.344 185.727 98.5806 185.727C86.817 185.727 75.4179 183.419 64.6905 178.859C54.347 174.491 45.0205 168.199 36.9989 160.157C29.0158 152.153 22.7213 142.802 18.3267 132.393C13.7786 121.638 11.4758 110.209 11.4758 98.4146C11.4758 86.5817 13.9322 74.518 18.5954 63.5702C22.9132 53.4113 28.4209 45.4843 36.3465 38.019L30.5702 31.612Z" fill="rgb(255,255,255)" fill-rule="nonzero" transform="matrix(-1,0,0,1,330.94,43.4258)" />
			</g>
		</g>
		<path id="Vector" d="M60.9797 63.3707C60.807 63.3707 60.6343 63.2937 60.5 63.1591L0.184776 1.12804C-0.0646984 0.858676 -0.0647031 0.435383 0.203961 0.185258C0.472626 -0.0648672 0.894818 -0.0648719 1.14429 0.204494L61.4595 62.2355C61.709 62.5049 61.709 62.9282 61.4403 63.1783C61.3252 63.313 61.1525 63.3707 60.9797 63.3707Z" fill="rgb(254,82,68)" fill-rule="nonzero" transform="matrix(-1,0,0,1,280.904,92.2852)" />
		<g id="Group">
			<path id="Vector" d="M4.7784 9.58171C7.41743 9.58171 9.55676 7.43677 9.55676 4.79086C9.55676 2.14494 7.41743 0 4.7784 0C2.13938 0 0 2.14494 0 4.79086C0 7.43677 2.13938 9.58171 4.7784 9.58171Z" fill="rgb(208,240,228)" fill-rule="evenodd" transform="matrix(-1,0,0,1,236.467,137.723)" />
			<path id="Vector" d="M6.21774 12.4677C2.78264 12.4677 0 9.67789 0 6.23387C0 2.78984 2.78264 0 6.21774 0C9.65283 0 12.4354 2.78984 12.4354 6.23387C12.4354 9.67789 9.65283 12.4677 6.21774 12.4677ZM6.21774 2.88604C4.37545 2.88604 2.87857 4.38679 2.87857 6.23387C2.87857 8.08094 4.37545 9.58169 6.21774 9.58169C8.06002 9.58169 9.55686 8.08094 9.55686 6.23387C9.55686 4.38679 8.06002 2.88604 6.21774 2.88604Z" fill="rgb(255,255,255)" fill-rule="nonzero" transform="matrix(-1,0,0,1,237.906,136.279)" />
		</g>
		<path id="Vector" d="M14.3311 17.3645C14.12 17.3645 13.8897 17.3068 13.6978 17.2106C12.9877 16.8643 12.6999 15.9985 13.0453 15.2673L15.9622 9.39902C16.3652 8.5332 16.3652 7.5327 15.9814 6.66688C15.5976 5.80107 14.8492 5.14689 13.9473 4.85829L7.92148 3.03045C7.00035 2.74185 6.02167 2.87653 5.21568 3.39602C4.40969 3.89627 3.87237 4.74284 3.73804 5.68562L2.87447 11.8425C2.75933 12.6314 2.0301 13.1894 1.2433 13.0739C0.456498 12.9585 -0.100048 12.2274 0.0150937 11.4385L0.878657 5.26234C1.14732 3.47298 2.16442 1.91451 3.68046 0.952492C5.19649 -0.00952721 7.03874 -0.259652 8.74667 0.279079L14.7725 2.10692C16.4804 2.62641 17.8813 3.85779 18.6105 5.49322C19.3397 7.12865 19.3205 9.01421 18.5529 10.6304L18.5337 10.6496L15.6168 16.5372C15.3673 17.0759 14.8684 17.3645 14.3311 17.3645Z" fill="rgb(255,255,255)" fill-rule="nonzero" transform="matrix(-1,0,0,1,207.063,28.9277)" />
	</g>
	<g id="TABLE">
		<path id="Vector" d="M331.332 248.49L330.148 248.49L330.148 1.15442L1.18328 1.15442L1.18328 248.49L0 248.49L0 0L331.332 0L331.332 248.49Z" fill="rgb(102,176,240)" fill-rule="nonzero" transform="matrix(-1,0,0,1,354.183,304.73)" />
		<g id="Group">
			<path id="Vector" d="M353.174 57.1247L13.8825 57.1247C6.22133 57.1247 0 52.7187 0 47.2929L0 9.83183C0 4.40604 6.22133 0 13.8825 0L353.174 0C360.836 0 367.057 4.40604 367.057 9.83183L367.057 47.2929C367.057 52.7187 360.836 57.1247 353.174 57.1247Z" fill="rgb(255,255,255)" fill-rule="nonzero" transform="matrix(-1,0,0,1,372.501,256.475)" />
			<path id="Vector" d="M353.989 58.2792L14.6975 58.2792C6.60167 58.2792 0 53.6038 0 47.8701L0 10.4091C0 4.67541 6.60167 0 14.6975 0L353.989 0C362.085 0 368.687 4.67541 368.687 10.4091L368.687 47.8701C368.687 53.6038 362.085 58.2792 353.989 58.2792ZM14.6975 1.15442C7.49819 1.15442 1.63004 5.31035 1.63004 10.4091L1.63004 47.8701C1.63004 52.9688 7.49819 57.1248 14.6975 57.1248L353.989 57.1248C361.189 57.1248 367.057 52.9688 367.057 47.8701L367.057 10.4091C367.057 5.31035 361.189 1.15442 353.989 1.15442L14.6975 1.15442Z" fill="rgb(102,176,240)" fill-rule="nonzero" transform="matrix(-1,0,0,1,373.315,255.896)" />
		</g>
		<path id="Vector" d="M354.812 57.1824L13.8828 57.1824C6.22146 57.1824 0 52.7719 0 47.3406L0 9.84176C0 4.41049 6.22146 0 13.8828 0L354.812 0C362.473 0 368.694 4.41049 368.694 9.84176L368.694 47.3406C368.694 52.7719 362.473 57.1824 354.812 57.1824Z" fill="rgb(102,176,240)" fill-rule="nonzero" transform="matrix(-1,0,0,1,373.315,249.717)" />
	</g>
	<g id="CHARACTER">
		<g id="TEST">
			<path id="Vector" d="M85.877 0L0 0L0 39.541L85.877 39.541L85.877 0Z" fill="rgb(255,255,255)" fill-rule="evenodd" transform="matrix(-1,0,0,1,170.609,255.801)" />
		</g>
		<g id="BLOUSE">
			<g id="Group">
				<path id="Vector" d="M220.996 115.981L132.432 115.981L132.509 105.63L79.16 105.63L63.6351 60.03L47.0163 90.7184L93.9366 130.854L71.5031 161.331L16.0815 125.717C6.04496 119.156 0 107.977 0 95.971C0 89.968 1.51605 84.042 4.43298 78.7894L30.3015 31.8813C41.1633 12.1984 61.812 0 84.2263 0L167.301 0C181.118 0 194.072 6.73412 202.036 18.0475L242.316 74.2679C254.847 91.6805 242.412 115.981 220.996 115.981Z" fill="rgb(255,255,255)" fill-rule="nonzero" transform="matrix(-1,0,0,1,247.885,144.092)" />
				<path id="Vector" d="M72.2323 162.677L16.3501 126.775C6.1217 120.079 0 108.785 0 96.5482C0 90.4298 1.55441 84.3883 4.50972 79.078L30.3783 32.1699C41.3359 12.3138 62.1958 0 84.802 0L167.877 0C181.867 0 195.012 6.83033 203.091 18.2976L243.372 74.4988C246.404 78.7124 248.169 83.6187 248.438 88.6597C248.706 93.3928 247.689 98.1645 245.482 102.474C243.295 106.784 240.013 110.401 236.022 112.96C231.761 115.692 226.772 117.135 221.571 117.135L132.452 117.135L132.528 106.784L79.3519 106.784L79.2176 106.399L64.1148 62.0502L48.3404 91.1802L95.3183 131.354L72.2323 162.677ZM84.8212 1.15442C62.618 1.15442 42.1419 13.2566 31.3953 32.7471L5.52682 79.6552C2.66746 84.7924 1.17058 90.6414 1.17058 96.5482C1.17058 108.4 7.08123 119.329 16.9834 125.813L71.9445 161.138L93.7447 131.527L46.8819 91.4303L64.3451 59.1834L80.1579 105.63L133.68 105.63L133.603 115.981L221.59 115.981C226.58 115.981 231.358 114.596 235.427 111.998C239.246 109.555 242.393 106.072 244.485 101.955C246.576 97.8373 247.555 93.2774 247.306 88.7367C247.037 83.9266 245.348 79.2319 242.45 75.1914L202.17 18.971C194.321 7.81159 181.502 1.15442 167.896 1.15442L84.8212 1.15442Z" fill="rgb(254,82,68)" fill-rule="nonzero" transform="matrix(-1,0,0,1,248.48,143.514)" />
			</g>
			<path id="Vector" d="M19.6103 20.9552C13.0473 29.8058 4.96818 34.8853 1.53313 32.3263C-1.90193 29.7674 0.631166 20.532 7.17504 11.6814C13.7381 2.8308 21.0496 -1.86386 24.4846 0.695117C27.9197 3.25409 26.1542 12.1239 19.6103 20.9552Z" fill="rgb(254,82,68)" fill-rule="nonzero" transform="matrix(-1,0,0,1,177.8,273.961)" />
			<path id="Vector" d="M27.73 38.5193L0 0L53.3107 0L27.73 38.5193ZM2.26447 1.15442L27.6916 36.4798L51.1614 1.15442L2.26447 1.15442Z" fill="rgb(254,82,68)" fill-rule="nonzero" transform="matrix(-1,0,0,1,157.633,143.59)" />
			<path id="Vector" d="M3.35834 6.73412C1.51605 6.73412 0 5.21413 0 3.36706C0 1.51999 1.51605 0 3.35834 0C5.20063 0 6.71667 1.51999 6.71667 3.36706C6.71667 5.21413 5.20063 6.73412 3.35834 6.73412ZM3.35834 1.15442C2.14934 1.15442 1.15143 2.15492 1.15143 3.36706C1.15143 4.5792 2.14934 5.5797 3.35834 5.5797C4.56734 5.5797 5.56524 4.5792 5.56524 3.36706C5.56524 2.15492 4.56734 1.15442 3.35834 1.15442Z" fill="rgb(254,82,68)" fill-rule="nonzero" transform="matrix(-1,0,0,1,132.993,188.383)" />
			<path id="Vector" d="M3.35834 6.73412C1.51605 6.73412 0 5.21413 0 3.36706C0 1.51999 1.51605 0 3.35834 0C5.20063 0 6.71667 1.51999 6.71667 3.36706C6.71667 5.21413 5.20063 6.73412 3.35834 6.73412ZM3.35834 1.15442C2.14934 1.15442 1.15143 2.15492 1.15143 3.36706C1.15143 4.5792 2.14934 5.5797 3.35834 5.5797C4.56734 5.5797 5.56524 4.5792 5.56524 3.36706C5.56524 2.15492 4.56734 1.15442 3.35834 1.15442Z" fill="rgb(254,82,68)" fill-rule="nonzero" transform="matrix(-1,0,0,1,132.993,206.084)" />
			<path id="Vector" d="M1.15142 59.2796L0 59.2796L0 19.452L52.8693 19.452L40.7602 0.615683L41.7198 0L54.9802 20.6064L1.15142 20.6064L1.15142 59.2796Z" fill="rgb(254,82,68)" fill-rule="nonzero" transform="matrix(-1,0,0,1,115.28,201.465)" />
			<path id="Vector" d="M13.9898 0L0 0L0 1.15439L13.9898 1.15439L13.9898 0Z" fill="rgb(254,82,68)" fill-rule="evenodd" transform="matrix(-1,0,0,1,61.3555,220.918)" />
			<path id="Vector" d="M7.75283 39.9045C12.0346 39.9045 15.5057 30.9716 15.5057 19.9523C15.5057 8.93295 12.0346 0 7.75283 0C3.47105 0 0 8.93295 0 19.9523C0 30.9716 3.47105 39.9045 7.75283 39.9045Z" fill="rgb(254,82,68)" fill-rule="evenodd" transform="matrix(-1,0,0,1,122.457,220.84)" />
			<path id="Vector" d="M0 39.6352L0 38.4808C3.89567 38.4808 7.17727 29.938 7.17727 19.8176C7.17727 9.69716 3.89567 1.15442 0 1.15442L0 0C4.66329 0 8.3287 8.69666 8.3287 19.8176C8.3287 30.9386 4.66329 39.6352 0 39.6352Z" fill="rgb(254,82,68)" fill-rule="nonzero" transform="matrix(-1,0,0,1,107.028,220.977)" />
			<path id="Vector" d="M1.75275 33.3686C-1.98936 30.5787 0.447818 21.1702 7.27957 11.9156C10.5803 7.47106 13.9578 4.04627 17.0666 2.00679C20.3866 -0.167368 23.1308 -0.59067 25.0114 0.813877L24.3206 1.73742C21.2693 -0.53294 14.6295 3.93083 8.20072 12.6082C1.96386 21.0355 -0.665212 30.117 2.44362 32.445L1.75275 33.3686Z" fill="rgb(254,82,68)" fill-rule="nonzero" transform="matrix(-1,0,0,1,184.333,268.781)" />
		</g>
		<g id="HAIR">
			<path id="Vector" d="M48.5515 22.7998C48.6858 3.82882 61.2555 -1.36609 81.9043 0.288586C104.165 2.07794 95.0497 32.7856 107.408 33.8054C112.59 34.2286 118.5 28.3411 126.368 23.4925C132.855 19.1057 140.665 16.5467 149.09 16.5467C171.561 16.5467 189.792 34.8251 189.792 57.3556C189.792 67.7262 184.975 77.7504 178.623 84.9463C178.623 84.9463 154.616 51.1409 145.309 47.9663C127.002 41.7324 121.187 57.8559 108.483 60.3571C106.813 60.6842 105.029 60.7804 103.071 60.5495C84.9939 58.4715 88.4482 28.5912 88.4482 28.5912C83.7657 26.6672 82.7486 21.7993 82.5759 18.8556C82.6719 17.4318 82.6143 16.489 82.6143 16.489C82.6143 16.489 82.4992 17.451 82.5759 18.8556C82.1921 24.3968 78.8146 37.6534 59.9889 32.9011L59.9889 39.3466C59.9889 78.3854 60.6222 85.9661 52.735 95.7787C51.5644 97.2409 43.7347 109.035 57.7629 115.404C75.8402 123.6 63.0786 145.169 63.0786 145.169L24.8323 145.169C24.8323 145.169 2.13008 141.128 0.153476 120.464C-2.6675 90.9301 34.2739 83.0223 39.0907 82.118C29.7258 80.6749 20.572 71.4203 20.572 60.2032C20.572 50.2559 28.1906 41.8478 36.0202 39.0772C36.0394 39.0772 36.0394 39.0772 36.0586 39.058C36.2889 38.981 36.5192 38.9041 36.7495 38.8271C42.8712 36.7106 47.3809 32.0545 48.3788 26.417L48.5515 22.7998Z" fill="rgb(255,207,45)" fill-rule="nonzero" transform="matrix(-1,0,0,1,204.86,105.418)" />
			<g id="Group">
				<path id="Vector" d="M0.479766 10.7939C0.211097 10.7939 0 10.563 0 10.3129L0.153535 0.48101C0.153535 0.211644 0.364632 0 0.633301 0C0.90197 0 1.11307 0.230885 1.11307 0.48101L0.959533 10.3129C0.940342 10.5822 0.729245 10.7939 0.479766 10.7939Z" fill="rgb(229,114,129)" fill-rule="nonzero" transform="matrix(-1,0,0,1,122.668,117.637)" />
			</g>
			<g id="Group">
				<path id="Vector" d="M5.94176 5.74583C5.86499 5.74583 5.78819 5.72661 5.71143 5.68813C1.06737 3.24458 0.0886881 0.743299 0.0311171 0.647096C-0.0648347 0.396969 0.0694978 0.127611 0.318972 0.0314088C0.568447 -0.0647938 0.837103 0.0698828 0.933054 0.300769C0.952245 0.33925 1.89256 2.5904 6.15282 4.84154C6.38311 4.95698 6.47908 5.26484 6.36393 5.49572C6.28717 5.64965 6.11447 5.74583 5.94176 5.74583Z" fill="rgb(229,114,129)" fill-rule="nonzero" transform="matrix(-1,0,0,1,149.969,133.883)" />
			</g>
			<path id="Vector" d="M5.75706 11.5443C8.9366 11.5443 11.5141 8.95999 11.5141 5.77213C11.5141 2.58427 8.9366 0 5.75706 0C2.57753 0 0 2.58427 0 5.77213C0 8.95999 2.57753 11.5443 5.75706 11.5443Z" fill="rgb(255,207,45)" fill-rule="evenodd" transform="matrix(-1,0,0,1,85.3237,111.363)" />
			<path id="Vector" d="M4.62482 9.27386C7.17906 9.27386 9.24969 7.19784 9.24969 4.63693C9.24969 2.07602 7.17906 0 4.62482 0C2.07059 0 0 2.07602 0 4.63693C0 7.19784 2.07059 9.27386 4.62482 9.27386Z" fill="rgb(255,207,45)" fill-rule="evenodd" transform="matrix(-1,0,0,1,151.953,204.91)" />
		</g>
		<g id="ARMS">
			<g id="Group">
				<path id="Vector" d="M57.2448 4.5792L57.2257 8.08096C57.2257 8.38881 57.1489 8.69665 57.0338 8.96601L48.6284 27.7446C47.381 30.4575 44.6752 32.1891 41.7007 32.1891L23.7193 32.1891C19.2288 32.1891 14.8725 30.6692 11.3415 27.8986L10.7082 27.3983L0 18.9518C1.1898 16.3736 2.82102 13.6222 4.83601 10.9093C8.67408 5.71438 13.0687 1.82784 16.7148 0L42.5258 0C44.5792 4.59845 37.901 8.2926 37.901 8.2926L49.5687 8.2926L53.7906 3.69414C54.8844 2.50124 56.861 3.02073 57.2448 4.5792Z" fill="rgb(229,114,129)" fill-rule="nonzero" transform="matrix(-1,0,0,1,175.441,274.754)" />
				<path id="Vector" d="M15.6209 5.39731L0.479756 5.39731C0.211093 5.39731 0 5.18566 0 4.9163C0 4.64693 0.211093 4.43529 0.479756 4.43529L15.6209 4.43529C18.4034 4.43529 20.9558 2.79986 22.1072 0.279364C22.2223 0.0292389 22.5102 -0.0669772 22.7405 0.0484652C22.9899 0.163908 23.0859 0.452523 22.9707 0.683408C21.6658 3.55023 18.7681 5.39731 15.6209 5.39731Z" fill="rgb(154,59,130)" fill-rule="nonzero" transform="matrix(-1,0,0,1,147.385,296.311)" />
				<path id="Vector" d="M15.6209 5.39731L0.479755 5.39731C0.211092 5.39731 0 5.18566 0 4.9163C0 4.64693 0.211092 4.43528 0.479755 4.43528L15.6209 4.43528C18.4034 4.43528 20.9557 2.79985 22.1071 0.279346C22.2223 0.0292201 22.5101 -0.0669729 22.7404 0.04847C22.9899 0.163913 23.0858 0.452506 22.9707 0.683392C21.6658 3.55022 18.768 5.39731 15.6209 5.39731Z" fill="rgb(154,59,130)" fill-rule="nonzero" transform="matrix(-1,0,0,1,144.737,290.365)" />
				<path id="Vector" d="M15.6209 5.39731L0.479759 5.39731C0.211094 5.39731 0 5.18566 0 4.9163C0 4.64693 0.211094 4.43528 0.479759 4.43528L15.6209 4.43528C18.4035 4.43528 20.9559 2.79985 22.1073 0.279346C22.2224 0.0292201 22.5103 -0.0669729 22.7406 0.04847C22.9901 0.163913 23.086 0.452506 22.9709 0.683392C21.6659 3.55022 18.7682 5.39731 15.6209 5.39731Z" fill="rgb(154,59,130)" fill-rule="nonzero" transform="matrix(-1,0,0,1,141.878,283.746)" />
				<path id="Vector" d="M17.0794 19.7983C15.3715 22.5882 12.8575 25.4935 10.7274 27.4175L10.7082 27.3983L0 18.9518C1.1898 16.3736 2.82097 13.6222 4.83596 10.9093C8.67402 5.71438 13.0686 1.82784 16.7148 0L22.2608 0C22.7597 4.36757 22.0305 11.7174 17.0794 19.7983Z" fill="rgb(154,59,130)" fill-rule="nonzero" transform="matrix(-1,0,0,1,175.461,274.734)" />
			</g>
			<g id="Group">
				<path id="Vector" d="M0 24.4619C0 24.4619 9.32651 -0.492828 12.9343 0.00742183C16.5229 0.488431 4.89352 22.6149 4.89352 22.6149L0 24.4619Z" fill="rgb(254,82,68)" fill-rule="nonzero" transform="matrix(-1,0,0,1,139.978,210.713)" />
				<g id="Group">
					<path id="Vector" d="M47.8222 8.90833C47.8222 19.5868 44.5599 28.2834 40.4723 28.8222C40.338 28.8414 40.2037 28.8414 40.0693 28.8414L2.07252 28.8414C0.921097 28.8414 0 27.9179 0 26.7634L0 14.6035C0 11.1595 2.11092 8.08099 5.31571 6.86885L21.2245 0.827348C22.6637 0.288616 24.1989 0 25.7342 0L46.997 0C47.5152 2.69366 47.8222 5.71442 47.8222 8.90833Z" fill="rgb(229,114,129)" fill-rule="nonzero" transform="matrix(-1,0,0,1,154.773,231.885)" />
					<path id="Vector" d="M0.479756 11.3445C0.211093 11.3445 0 11.1329 0 10.8635C0 8.0929 1.72712 5.5724 4.31781 4.59114L16.3309 0.0311981C16.5804 -0.0650035 16.849 0.0696787 16.945 0.319803C17.0409 0.569927 16.9066 0.839282 16.6571 0.935483L4.64403 5.49545C2.43715 6.34203 0.940304 8.49694 0.940304 10.8827C0.959494 11.1329 0.74842 11.3445 0.479756 11.3445Z" fill="rgb(154,59,130)" fill-rule="nonzero" transform="matrix(-1,0,0,1,154.582,240.975)" />
					<path id="Vector" d="M0.479756 11.3445C0.211093 11.3445 0 11.1329 0 10.8635C0 8.0929 1.72712 5.57242 4.31781 4.59116L16.3309 0.0311982C16.5804 -0.0650037 16.849 0.069679 16.945 0.319804C17.0409 0.569929 16.9066 0.839285 16.6571 0.935487L4.64403 5.49545C2.43715 6.34202 0.940304 8.49695 0.940304 10.8828C0.959494 11.1329 0.74842 11.3445 0.479756 11.3445Z" fill="rgb(154,59,130)" fill-rule="nonzero" transform="matrix(-1,0,0,1,154.582,248.246)" />
					<path id="Vector" d="M0.472502 5.51472C0.2806 5.51472 0.0886877 5.39929 0.0311169 5.20688C-0.0648344 4.95676 0.0694975 4.6874 0.318971 4.5912L12.3321 0.0311983C12.5815 -0.0650039 12.8502 0.0696792 12.9462 0.319805C13.0421 0.569931 12.9078 0.839311 12.6583 0.935513L0.645196 5.49549C0.587625 5.49549 0.530073 5.51472 0.472502 5.51472Z" fill="rgb(154,59,130)" fill-rule="nonzero" transform="matrix(-1,0,0,1,151.216,255.039)" />
					<path id="Vector" d="M15.5058 8.92754C15.5058 19.606 12.2434 28.3026 8.15589 28.8413C8.02156 28.8606 7.88721 28.8606 7.75288 28.8606C3.47343 28.8606 0 19.933 0 8.90831C0 5.96453 0.441368 2.61669 0.901936 0L14.5847 0C15.0644 2.63593 15.5058 5.98377 15.5058 8.92754Z" fill="rgb(154,59,130)" fill-rule="nonzero" transform="matrix(-1,0,0,1,122.457,231.865)" />
				</g>
			</g>
		</g>
		<g id="HEAD">
			<path id="HEAD 1" d="M34.6961 14.0455C34.6961 15.1614 34.3123 16.2197 33.679 17.047C33.0265 17.8936 32.1246 18.5093 31.0308 18.7979L28.3825 19.4905L28.3825 22.4535C28.3825 29.611 22.6062 35.4023 15.4674 35.4023L12.9151 35.4023C5.79549 35.4023 0.0383806 29.6302 0 22.5112L0 14.0455C18.8257 18.8171 22.2032 5.54123 22.587 0C22.7406 2.8091 23.6809 7.34982 27.826 9.44702L28.5552 9.25462C31.664 8.48501 34.6961 10.8323 34.6961 14.0455Z" fill="rgb(229,114,129)" fill-rule="nonzero" transform="matrix(-1,0,0,1,144.833,124.254)" />
			<g id="FACE">
				<path id="Vector" d="M6.64119 2.53813C6.52604 2.53813 6.41088 2.49965 6.33412 2.42269C4.24238 0.633295 0.557879 0.97963 0.519499 0.97963C0.250834 0.99887 0.0205133 0.806471 0.00132298 0.556341C-0.0178673 0.286969 0.174073 0.0560652 0.423547 0.0368244C0.59626 0.0175836 4.56862 -0.347978 6.96741 1.71079C7.15931 1.88396 7.1977 2.19181 7.02499 2.38422C6.90985 2.48042 6.77552 2.53813 6.64119 2.53813Z" fill="rgb(154,59,130)" fill-rule="nonzero" transform="matrix(-1,0,0,1,126.604,140.188)" />
				<path id="Vector" d="M9.8101 12.9589C9.54143 12.9589 9.33034 12.7473 9.33034 12.4779C9.29196 6.78277 8.08296 2.2805 6.39421 1.53013C3.41971 0.221779 0.733089 1.62632 0.713898 1.64557C0.483614 1.78025 0.195731 1.68405 0.0613989 1.45316C-0.0729334 1.22228 0.0230183 0.933665 0.253302 0.798982C0.387635 0.72202 3.38133 -0.85568 6.77802 0.645073C8.90814 1.58785 10.2515 6.10935 10.2899 12.4779C10.2899 12.7473 10.0788 12.9589 9.8101 12.9589Z" fill="rgb(154,59,130)" fill-rule="nonzero" transform="matrix(-1,0,0,1,141.824,140.561)" />
				<path id="Vector" d="M0.748467 2.88603C1.16182 2.88603 1.49689 2.23997 1.49689 1.44302C1.49689 0.64606 1.16182 0 0.748467 0C0.335116 0 0 0.64606 0 1.44302C0 2.23997 0.335116 2.88603 0.748467 2.88603Z" fill="rgb(154,59,130)" fill-rule="evenodd" transform="matrix(-1,0,0,1,138.404,144.766)" />
				<path id="Vector" d="M0.748359 2.88603C1.16168 2.88603 1.49677 2.23997 1.49677 1.44302C1.49677 0.64606 1.16168 0 0.748359 0C0.335041 0 0 0.64606 0 1.44302C0 2.23997 0.335041 2.88603 0.748359 2.88603Z" fill="rgb(154,59,130)" fill-rule="evenodd" transform="matrix(-1,0,0,1,124.472,144.766)" />
				<path id="Vector" d="M0.479763 4.41714C0.211096 4.41714 0 4.2055 0 3.93614C0 2.05061 1.34331 0.395947 3.1856 0.0111435C3.43508 -0.046577 3.70374 0.126589 3.76131 0.376711C3.81889 0.646073 3.64619 0.896196 3.39671 0.953916C1.99581 1.24252 0.978689 2.51236 0.978689 3.95538C0.959498 4.2055 0.74843 4.41714 0.479763 4.41714Z" fill="rgb(154,59,130)" fill-rule="nonzero" transform="matrix(-1,0,0,1,116.201,136.23)" />
			</g>
		</g>
	</g>
	<g id="PLANT">
		<g id="Group">
			<path id="Vector" d="M23.7777 22.3958C26.0613 27.7832 25.3897 38.8657 13.8947 38.7117C-0.363771 38.5193 0.000863313 0 0.000863313 0C0.000863313 0 14.5663 0.673395 23.7777 22.3958Z" fill="rgb(63,177,181)" fill-rule="nonzero" transform="matrix(-1,0,0,1,345.084,413.602)" />
			<path id="Vector" d="M1.2512 3.46838C-2.3182 11.0491 2.47938 17.1483 6.50934 15.0511C13.5522 11.3762 16.5843 1.92915 16.5843 1.92915C16.5843 1.92915 4.45598 -3.30425 1.2512 3.46838Z" fill="rgb(63,177,181)" fill-rule="nonzero" transform="matrix(-1,0,0,1,455.355,419.504)" />
			<g id="Group">
				<path id="Vector" d="M76.2061 54.7004C68.5683 39.3658 59.9519 32.0737 46.154 32.0737C22.9145 32.0737 8.00368 57.0093 5.16351 89.2562C4.81808 85.2542 0.692161 81.156 0.385116 77.0001C-3.75999 21.7801 26.4264 1.03902e-05 49.071 1.03902e-05C67.6088 -0.01923 72.2337 26.6864 76.2061 54.7004Z" fill="rgb(255,255,255)" fill-rule="nonzero" transform="matrix(-1,0,0,1,397.705,381.299)" />
				<path id="Vector" d="M6.31759 89.9103L5.16617 89.9103C5.01265 88.0632 3.97637 86.1777 2.88252 84.1574C1.7311 82.0602 0.541299 79.8668 0.387776 77.6349C-2.14534 43.8296 8.21743 24.9548 17.352 15.0652C26.1988 5.50276 37.9816 0 49.6493 0L49.6685 0C58.3042 0 64.6945 5.61817 69.2042 17.2009C73.1958 27.4368 75.326 41.0205 77.341 55.2006L77.8399 58.7216L76.2471 55.547C72.2939 47.6007 68.3023 42.2519 63.6966 38.6732C58.9566 35.0175 53.4106 33.2281 46.7132 33.2281C35.8515 33.2281 26.2755 38.8463 19.0408 49.467C12.1515 59.6452 7.75686 73.6137 6.31759 89.9103ZM49.6685 1.17368L49.6493 1.17368C38.2887 1.17368 26.832 6.52247 18.1964 15.8541C9.21533 25.5704 -0.974736 44.1374 1.5392 77.5387C1.69272 79.5205 2.80577 81.5985 3.89961 83.5995C4.45613 84.6192 5.03183 85.6774 5.47321 86.7356C7.18115 71.555 11.5374 58.51 18.1004 48.8513C25.5655 37.8843 35.4485 32.093 46.7132 32.093C53.6793 32.093 59.4556 33.9593 64.4067 37.7689C68.5518 40.9628 72.1787 45.542 75.7289 52.026C73.8675 39.1349 71.7757 26.9558 68.1296 17.6434C66.0378 12.2754 63.6199 8.33108 60.7413 5.61818C57.5941 2.63592 53.9671 1.17368 49.6685 1.17368Z" fill="rgb(63,177,181)" fill-rule="nonzero" transform="matrix(-1,0,0,1,398.283,380.701)" />
			</g>
			<path id="Vector" d="M0.377136 77.6156C-2.13679 44.2143 8.3987 25.2433 17.6868 15.2191C26.4952 5.69512 38.2972 0 49.2549 0C61.0185 0 68.4835 6.8303 74.2023 22.819L73.1276 23.2039C67.5816 7.75384 60.4428 1.15442 49.2549 1.15442C38.6234 1.15442 27.1284 6.71488 18.5312 16.008C9.3966 25.8783 -0.946995 44.5607 1.52855 77.5387L0.377136 77.6156Z" fill="rgb(63,177,181)" fill-rule="nonzero" transform="matrix(-1,0,0,1,398.253,393.746)" />
			<g id="Group">
				<path id="Vector" d="M10.1719 9.54625C3.97346 15.7032 -7.23368 40.9466 6.64091 45.9491C20.5155 50.9708 36.7697 1.54223 36.7697 1.54223C36.7697 1.54223 25.006 -5.21113 10.1719 9.54625Z" fill="rgb(255,207,45)" fill-rule="nonzero" transform="matrix(-1,0,0,1,494.424,348.451)" />
				<path id="Vector" d="M9.25128 47.4374C8.50286 47.4374 7.75442 47.3028 7.02519 47.0526C3.47498 45.7635 1.24891 43.1661 0.385344 39.2987C-1.78316 29.4284 5.70107 14.3247 10.3451 9.70702C14.6438 5.43566 21.4755 0.260012 29.593 0.00988676C34.4865 -0.144036 37.4994 1.5491 37.6337 1.62606L38.0368 1.85694L37.8832 2.29947C37.8448 2.39568 34.6976 11.9197 30.0728 22.0593C23.8167 35.7585 17.9829 44.0126 12.7055 46.5908C11.5349 47.1296 10.3643 47.4374 9.25128 47.4374ZM30.2263 1.12579C30.0152 1.12579 29.7849 1.12581 29.5546 1.14505C21.8401 1.43366 15.2962 6.39767 11.1511 10.5151C6.56462 15.0751 -0.516591 29.9094 1.49839 39.0486C2.266 42.5119 4.24259 44.84 7.40899 45.9752C8.92503 46.5331 10.4986 46.3792 12.2066 45.5519C23.5097 40.0299 35.139 6.80174 36.6359 2.41494C35.7339 1.97241 33.4503 1.12579 30.2263 1.12579Z" fill="rgb(255,207,45)" fill-rule="nonzero" transform="matrix(-1,0,0,1,495,347.906)" />
			</g>
			<g id="Group">
				<path id="Vector" d="M65.7844 3.7904L60.8333 30.7077C58.3386 44.2144 46.5941 54.027 32.8922 54.027C19.1903 54.027 7.44583 44.2144 4.95109 30.7077L0 3.7904C0 2.44357 0.30705 1.15442 0.844379 0C4.81677 4.002 17.7319 6.92654 33.0265 6.92654C48.1101 6.92654 60.8525 4.07896 65.036 0.192404C65.5158 1.28911 65.7844 2.52053 65.7844 3.7904Z" fill="rgb(208,240,228)" fill-rule="nonzero" transform="matrix(-1,0,0,1,435.643,468.898)" />
				<path id="Vector" d="M59.0678 6.86883C59.0678 10.6784 45.8457 13.7569 29.5339 13.7569C13.2221 13.7569 0 10.6784 0 6.86883C0 6.56099 0.0767707 6.27241 0.249484 5.9838C2.13014 2.59748 14.5271 0 29.5339 0C45.0013 0 57.6861 2.77062 58.9527 6.29162C59.0294 6.48403 59.0678 6.67643 59.0678 6.86883Z" fill="rgb(102,176,240)" fill-rule="nonzero" transform="matrix(-1,0,0,1,432.169,459.434)" />
			</g>
			<g id="Group">
				<path id="Vector" d="M93.5528 96.1442C93.5528 112.075 91.3651 127.121 87.4695 140.359L76.2623 140.359C76.2239 73.4598 51.8906 19.2596 21.8961 19.2596C14.1049 19.2596 6.69742 22.9153 0 29.4955C19.7276 6.34933 27.9219 0 39.1866 0C66.0915 4.37476e-14 93.5528 43.0407 93.5528 96.1442Z" fill="rgb(255,255,255)" fill-rule="nonzero" transform="matrix(-1,0,0,1,485.595,330.004)" />
				<path id="Vector" d="M88.333 141.532L76.128 141.532L76.128 140.955C76.0896 74.4988 51.9674 20.4333 22.3375 20.4333C14.8725 20.4333 7.63773 23.8196 0.844355 30.496L0 29.7072C20.1115 6.11845 28.2481 0 39.628 0C53.0037 0 66.7631 10.3706 77.3945 28.4373C82.6911 37.4418 86.8746 47.7739 89.8299 59.145C92.9771 71.2087 94.5507 83.8496 94.5507 96.7215C94.5507 112.171 92.4397 127.525 88.4482 141.09L88.333 141.532ZM77.2794 140.378L87.4886 140.378C91.3651 127.006 93.4184 111.941 93.4184 96.7407C93.4184 83.9651 91.8448 71.4203 88.7168 59.4528C85.7807 48.1972 81.6356 37.9613 76.3967 29.0338C71.3496 20.4525 65.3814 13.3913 59.1254 8.60047C52.6774 3.67493 46.1143 1.15442 39.628 1.15442C29.5915 1.15442 22.0689 6.21463 5.60356 24.974C10.9769 21.1837 16.5804 19.2596 22.3375 19.2596C29.8217 19.2596 37.0757 22.5113 43.8691 28.9376C50.3938 35.0945 56.2468 43.8873 61.2747 55.066C71.5223 77.8851 77.2026 108.15 77.2794 140.378Z" fill="rgb(255,207,45)" fill-rule="nonzero" transform="matrix(-1,0,0,1,486.037,329.406)" />
			</g>
			<path id="Vector" d="M71.1577 132.451L70.0063 132.335C71.3304 118.771 71.6375 105.572 70.9274 93.1042C70.2557 81.4061 68.663 70.2851 66.2066 60.0685C61.6393 41.0782 54.1935 25.455 44.6559 14.9113C36.5384 5.92604 27.3846 1.17364 18.2116 1.17364C11.1112 1.17364 7.06204 3.2516 0.671661 7.90777L0 6.96501C6.60147 2.15491 10.8041 0 18.2308 0C27.7492 0 37.1716 4.88707 45.5194 14.1032C55.1913 24.8009 62.7332 40.5972 67.3388 59.7799C69.8144 70.0735 71.4072 81.2522 72.098 93.0273C72.8081 105.572 72.501 118.829 71.1577 132.451Z" fill="rgb(255,207,45)" fill-rule="nonzero" transform="matrix(-1,0,0,1,473.352,337.949)" />
			<g id="Group">
				<path id="Vector" d="M49.9907 63.0316C49.9907 63.0316 51.6411 0.211818 17.5016 0.000173395C8.46294 -0.0575477 0 14.315 0 14.315C0 14.315 39.9734 3.84822 41.95 63.0316L49.9907 63.0316Z" fill="rgb(255,255,255)" fill-rule="nonzero" transform="matrix(-1,0,0,1,452.684,407.311)" />
				<path id="Vector" d="M51.7371 64.2244L42.5833 64.2244L42.5641 63.6664C41.8732 42.7136 36.3465 28.2256 26.1756 20.6064C20.2458 16.1619 13.817 15.0075 9.48002 14.8151C4.74001 14.6035 1.3817 15.4692 1.34332 15.4692L0 15.8156L0.710032 14.6034C0.805984 14.4495 2.89774 10.9093 6.1409 7.33056C10.5355 2.46274 14.7573 0 18.653 0C18.6722 0 18.6914 0 18.7106 0C25.6191 0.0384808 31.6064 2.63593 36.5 7.69615C40.2421 11.5635 43.3701 16.9315 45.8073 23.6272C47.7455 28.9567 49.2423 35.1522 50.2786 42.0402C52.0249 53.7384 51.7947 63.5317 51.7947 63.6279L51.7371 64.2244ZM43.6963 63.0699L50.6048 63.0699C50.624 60.8381 50.5856 52.2376 49.0888 42.2134C47.496 31.5542 43.869 17.0469 35.6364 8.52345C30.9732 3.69412 25.2736 1.23138 18.6722 1.19289C18.653 1.19289 18.6338 1.19289 18.6146 1.19289C11.495 1.19289 4.5673 10.7554 2.3796 14.084C3.81888 13.8338 6.33279 13.526 9.46081 13.6607C13.9705 13.8531 20.668 15.046 26.828 19.6637C37.2292 27.4368 42.9095 42.0402 43.6963 63.0699Z" fill="rgb(63,177,181)" fill-rule="nonzero" transform="matrix(-1,0,0,1,453.874,406.695)" />
			</g>
			<path id="Vector" d="M39.0907 58.8109L37.9393 58.7725C38.0352 54.9244 38.016 44.8232 35.5405 33.9909C33.0266 23.0239 28.8239 14.6351 23.0476 9.07461C17.0218 3.26402 9.28812 0.628097 0.076766 1.24379L0 0.0893672C9.55678 -0.545565 17.5784 2.20579 23.8344 8.24726C29.7642 13.9809 34.082 22.5429 36.6535 33.7407C39.1674 44.7077 39.1867 54.9244 39.0907 58.8109Z" fill="rgb(63,177,181)" fill-rule="nonzero" transform="matrix(-1,0,0,1,445.392,411.742)" />
			<g id="Group">
				<path id="Vector" d="M3.16642 6.34937C4.91519 6.34937 6.33284 4.92801 6.33284 3.17468C6.33284 1.42135 4.91519 0 3.16642 0C1.41766 0 0 1.42135 0 3.17468C0 4.92801 1.41766 6.34937 3.16642 6.34937Z" fill="rgb(255,255,255)" fill-rule="evenodd" transform="matrix(-1,0,0,1,456.004,355.689)" />
				<path id="Vector" d="M3.74212 7.50375C1.66956 7.50375 0 5.82984 0 3.75188C0 1.67391 1.66956 0 3.74212 0C5.81467 0 7.48423 1.67391 7.48423 3.75188C7.48423 5.82984 5.81467 7.50375 3.74212 7.50375ZM3.74212 1.15442C2.32203 1.15442 1.15142 2.32809 1.15142 3.75188C1.15142 5.17567 2.32203 6.34933 3.74212 6.34933C5.1622 6.34933 6.33281 5.17567 6.33281 3.75188C6.33281 2.32809 5.1622 1.15442 3.74212 1.15442Z" fill="rgb(255,207,45)" fill-rule="nonzero" transform="matrix(-1,0,0,1,456.579,355.113)" />
			</g>
			<g id="Group">
				<path id="Vector" d="M4.62485 9.27383C7.17909 9.27383 9.24973 7.19784 9.24973 4.63694C9.24973 2.07604 7.17909 0 4.62485 0C2.07061 0 0 2.07604 0 4.63694C0 7.19784 2.07061 9.27383 4.62485 9.27383Z" fill="rgb(255,255,255)" fill-rule="evenodd" transform="matrix(-1,0,0,1,382.831,443.559)" />
				<path id="Vector" d="M5.20059 10.4283C2.34122 10.4283 0 8.08101 0 5.21418C0 2.34735 2.34122 0 5.20059 0C8.05995 0 10.4012 2.34735 10.4012 5.21418C10.4012 8.08101 8.05995 10.4283 5.20059 10.4283ZM5.20059 1.15443C2.9745 1.15443 1.15142 2.98229 1.15142 5.21418C1.15142 7.44607 2.9745 9.27389 5.20059 9.27389C7.42667 9.27389 9.24978 7.44607 9.24978 5.21418C9.24978 2.98229 7.42667 1.15443 5.20059 1.15443Z" fill="rgb(255,207,45)" fill-rule="nonzero" transform="matrix(-1,0,0,1,383.407,442.982)" />
			</g>
			<path id="Vector" d="M8.73159 17.5088C13.5539 17.5088 17.4632 13.5893 17.4632 8.75438C17.4632 3.91947 13.5539 0 8.73159 0C3.90926 0 0 3.91947 0 8.75438C0 13.5893 3.90926 17.5088 8.73159 17.5088Z" fill="rgb(208,240,228)" fill-rule="evenodd" transform="matrix(-1,0,0,1,394.614,345.877)" />
		</g>
		<g id="Group">
			<path id="Vector" d="M79.6782 42.3778L71.9445 3.76228C71.6374 2.22305 70.4476 1.49187 69.4306 1.31871C68.4135 1.14554 67.051 1.43417 66.245 2.781C63.6543 7.1101 59.8162 10.6503 55.153 13.0169C50.7776 15.2488 45.7305 16.4417 40.5875 16.461C35.4253 16.4802 30.3783 15.3258 25.9645 13.1324C21.2629 10.785 17.3864 7.264 14.7574 2.95414L14.5655 2.62707C13.7595 1.29948 12.3778 1.03013 11.3799 1.20329C10.382 1.37646 9.19217 2.12682 8.88512 3.64682L1.13223 42.3778L0 42.1469L7.75289 3.41594C8.09832 1.66506 9.40327 0.395167 11.1688 0.06808C12.9343 -0.239767 14.6038 0.510647 15.5442 2.03064L15.7361 2.37693C18.25 6.49438 21.9729 9.86148 26.4634 12.1126C30.7045 14.2291 35.598 15.345 40.5683 15.3257C45.5386 15.3065 50.3938 14.1521 54.6156 11.9971C59.087 9.70753 62.7523 6.32122 65.2471 2.18453C66.1682 0.645293 67.8378 -0.124305 69.6225 0.183541C71.388 0.491388 72.7121 1.7805 73.0575 3.55062L80.7912 42.1661L79.6782 42.3778Z" fill="rgb(102,176,240)" fill-rule="nonzero" transform="matrix(-1,0,0,1,443.185,511.16)" />
			<path id="Vector" d="M1.15142 0L0 0L0 26.5325L1.15142 26.5325L1.15142 0Z" fill="rgb(102,176,240)" fill-rule="evenodd" transform="matrix(-1,0,0,1,403.346,527.062)" />
		</g>
		<path id="Vector" d="M257.227 0L0 0L0 1.15442L257.227 1.15442L257.227 0Z" fill="rgb(102,176,240)" fill-rule="evenodd" transform="matrix(-1,0,0,1,460.168,552.846)" />
	</g>
	<g id="LAPTOP">
		<path id="Vector" d="M117.586 69.116L29.7104 69.116C27.3504 69.116 25.2406 67.6832 24.3646 65.4982L0.317333 5.96416C-0.826922 3.11641 1.26492 0 4.32223 0L92.1974 0C94.5574 0 96.6672 1.43284 97.5432 3.6179L121.59 63.1519C122.753 65.9997 120.661 69.116 117.586 69.116Z" fill="rgb(255,255,255)" fill-rule="nonzero" transform="matrix(-1,0,0,1,364.282,222.424)" />
		<path id="Vector (Stroke)" d="M1.35149 6.30036C1.35155 6.30052 1.35162 6.30067 1.35168 6.30083L25.3991 65.8351C26.1935 67.8167 28.1063 69.116 30.2472 69.116L118.122 69.116C120.817 69.116 122.648 66.3859 121.631 63.8925L97.5828 4.35675L97.5823 4.35547C96.7878 2.37389 94.875 1.07462 92.7342 1.07462L4.859 1.07462C2.18434 1.07462 0.348584 3.8035 1.35149 6.30036ZM0.35653 6.70209C-0.92866 3.5036 1.41921 0 4.859 0L92.7342 0C95.3134 0 97.6201 1.56641 98.5777 3.95495L122.624 63.4858C123.93 66.6879 121.578 70.1906 118.122 70.1906L30.2472 70.1906C27.6679 70.1906 25.3613 68.6242 24.4036 66.2356L0.35653 6.70209Z" fill="rgb(254,82,68)" fill-rule="evenodd" transform="matrix(-1,0,0,1,364.819,221.887)" />
		<path id="Vector" d="M112.172 65.91L28.3374 65.91C26.1026 65.91 24.0822 64.5488 23.2419 62.4712L0.303203 5.67757C-0.787415 2.9552 1.19716 0 4.12931 0L87.9638 0C90.1987 0 92.219 1.36118 93.0593 3.43877L115.998 60.2325C117.089 62.9548 115.086 65.91 112.172 65.91Z" fill="rgb(254,82,68)" fill-rule="nonzero" transform="matrix(-1,0,0,1,362.945,226.061)" />
		<g id="Group">
			<path id="Vector" d="M8.76069 15.2058C6.29339 15.2058 3.96913 14.2387 2.21699 12.4835C0.786678 11.0506 0 9.15216 0 7.14621C0 5.12235 0.786678 3.22385 2.21699 1.80894C3.37913 0.644766 4.93458 0 6.57944 0C8.22431 0 9.77978 0.644766 10.9419 1.80894C12.9265 3.79698 12.9265 7.02082 10.9419 9.00886C9.29705 10.6566 6.6331 10.6566 4.98823 9.00886C4.70217 8.7223 4.70217 8.27455 4.98823 7.98799C5.2743 7.70142 5.72126 7.70142 6.00732 7.98799C7.09794 9.08051 8.85008 9.08051 9.94069 7.98799C11.371 6.55516 11.371 4.24473 9.94069 2.81191C9.04675 1.91639 7.84885 1.41492 6.57944 1.41492C5.31004 1.41492 4.11216 1.91639 3.21821 2.81191C2.05608 3.97608 1.43032 5.49846 1.43032 7.14621C1.43032 8.77605 2.07396 10.3163 3.21821 11.4805C4.70216 12.967 6.65098 13.773 8.74281 13.773C10.8347 13.773 12.8013 12.967 14.2674 11.4805C14.5535 11.1939 15.0004 11.1939 15.2865 11.4805C15.5726 11.7671 15.5726 12.2148 15.2865 12.5014C13.5522 14.2387 11.228 15.2058 8.76069 15.2058Z" fill="rgb(255,255,255)" fill-rule="nonzero" transform="matrix(-1,0,0,1,311.007,250.938)" />
		</g>
		<path id="Vector" d="M121.702 6.17911L2.48516 6.17911C1.10848 6.17911 0 5.06866 0 3.68955L0 2.48954C0 1.11043 1.10848 0 2.48516 0L121.702 0C123.079 0 124.187 1.11043 124.187 2.48954L124.187 3.68955C124.17 5.06866 123.061 6.17911 121.702 6.17911Z" fill="rgb(255,255,255)" fill-rule="nonzero" transform="matrix(-1,0,0,1,336.95,291.666)" />
		<path id="Vector (Stroke)" d="M3.02153 1.07463C1.94108 1.07463 1.07274 1.94449 1.07274 3.02684L1.07274 4.22686C1.07274 5.30922 1.94108 6.1791 3.02153 6.1791L122.239 6.1791C123.296 6.1791 124.172 5.31322 124.187 4.22306L124.187 3.02684C124.187 1.9445 123.319 1.07463 122.239 1.07463L3.02153 1.07463ZM0 3.02684C0 1.35099 1.34862 0 3.02153 0L122.239 0C123.911 0 125.26 1.35099 125.26 3.02684L125.26 4.23035L125.26 4.23383C125.238 5.90038 123.897 7.25372 122.239 7.25372L3.02153 7.25372C1.34861 7.25372 0 5.9027 0 4.22686L0 3.02684Z" fill="rgb(254,82,68)" fill-rule="evenodd" transform="matrix(-1,0,0,1,337.486,291.129)" />
	</g>
</svg>
